<?xml version="1.0" encoding="UTF-8" standalone="no"?>
<svg
   xmlns:dc="http://purl.org/dc/elements/1.1/"
   xmlns:cc="http://creativecommons.org/ns#"
   xmlns:rdf="http://www.w3.org/1999/02/22-rdf-syntax-ns#"
   xmlns:svg="http://www.w3.org/2000/svg"
   xmlns="http://www.w3.org/2000/svg"
   xmlns:sodipodi="http://sodipodi.sourceforge.net/DTD/sodipodi-0.dtd"
   xmlns:inkscape="http://www.inkscape.org/namespaces/inkscape"
   id="svg2"
   sodipodi:docname="contact.svg"
   version="1.1"
   inkscape:version="1.0.2 (e86c870879, 2021-01-15, custom)"
   viewBox="0 0 309.69346 211.25543"
   width="309.69345"
   height="211.25543">
  <defs
     id="defs9" />
  <sodipodi:namedview
     id="namedview14"
     bordercolor="#666666"
     inkscape:pageshadow="2"
     guidetolerance="10"
     pagecolor="#ffffff"
     gridtolerance="10"
     inkscape:window-maximized="0"
     inkscape:zoom="0.67876449"
     objecttolerance="10"
     borderopacity="1"
     inkscape:current-layer="svg2"
     inkscape:cx="173.22412"
     inkscape:cy="173.83863"
     inkscape:window-y="36"
     inkscape:window-x="646"
     inkscape:window-width="626"
     showgrid="false"
     inkscape:pageopacity="0"
     inkscape:window-height="1034"
     inkscape:document-rotation="0" />
  <g
     id="g4"
     transform="matrix(0.64626814,0,0,0.50865721,217.53522,-61.481535)">
    <rect
       id="rect6"
       style="fill:#ffffff"
       rx="18.999001"
       transform="rotate(40.519)"
       ry="18.999001"
       width="239.38"
       y="261.25"
       x="30.816999"
       height="150.09" />
    <path
       id="path8"
       style="color:#000000;text-indent:0;text-decoration:none;text-decoration-line:none;text-transform:none"
       inkscape:connector-curvature="0"
       d="m -132.54,224.41 c -9.7659,-5.346 -22.442,-3.1503 -29.906,5.5826 -10.382,37.061 -48.429,56.831 -72.677,85.226 -8.5289,9.9812 -7.3972,25.136 2.5836,33.666 l 158.16,130.49 c 9.9812,8.5289 19.545,4.2559 28.075,-5.7248 27.923,-26.013 55.593,-52.11 73.176,-81.57 8.5313,-9.9797 16.806,-24.829 6.8255,-33.359 l -162.13,-131.16 c -1.251,-1.0612 -2.7193,-2.3967 -4.1151,-3.1587 z m -7.2198,7.3906 c 1.7804,0.56197 3.4772,1.8439 4.9932,3.114 65.388,37.223 120.82,109.76 156.84,130.49 4.9156,4.2018 2.0412,10.93 -0.41849,16.579 -25.767,3.432 -76.174,-7.9202 -117.95,-14.097 -10.625,-1.2689 -16.86,-12.884 -19.768,-23.182 -26.549,-36.735 -24.306,-73.471 -36.459,-110.21 3.7404,-2.8006 8.4076,-4.0955 12.78,-2.7146 z m -20.001,13.407 26.937,94.058 c -32.072,-3.7452 -51.866,-3.398 -98.037,-11.843 0.46631,-2.161 1.539,-4.0264 3.0977,-5.8527 24.274,-25.543 48.917,-46.784 68.003,-76.363 z m 174.76,145.72 c -14.381,32.233 -44.298,54.11 -68.163,80.02 -1.5411,1.8038 -3.4128,2.6992 -5.4441,3.4989 -9.5732,-31.972 -27.027,-63.944 -28.452,-95.916 z m -144.33,-41.52 c 5.1488,12.998 18.307,24.198 31.943,27.407 -3.4371,-7.4504 13.171,47.057 28.513,97.653 -1.5052,-0.59335 -3.1295,-1.3406 -4.4364,-2.4535 -39.571,-46.027 -98.353,-87.785 -152.87,-130.49 -1.4214,-1.2032 -2.271,-2.8825 -3.1141,-4.4148 47.466,0.95655 66.912,8.1387 99.968,12.297 z" />
    <path
       id="path10"
       style="color:#000000;text-indent:0;text-decoration:none;text-decoration-line:none;text-transform:none"
       inkscape:connector-curvature="0"
       d="m -183.55,187.36 c -88.35,5.9261 -91.266,114.42 -83.307,181.06 -15.712,76.204 21.092,174.09 114.1,159.1 67.433,-12.78 144.09,21.379 203.9,-19.714 48.458,-56.911 9.0815,-141.05 21.424,-209.52 20.034,-89.975 -85.025,-126.43 -156.68,-114.82 -33.111,1.8668 -66.259,3.9975 -99.438,3.8933 z m 0,21.249 c 72.218,-1.1778 165.73,-26.571 221.83,29.227 36.086,66.446 24.903,151.28 10.2,221.94 -34.922,78.04 -128.57,33.886 -193.04,51.937 -67.694,13.694 -116.83,-49.519 -99.94,-112.73 1.9732,-53.314 -10.489,-107.67 2.3236,-160.28 12.419,-19.916 36.721,-27.04 58.623,-30.099 z" />
  </g>
  <metadata
     id="metadata12">
    <rdf:RDF>
      <cc:Work>
        <dc:format>image/svg+xml</dc:format>
        <dc:type
           rdf:resource="http://purl.org/dc/dcmitype/StillImage" />
        <cc:license
           rdf:resource="http://creativecommons.org/licenses/publicdomain/" />
        <dc:publisher>
          <cc:Agent
             rdf:about="http://openclipart.org/">
            <dc:title>Openclipart</dc:title>
          </cc:Agent>
        </dc:publisher>
      </cc:Work>
      <cc:License
         rdf:about="http://creativecommons.org/licenses/publicdomain/">
        <cc:permits
           rdf:resource="http://creativecommons.org/ns#Reproduction" />
        <cc:permits
           rdf:resource="http://creativecommons.org/ns#Distribution" />
        <cc:permits
           rdf:resource="http://creativecommons.org/ns#DerivativeWorks" />
      </cc:License>
    </rdf:RDF>
  </metadata>
</svg>
