<svg xmlns="http://www.w3.org/2000/svg" width="200mm" height="200mm" viewBox="0 0 200 200"><path fill="#164450" d="M0 0h200v200H0z"/><path d="M0 105.292c66.447-11.793 140.22-13.12 200 0V200H0z" opacity=".1" fill="#fff"/><path style="line-height:normal;font-variant-ligatures:normal;font-variant-position:normal;font-variant-caps:normal;font-variant-numeric:normal;font-variant-alternates:normal;font-feature-settings:normal;text-indent:0;text-align:start;text-decoration-line:none;text-decoration-style:solid;text-decoration-color:#000;text-transform:none;text-orientation:mixed;white-space:normal;shape-padding:0;isolation:auto;mix-blend-mode:normal;solid-color:#000;solid-opacity:1" d="M157.6 26.619a7.5 7.5 0 00-5.97 2.977H115.2a4.707 4.707 0 00-.04 0c-10.759.094-19.392 3.646-25.104 9.796-5.712 6.151-8.337 14.524-8.508 23.551a4.707 4.707 0 000 .088v15.13H39.965a4.707 4.707 0 00-4.707 4.706v27.045a4.707 4.707 0 004.707 4.707h22.856a7.5 7.5 0 005.911 2.888 7.5 7.5 0 007.5-7.5 7.5 7.5 0 00-7.5-7.5 7.5 7.5 0 00-5.76 2.698H44.67V87.574h36.88v78.125a4.707 4.707 0 004.707 4.707h21.627a7.5 7.5 0 005.023 1.942 7.5 7.5 0 007.5-7.5 7.5 7.5 0 00-2.453-5.535v-44.694h41.01a4.707 4.707 0 004.707-4.707V82.867a4.707 4.707 0 00-4.707-4.707h-31.63a7.5 7.5 0 00-6.286-3.413 7.5 7.5 0 00-6.28 3.413H90.96V63.121c.139-7.334 2.202-13.243 5.992-17.324 3.79-4.082 9.473-6.712 18.29-6.789h36.681a7.5 7.5 0 005.676 2.611 7.5 7.5 0 007.5-7.5 7.5 7.5 0 00-7.5-7.5zM90.96 87.574h24.816a7.5 7.5 0 005.271 2.173 7.5 7.5 0 005.275-2.173h27.934v17.63h-41.01a4.707 4.707 0 00-4.707 4.708v48.85a7.5 7.5 0 00-2.056 2.23H90.961V87.574z" color="#000" font-weight="400" font-family="sans-serif" overflow="visible" fill="#ff653a"/></svg>