<?xml version="1.0" encoding="UTF-8" standalone="no"?>
<svg
   xmlns:dc="http://purl.org/dc/elements/1.1/"
   xmlns:cc="http://creativecommons.org/ns#"
   xmlns:rdf="http://www.w3.org/1999/02/22-rdf-syntax-ns#"
   xmlns:svg="http://www.w3.org/2000/svg"
   xmlns="http://www.w3.org/2000/svg"
   xmlns:sodipodi="http://sodipodi.sourceforge.net/DTD/sodipodi-0.dtd"
   xmlns:inkscape="http://www.inkscape.org/namespaces/inkscape"
   id="ac356da0-b129-4ca5-aecc-4700531dd101"
   data-name="Layer 1"
   width="1129"
   height="663"
   viewBox="0 0 1129 663"
   version="1.1"
   sodipodi:docname="undraw_docusaurus_tree.svg"
   inkscape:version="1.0.2 (e86c870879, 2021-01-15, custom)">
  <metadata
     id="metadata83">
    <rdf:RDF>
      <cc:Work
         rdf:about="">
        <dc:format>image/svg+xml</dc:format>
        <dc:type
           rdf:resource="http://purl.org/dc/dcmitype/StillImage" />
      </cc:Work>
    </rdf:RDF>
  </metadata>
  <defs
     id="defs81" />
  <sodipodi:namedview
     pagecolor="#ffffff"
     bordercolor="#666666"
     borderopacity="1"
     objecttolerance="10"
     gridtolerance="10"
     guidetolerance="10"
     inkscape:pageopacity="0"
     inkscape:pageshadow="2"
     inkscape:window-width="626"
     inkscape:window-height="1034"
     id="namedview79"
     showgrid="false"
     inkscape:zoom="0.57307352"
     inkscape:cx="365.89706"
     inkscape:cy="325.74863"
     inkscape:window-x="646"
     inkscape:window-y="36"
     inkscape:window-maximized="0"
     inkscape:current-layer="ac356da0-b129-4ca5-aecc-4700531dd101" />
  <title
     id="title2">docu_tree</title>
  <circle
     cx="321"
     cy="321"
     r="321"
     fill="#f2f2f2"
     id="circle4" />
  <ellipse
     cx="559"
     cy="635.49998"
     rx="514"
     ry="27.50002"
     fill="#3f3d56"
     id="ellipse6" />
  <ellipse
     cx="558"
     cy="627"
     rx="460"
     ry="22"
     opacity="0.2"
     id="ellipse8" />
  <rect
     x="131"
     y="152.5"
     width="840"
     height="50"
     fill="#3f3d56"
     id="rect10" />
  <path
     d="M166.5,727.3299A21.67009,21.67009,0,0,0,188.1701,749H984.8299A21.67009,21.67009,0,0,0,1006.5,727.3299V296h-840Z"
     transform="translate(-35.5 -118.5)"
     fill="#3f3d56"
     id="path12" />
  <path
     d="M984.8299,236H188.1701A21.67009,21.67009,0,0,0,166.5,257.6701V296h840V257.6701A21.67009,21.67009,0,0,0,984.8299,236Z"
     transform="translate(-35.5 -118.5)"
     fill="#3f3d56"
     id="path14" />
  <path
     d="M984.8299,236H188.1701A21.67009,21.67009,0,0,0,166.5,257.6701V296h840V257.6701A21.67009,21.67009,0,0,0,984.8299,236Z"
     transform="translate(-35.5 -118.5)"
     opacity="0.2"
     id="path16" />
  <circle
     cx="181"
     cy="147.5"
     r="13"
     fill="#3f3d56"
     id="circle18" />
  <circle
     cx="217"
     cy="147.5"
     r="13"
     fill="#3f3d56"
     id="circle20" />
  <circle
     cx="253"
     cy="147.5"
     r="13"
     fill="#3f3d56"
     id="circle22" />
  <rect
     x="168"
     y="213.5"
     width="337"
     height="386"
     rx="5.33505"
     fill="#606060"
     id="rect24" />
  <rect
     x="603"
     y="272.5"
     width="284"
     height="22"
     rx="5.47638"
     fill="#2e8555"
     id="rect26" />
  <rect
     x="537"
     y="352.5"
     width="416"
     height="15"
     rx="5.47638"
     fill="#2e8555"
     id="rect28" />
  <rect
     x="537"
     y="396.5"
     width="416"
     height="15"
     rx="5.47638"
     fill="#2e8555"
     id="rect30" />
  <rect
     x="537"
     y="440.5"
     width="416"
     height="15"
     rx="5.47638"
     fill="#2e8555"
     id="rect32" />
  <rect
     x="537"
     y="484.5"
     width="416"
     height="15"
     rx="5.47638"
     fill="#2e8555"
     id="rect34" />
  <rect
     x="865"
     y="552.5"
     width="88"
     height="26"
     rx="7.02756"
     fill="#3ecc5f"
     id="rect36" />
  <path
     d="M1088.60287,624.61594a30.11371,30.11371,0,0,0,3.98291-15.266c0-13.79652-8.54358-24.98081-19.08256-24.98081s-19.08256,11.18429-19.08256,24.98081a30.11411,30.11411,0,0,0,3.98291,15.266,31.248,31.248,0,0,0,0,30.53213,31.248,31.248,0,0,0,0,30.53208,31.248,31.248,0,0,0,0,30.53208,30.11408,30.11408,0,0,0-3.98291,15.266c0,13.79652,8.54353,24.98081,19.08256,24.98081s19.08256-11.18429,19.08256-24.98081a30.11368,30.11368,0,0,0-3.98291-15.266,31.248,31.248,0,0,0,0-30.53208,31.248,31.248,0,0,0,0-30.53208,31.248,31.248,0,0,0,0-30.53213Z"
     transform="translate(-35.5 -118.5)"
     fill="#3f3d56"
     id="path38" />
  <ellipse
     cx="1038.00321"
     cy="460.31783"
     rx="19.08256"
     ry="24.9808"
     fill="#3f3d56"
     id="ellipse40" />
  <ellipse
     cx="1038.00321"
     cy="429.78574"
     rx="19.08256"
     ry="24.9808"
     fill="#3f3d56"
     id="ellipse42" />
  <path
     d="M1144.93871,339.34489a91.61081,91.61081,0,0,0,7.10658-10.46092l-50.141-8.23491,54.22885.4033a91.566,91.566,0,0,0,1.74556-72.42605l-72.75449,37.74139,67.09658-49.32086a91.41255,91.41255,0,1,0-150.971,102.29805,91.45842,91.45842,0,0,0-10.42451,16.66946l65.0866,33.81447-69.40046-23.292a91.46011,91.46011,0,0,0,14.73837,85.83669,91.40575,91.40575,0,1,0,143.68892,0,91.41808,91.41808,0,0,0,0-113.02862Z"
     transform="translate(-35.5 -118.5)"
     fill="#3ecc5f"
     fill-rule="evenodd"
     id="path44" />
  <path
     d="M981.6885,395.8592a91.01343,91.01343,0,0,0,19.56129,56.51431,91.40575,91.40575,0,1,0,143.68892,0C1157.18982,436.82067,981.6885,385.60008,981.6885,395.8592Z"
     transform="translate(-35.5 -118.5)"
     opacity="0.1"
     id="path46" />
  <g
     inkscape:label="Layer 1"
     id="layer1"
     transform="matrix(1.313441,0,0,1.313441,195.96313,177.02759)">
    <rect
       style="fill:#164450;fill-opacity:1;stroke-width:4.99842;stroke-linecap:round;stroke-linejoin:round;stroke-miterlimit:4;stroke-dasharray:none"
       id="rect4534"
       width="200"
       height="200"
       x="-8.437695e-15"
       y="97" />
    <path
       style="opacity:0.1;fill:#ffffff;fill-opacity:1;stroke:none;stroke-width:1.554;stroke-linecap:round;stroke-linejoin:round;stroke-miterlimit:4;stroke-dasharray:none;stroke-opacity:1"
       d="m 0,202.29167 c 66.447403,-11.79286 140.22002,-13.12038 200,0 V 297 H 0 Z"
       id="rect822"
       inkscape:connector-curvature="0"
       sodipodi:nodetypes="ccccc" />
    <path
       style="color:#000000;font-style:normal;font-variant:normal;font-weight:normal;font-stretch:normal;font-size:medium;line-height:normal;font-family:sans-serif;font-variant-ligatures:normal;font-variant-position:normal;font-variant-caps:normal;font-variant-numeric:normal;font-variant-alternates:normal;font-feature-settings:normal;text-indent:0;text-align:start;text-decoration:none;text-decoration-line:none;text-decoration-style:solid;text-decoration-color:#000000;letter-spacing:normal;word-spacing:normal;text-transform:none;writing-mode:lr-tb;direction:ltr;text-orientation:mixed;dominant-baseline:auto;baseline-shift:baseline;text-anchor:start;white-space:normal;shape-padding:0;clip-rule:nonzero;display:inline;overflow:visible;visibility:visible;opacity:1;isolation:auto;mix-blend-mode:normal;color-interpolation:sRGB;color-interpolation-filters:linearRGB;solid-color:#000000;solid-opacity:1;vector-effect:none;fill:#ff653a;fill-opacity:1;fill-rule:nonzero;stroke:none;stroke-width:7.55906;stroke-linecap:round;stroke-linejoin:round;stroke-miterlimit:4;stroke-dasharray:none;stroke-dashoffset:0;stroke-opacity:1;color-rendering:auto;image-rendering:auto;shape-rendering:auto;text-rendering:auto;enable-background:accumulate"
       d="m 595.65234,100.60742 a 28.346457,28.346457 0 0 0 -22.56445,11.25 H 435.40625 a 17.790271,17.790271 0 0 0 -0.1543,0 c -40.66068,0.3549 -73.29225,13.78121 -94.88086,37.02735 -21.5886,23.24609 -31.5083,54.89263 -32.15429,89.01171 a 17.790271,17.790271 0 0 0 0,0.33204 V 295.4082 H 151.04883 a 17.790271,17.790271 0 0 0 -17.79102,17.79102 v 102.2168 a 17.790271,17.790271 0 0 0 17.79102,17.79101 h 86.38672 a 28.346457,28.346457 0 0 0 22.33984,10.91211 28.346457,28.346457 0 0 0 28.3457,-28.3457 28.346457,28.346457 0 0 0 -28.3457,-28.34571 28.346457,28.346457 0 0 0 -21.76758,10.19727 H 168.83203 V 330.98828 H 308.2168 v 295.27734 a 17.790271,17.790271 0 0 0 17.78906,17.78907 h 81.74023 a 28.346457,28.346457 0 0 0 18.98438,7.33984 28.346457,28.346457 0 0 0 28.3457,-28.3457 28.346457,28.346457 0 0 0 -9.26953,-20.92188 V 433.20703 H 600.80469 A 17.790271,17.790271 0 0 0 618.5957,415.41602 V 313.19922 A 17.790271,17.790271 0 0 0 600.80469,295.4082 H 481.25977 a 28.346457,28.346457 0 0 0 -23.75782,-12.90039 28.346457,28.346457 0 0 0 -23.73828,12.90039 h -89.97461 v -56.83984 c 0.52486,-27.72117 8.32259,-50.05279 22.64844,-65.47852 14.32586,-15.42576 35.8036,-25.36752 69.12305,-25.6582 h 138.64062 a 28.346457,28.346457 0 0 0 21.45117,9.86914 A 28.346457,28.346457 0 0 0 624,128.95312 28.346457,28.346457 0 0 0 595.65234,100.60742 Z M 343.78906,330.98828 h 93.79102 a 28.346457,28.346457 0 0 0 19.92187,8.21289 28.346457,28.346457 0 0 0 19.93555,-8.21289 H 583.01367 V 397.625 H 428.01758 a 17.790271,17.790271 0 0 0 -17.79102,17.79102 v 184.6289 a 28.346457,28.346457 0 0 0 -7.76953,8.42969 h -58.66797 z"
       transform="matrix(0.26458333,0,0,0.26458333,0,97)"
       id="path21" />
  </g>
</svg>
