<?xml version="1.0" encoding="UTF-8" standalone="no"?>
<svg
   width="460.38123pt"
   height="327.82147pt"
   viewBox="0 0 460.38123 327.82147"
   version="1.1"
   id="svg307"
   sodipodi:docname="opencl.svg"
   inkscape:version="1.1.2 (0a00cf5339, 2022-02-04, custom)"
   xmlns:inkscape="http://www.inkscape.org/namespaces/inkscape"
   xmlns:sodipodi="http://sodipodi.sourceforge.net/DTD/sodipodi-0.dtd"
   xmlns:xlink="http://www.w3.org/1999/xlink"
   xmlns="http://www.w3.org/2000/svg"
   xmlns:svg="http://www.w3.org/2000/svg"
   xmlns:rdf="http://www.w3.org/1999/02/22-rdf-syntax-ns#"
   xmlns:cc="http://creativecommons.org/ns#"
   xmlns:dc="http://purl.org/dc/elements/1.1/">
  <sodipodi:namedview
     id="namedview309"
     pagecolor="#ffffff"
     bordercolor="#666666"
     borderopacity="1.0"
     inkscape:pageshadow="2"
     inkscape:pageopacity="0.0"
     inkscape:pagecheckerboard="0"
     inkscape:document-units="pt"
     showgrid="false"
     inkscape:zoom="1.3203009"
     inkscape:cx="326.06203"
     inkscape:cy="195.03129"
     inkscape:window-width="1920"
     inkscape:window-height="1080"
     inkscape:window-x="0"
     inkscape:window-y="0"
     inkscape:window-maximized="1"
     inkscape:current-layer="patch_1" />
  <metadata
     id="metadata2">
    <rdf:RDF>
      <cc:Work>
        <dc:type
           rdf:resource="http://purl.org/dc/dcmitype/StillImage" />
        <dc:date>2022-03-18T16:38:22.482267</dc:date>
        <dc:format>image/svg+xml</dc:format>
        <dc:creator>
          <cc:Agent>
            <dc:title>Matplotlib v3.5.1, https://matplotlib.org/</dc:title>
          </cc:Agent>
        </dc:creator>
      </cc:Work>
    </rdf:RDF>
  </metadata>
  <defs
     id="defs6">
    <style
       type="text/css"
       id="style4">*{stroke-linejoin: round; stroke-linecap: butt}</style>
  </defs>
  <g
     id="figure_1"
     transform="translate(28.381215,2.4357531)">
    <g
       id="patch_1">
      <path
         d="M -28.381215,325.38572 H 432 V -2.4357531 H -28.381215 Z"
         style="fill:#f0f0f0;stroke-width:1.10138"
         id="path8" />
    </g>
    <g
       id="axes_1">
      <g
         id="patch_2">
        <path
           d="M 34.56,267.84 H 410.4 V 34.56 H 34.56 Z"
           style="fill:#f0f0f0"
           id="path11" />
      </g>
      <g
         id="matplotlib.axis_1">
        <g
           id="xtick_1">
          <g
             id="line2d_1">
            <path
               d="M 34.56,267.84 V 34.56"
               clip-path="url(#pa160c59627)"
               style="fill:none;stroke:#cbcbcb"
               id="path14" />
          </g>
          <g
             id="text_1">
            <!-- 0 -->
            <g
               style="fill:#262626"
               transform="matrix(0.165,0,0,-0.165,29.972227,283.15039)"
               id="g22">
              <defs
                 id="defs18">
                <path
                   id="ArialMT-30"
                   d="m 266,2259 q 0,813 167,1308 167,496 496,764 330,269 830,269 369,0 647,-149 278,-148 459,-428 182,-279 285,-681 103,-401 103,-1083 0,-806 -166,-1301 Q 2922,463 2592,192 2263,-78 1759,-78 1097,-78 719,397 266,969 266,2259 Z m 578,0 q 0,-1128 264,-1502 264,-373 651,-373 388,0 652,375 264,375 264,1500 0,1132 -264,1503 -264,372 -658,372 -387,0 -619,-328 Q 844,3388 844,2259 Z"
                   transform="scale(0.015625)" />
              </defs>
              <use
                 xlink:href="#ArialMT-30"
                 id="use20"
                 x="0"
                 y="0"
                 width="100%"
                 height="100%" />
            </g>
          </g>
        </g>
        <g
           id="xtick_2">
          <g
             id="line2d_2">
            <path
               d="M 91.475138,267.84 V 34.56"
               clip-path="url(#pa160c59627)"
               style="fill:none;stroke:#cbcbcb"
               id="path26" />
          </g>
          <g
             id="text_2">
            <!-- 200 -->
            <g
               style="fill:#262626"
               transform="matrix(0.165,0,0,-0.165,77.711817,283.15039)"
               id="g38">
              <defs
                 id="defs30">
                <path
                   id="ArialMT-32"
                   d="M 3222,541 V 0 H 194 q -6,203 65,391 116,309 370,609 255,300 737,694 747,612 1009,970 263,358 263,677 0,334 -240,563 -239,230 -623,230 -406,0 -650,-244 -244,-243 -247,-674 l -578,59 q 59,647 446,986 388,339 1042,339 659,0 1043,-366 385,-365 385,-906 0,-275 -113,-541 Q 2991,2522 2730,2228 2469,1934 1863,1422 1356,997 1212,845 1069,694 975,541 Z"
                   transform="scale(0.015625)" />
              </defs>
              <use
                 xlink:href="#ArialMT-32"
                 id="use32"
                 x="0"
                 y="0"
                 width="100%"
                 height="100%" />
              <use
                 xlink:href="#ArialMT-30"
                 x="55.615234"
                 id="use34"
                 y="0"
                 width="100%"
                 height="100%" />
              <use
                 xlink:href="#ArialMT-30"
                 x="111.23047"
                 id="use36"
                 y="0"
                 width="100%"
                 height="100%" />
            </g>
          </g>
        </g>
        <g
           id="xtick_3">
          <g
             id="line2d_3">
            <path
               d="M 148.39027,267.84 V 34.56"
               clip-path="url(#pa160c59627)"
               style="fill:none;stroke:#cbcbcb"
               id="path42" />
          </g>
          <g
             id="text_3">
            <!-- 400 -->
            <g
               style="fill:#262626"
               transform="matrix(0.165,0,0,-0.165,134.62695,283.15039)"
               id="g54">
              <defs
                 id="defs46">
                <path
                   id="ArialMT-34"
                   d="M 2069,0 V 1097 H 81 v 516 l 2091,2968 h 459 V 1613 h 619 V 1097 H 2631 V 0 Z m 0,1613 V 3678 L 634,1613 Z"
                   transform="scale(0.015625)" />
              </defs>
              <use
                 xlink:href="#ArialMT-34"
                 id="use48"
                 x="0"
                 y="0"
                 width="100%"
                 height="100%" />
              <use
                 xlink:href="#ArialMT-30"
                 x="55.615234"
                 id="use50"
                 y="0"
                 width="100%"
                 height="100%" />
              <use
                 xlink:href="#ArialMT-30"
                 x="111.23047"
                 id="use52"
                 y="0"
                 width="100%"
                 height="100%" />
            </g>
          </g>
        </g>
        <g
           id="xtick_4">
          <g
             id="line2d_4">
            <path
               d="M 205.30541,267.84 V 34.56"
               clip-path="url(#pa160c59627)"
               style="fill:none;stroke:#cbcbcb"
               id="path58" />
          </g>
          <g
             id="text_4">
            <!-- 600 -->
            <g
               style="fill:#262626"
               transform="matrix(0.165,0,0,-0.165,191.54209,283.15039)"
               id="g70">
              <defs
                 id="defs62">
                <path
                   id="ArialMT-36"
                   d="m 3184,3459 -559,-43 q -75,331 -212,481 -229,241 -563,241 -269,0 -472,-150 -265,-194 -419,-566 -153,-372 -159,-1059 203,309 497,459 294,150 616,150 562,0 957,-414 396,-414 396,-1070 0,-432 -186,-802 Q 2894,316 2569,119 2244,-78 1831,-78 1128,-78 684,439 241,956 241,2144 q 0,1328 490,1931 428,525 1153,525 541,0 886,-303 346,-303 414,-838 z M 888,1484 q 0,-290 123,-556 123,-265 345,-405 222,-139 466,-139 356,0 612,287 257,288 257,782 0,475 -254,748 -253,274 -637,274 -381,0 -647,-274 -265,-273 -265,-717 z"
                   transform="scale(0.015625)" />
              </defs>
              <use
                 xlink:href="#ArialMT-36"
                 id="use64"
                 x="0"
                 y="0"
                 width="100%"
                 height="100%" />
              <use
                 xlink:href="#ArialMT-30"
                 x="55.615234"
                 id="use66"
                 y="0"
                 width="100%"
                 height="100%" />
              <use
                 xlink:href="#ArialMT-30"
                 x="111.23047"
                 id="use68"
                 y="0"
                 width="100%"
                 height="100%" />
            </g>
          </g>
        </g>
        <g
           id="xtick_5">
          <g
             id="line2d_5">
            <path
               d="M 262.22055,267.84 V 34.56"
               clip-path="url(#pa160c59627)"
               style="fill:none;stroke:#cbcbcb"
               id="path74" />
          </g>
          <g
             id="text_5">
            <!-- 800 -->
            <g
               style="fill:#262626"
               transform="matrix(0.165,0,0,-0.165,248.45723,283.15039)"
               id="g86">
              <defs
                 id="defs78">
                <path
                   id="ArialMT-38"
                   d="m 1131,2484 q -350,129 -519,366 -168,238 -168,569 0,500 359,840 360,341 956,341 600,0 966,-349 366,-348 366,-848 0,-319 -168,-555 -167,-235 -507,-364 422,-137 642,-444 220,-306 220,-731 0,-587 -416,-987 Q 2447,-78 1769,-78 1091,-78 675,323 259,725 259,1325 q 0,447 227,748 227,302 645,411 z m -112,954 q 0,-325 209,-532 210,-206 544,-206 325,0 533,204 208,205 208,502 0,310 -215,521 -214,211 -532,211 -322,0 -535,-207 -212,-206 -212,-493 z M 838,1322 q 0,-241 114,-466 114,-225 339,-349 225,-123 484,-123 403,0 665,259 263,260 263,660 0,406 -270,672 -270,266 -677,266 -397,0 -658,-263 -260,-262 -260,-656 z"
                   transform="scale(0.015625)" />
              </defs>
              <use
                 xlink:href="#ArialMT-38"
                 id="use80"
                 x="0"
                 y="0"
                 width="100%"
                 height="100%" />
              <use
                 xlink:href="#ArialMT-30"
                 x="55.615234"
                 id="use82"
                 y="0"
                 width="100%"
                 height="100%" />
              <use
                 xlink:href="#ArialMT-30"
                 x="111.23047"
                 id="use84"
                 y="0"
                 width="100%"
                 height="100%" />
            </g>
          </g>
        </g>
        <g
           id="xtick_6">
          <g
             id="line2d_6">
            <path
               d="M 319.13569,267.84 V 34.56"
               clip-path="url(#pa160c59627)"
               style="fill:none;stroke:#cbcbcb"
               id="path90" />
          </g>
          <g
             id="text_6">
            <!-- 1000 -->
            <g
               style="fill:#262626"
               transform="matrix(0.165,0,0,-0.165,300.78459,283.15039)"
               id="g104">
              <defs
                 id="defs94">
                <path
                   id="ArialMT-31"
                   d="M 2384,0 H 1822 V 3584 Q 1619,3391 1289,3197 959,3003 697,2906 v 544 q 472,222 825,537 353,316 500,613 h 362 z"
                   transform="scale(0.015625)" />
              </defs>
              <use
                 xlink:href="#ArialMT-31"
                 id="use96"
                 x="0"
                 y="0"
                 width="100%"
                 height="100%" />
              <use
                 xlink:href="#ArialMT-30"
                 x="55.615234"
                 id="use98"
                 y="0"
                 width="100%"
                 height="100%" />
              <use
                 xlink:href="#ArialMT-30"
                 x="111.23047"
                 id="use100"
                 y="0"
                 width="100%"
                 height="100%" />
              <use
                 xlink:href="#ArialMT-30"
                 x="166.8457"
                 id="use102"
                 y="0"
                 width="100%"
                 height="100%" />
            </g>
          </g>
        </g>
        <g
           id="xtick_7">
          <g
             id="line2d_7">
            <path
               d="M 376.05082,267.84 V 34.56"
               clip-path="url(#pa160c59627)"
               style="fill:none;stroke:#cbcbcb"
               id="path108" />
          </g>
          <g
             id="text_7">
            <!-- 1200 -->
            <g
               style="fill:#262626"
               transform="matrix(0.165,0,0,-0.165,357.69973,283.15039)"
               id="g119">
              <use
                 xlink:href="#ArialMT-31"
                 id="use111"
                 x="0"
                 y="0"
                 width="100%"
                 height="100%" />
              <use
                 xlink:href="#ArialMT-32"
                 x="55.615234"
                 id="use113"
                 y="0"
                 width="100%"
                 height="100%" />
              <use
                 xlink:href="#ArialMT-30"
                 x="111.23047"
                 id="use115"
                 y="0"
                 width="100%"
                 height="100%" />
              <use
                 xlink:href="#ArialMT-30"
                 x="166.8457"
                 id="use117"
                 y="0"
                 width="100%"
                 height="100%" />
            </g>
          </g>
        </g>
        <g
           id="text_8">
          <!-- Time  (ms) -->
          <g
             style="fill:#262626"
             transform="matrix(0.168,0,0,-0.168,182.67187,302.65964)"
             id="g153">
            <defs
               id="defs131">
              <path
                 id="ArialMT-54"
                 d="M 1659,0 V 4041 H 150 v 540 H 3781 V 4041 H 2266 V 0 Z"
                 transform="scale(0.015625)" />
              <path
                 id="ArialMT-69"
                 d="m 425,3934 v 647 H 988 V 3934 Z M 425,0 V 3319 H 988 V 0 Z"
                 transform="scale(0.015625)" />
              <path
                 id="ArialMT-6d"
                 d="m 422,0 v 3319 h 503 v -466 q 156,244 415,392 260,149 591,149 369,0 605,-153 236,-153 333,-428 394,581 1025,581 494,0 759,-274 266,-273 266,-842 V 0 h -560 v 2091 q 0,337 -55,485 -54,149 -198,239 -143,91 -337,91 -350,0 -582,-233 -231,-232 -231,-745 V 0 h -562 v 2156 q 0,375 -138,562 -137,188 -450,188 -237,0 -439,-125 -201,-125 -292,-366 -91,-240 -91,-693 V 0 Z"
                 transform="scale(0.015625)" />
              <path
                 id="ArialMT-65"
                 d="m 2694,1069 581,-72 Q 3138,488 2766,206 2394,-75 1816,-75 1088,-75 661,373 234,822 234,1631 q 0,838 431,1300 432,463 1119,463 666,0 1088,-453 422,-453 422,-1275 0,-50 -3,-150 H 816 q 31,-547 309,-838 278,-290 694,-290 309,0 528,162 219,163 347,519 z M 847,1978 h 1853 q -37,419 -212,628 -269,325 -697,325 -388,0 -652,-259 -264,-259 -292,-694 z"
                 transform="scale(0.015625)" />
              <path
                 id="ArialMT-20"
                 transform="scale(0.015625)"
                 d="" />
              <path
                 id="ArialMT-28"
                 d="M 1497,-1347 Q 1031,-759 709,28 388,816 388,1659 q 0,744 240,1425 281,791 869,1575 h 403 Q 1522,4009 1400,3731 1209,3300 1100,2831 966,2247 966,1656 966,153 1900,-1347 Z"
                 transform="scale(0.015625)" />
              <path
                 id="ArialMT-73"
                 d="m 197,991 556,87 q 47,-334 261,-512 214,-178 599,-178 387,0 574,157 188,158 188,371 0,190 -166,300 -115,75 -575,190 -618,157 -857,271 -239,114 -363,315 -123,202 -123,446 0,221 101,410 102,190 277,315 131,96 357,163 227,68 487,68 390,0 685,-113 296,-112 436,-305 141,-192 194,-513 l -550,-75 q -37,256 -217,399 -180,144 -508,144 -387,0 -553,-128 -166,-128 -166,-300 0,-109 69,-197 69,-90 216,-150 84,-31 497,-143 597,-160 832,-262 236,-101 370,-295 135,-193 135,-481 0,-281 -164,-530 Q 2625,197 2315,61 2006,-75 1616,-75 969,-75 630,194 291,463 197,991 Z"
                 transform="scale(0.015625)" />
              <path
                 id="ArialMT-29"
                 d="M 791,-1347 H 388 q 934,1500 934,3003 0,588 -134,1166 -107,469 -297,900 -122,281 -503,937 h 403 q 587,-784 868,-1575 241,-681 241,-1425 0,-843 -324,-1631 -323,-787 -785,-1375 z"
                 transform="scale(0.015625)" />
            </defs>
            <use
               xlink:href="#ArialMT-54"
               id="use133"
               x="0"
               y="0"
               width="100%"
               height="100%" />
            <use
               xlink:href="#ArialMT-69"
               x="57.333984"
               id="use135"
               y="0"
               width="100%"
               height="100%" />
            <use
               xlink:href="#ArialMT-6d"
               x="79.550781"
               id="use137"
               y="0"
               width="100%"
               height="100%" />
            <use
               xlink:href="#ArialMT-65"
               x="162.85156"
               id="use139"
               y="0"
               width="100%"
               height="100%" />
            <use
               xlink:href="#ArialMT-20"
               x="218.4668"
               id="use141"
               y="0"
               width="100%"
               height="100%" />
            <use
               xlink:href="#ArialMT-20"
               x="246.25"
               id="use143"
               y="0"
               width="100%"
               height="100%" />
            <use
               xlink:href="#ArialMT-28"
               x="274.0332"
               id="use145"
               y="0"
               width="100%"
               height="100%" />
            <use
               xlink:href="#ArialMT-6d"
               x="307.33398"
               id="use147"
               y="0"
               width="100%"
               height="100%" />
            <use
               xlink:href="#ArialMT-73"
               x="390.63477"
               id="use149"
               y="0"
               width="100%"
               height="100%" />
            <use
               xlink:href="#ArialMT-29"
               x="440.63477"
               id="use151"
               y="0"
               width="100%"
               height="100%" />
          </g>
          <!-- less is better -->
          <g
             style="fill:#262626"
             transform="matrix(0.168,0,0,-0.168,175.33106,320.62567)"
             id="g189">
            <defs
               id="defs159">
              <path
                 id="ArialMT-6c"
                 d="M 409,0 V 4581 H 972 V 0 Z"
                 transform="scale(0.015625)" />
              <path
                 id="ArialMT-62"
                 d="M 941,0 H 419 V 4581 H 981 V 2947 q 357,447 910,447 306,0 579,-124 274,-123 450,-347 177,-223 277,-539 100,-315 100,-675 0,-853 -422,-1319 -422,-465 -1012,-465 -588,0 -922,491 z m -7,1684 q 0,-596 163,-862 266,-434 719,-434 368,0 637,320 269,320 269,955 0,650 -258,959 -258,309 -623,309 -369,0 -638,-320 -269,-320 -269,-927 z"
                 transform="scale(0.015625)" />
              <path
                 id="ArialMT-74"
                 d="M 1650,503 1731,6 Q 1494,-44 1306,-44 1000,-44 831,53 663,150 594,308 525,466 525,972 V 2881 H 113 v 438 h 412 v 822 l 559,337 V 3319 h 566 V 2881 H 1084 V 941 q 0,-241 30,-310 30,-68 97,-109 67,-41 192,-41 94,0 247,22 z"
                 transform="scale(0.015625)" />
              <path
                 id="ArialMT-72"
                 d="m 416,0 v 3319 h 506 v -503 q 194,353 358,465 164,113 361,113 284,0 578,-181 l -194,-522 q -206,122 -412,122 -185,0 -332,-111 -147,-111 -209,-308 -94,-300 -94,-656 V 0 Z"
                 transform="scale(0.015625)" />
            </defs>
            <use
               xlink:href="#ArialMT-6c"
               id="use161"
               x="0"
               y="0"
               width="100%"
               height="100%" />
            <use
               xlink:href="#ArialMT-65"
               x="22.216797"
               id="use163"
               y="0"
               width="100%"
               height="100%" />
            <use
               xlink:href="#ArialMT-73"
               x="77.832031"
               id="use165"
               y="0"
               width="100%"
               height="100%" />
            <use
               xlink:href="#ArialMT-73"
               x="127.83203"
               id="use167"
               y="0"
               width="100%"
               height="100%" />
            <use
               xlink:href="#ArialMT-20"
               x="177.83203"
               id="use169"
               y="0"
               width="100%"
               height="100%" />
            <use
               xlink:href="#ArialMT-69"
               x="205.61523"
               id="use171"
               y="0"
               width="100%"
               height="100%" />
            <use
               xlink:href="#ArialMT-73"
               x="227.83203"
               id="use173"
               y="0"
               width="100%"
               height="100%" />
            <use
               xlink:href="#ArialMT-20"
               x="277.83203"
               id="use175"
               y="0"
               width="100%"
               height="100%" />
            <use
               xlink:href="#ArialMT-62"
               x="305.61523"
               id="use177"
               y="0"
               width="100%"
               height="100%" />
            <use
               xlink:href="#ArialMT-65"
               x="361.23047"
               id="use179"
               y="0"
               width="100%"
               height="100%" />
            <use
               xlink:href="#ArialMT-74"
               x="416.8457"
               id="use181"
               y="0"
               width="100%"
               height="100%" />
            <use
               xlink:href="#ArialMT-74"
               x="444.62891"
               id="use183"
               y="0"
               width="100%"
               height="100%" />
            <use
               xlink:href="#ArialMT-65"
               x="472.41211"
               id="use185"
               y="0"
               width="100%"
               height="100%" />
            <use
               xlink:href="#ArialMT-72"
               x="528.02734"
               id="use187"
               y="0"
               width="100%"
               height="100%" />
          </g>
        </g>
      </g>
      <g
         id="matplotlib.axis_2">
        <g
           id="ytick_1">
          <g
             id="text_9">
            <!-- 6.2.5 -->
            <g
               style="fill:#262626"
               transform="matrix(0.165,0,0,-0.165,-5.634453,98.785195)"
               id="g207">
              <defs
                 id="defs195">
                <path
                   id="ArialMT-2e"
                   d="m 581,0 v 641 h 641 V 0 Z"
                   transform="scale(0.015625)" />
                <path
                   id="ArialMT-35"
                   d="m 266,1200 590,50 q 66,-431 305,-649 239,-217 577,-217 406,0 687,306 281,307 281,813 0,481 -270,759 -270,279 -708,279 -272,0 -491,-124 -218,-123 -343,-320 l -528,69 443,2353 H 3088 V 3981 H 1259 L 1013,2750 q 412,288 865,288 600,0 1012,-416 413,-416 413,-1069 Q 3303,931 2941,478 2500,-78 1738,-78 1113,-78 717,272 322,622 266,1200 Z"
                   transform="scale(0.015625)" />
              </defs>
              <use
                 xlink:href="#ArialMT-36"
                 id="use197"
                 x="0"
                 y="0"
                 width="100%"
                 height="100%" />
              <use
                 xlink:href="#ArialMT-2e"
                 x="55.615234"
                 id="use199"
                 y="0"
                 width="100%"
                 height="100%" />
              <use
                 xlink:href="#ArialMT-32"
                 x="83.398438"
                 id="use201"
                 y="0"
                 width="100%"
                 height="100%" />
              <use
                 xlink:href="#ArialMT-2e"
                 x="139.01367"
                 id="use203"
                 y="0"
                 width="100%"
                 height="100%" />
              <use
                 xlink:href="#ArialMT-35"
                 x="166.79688"
                 id="use205"
                 y="0"
                 width="100%"
                 height="100%" />
            </g>
          </g>
        </g>
        <g
           id="ytick_2">
          <g
             id="text_10">
            <!-- 6.2.4 -->
            <g
               style="fill:#262626"
               transform="matrix(0.165,0,0,-0.165,-5.634453,215.42519)"
               id="g221">
              <use
                 xlink:href="#ArialMT-36"
                 id="use211"
                 x="0"
                 y="0"
                 width="100%"
                 height="100%" />
              <use
                 xlink:href="#ArialMT-2e"
                 x="55.615234"
                 id="use213"
                 y="0"
                 width="100%"
                 height="100%" />
              <use
                 xlink:href="#ArialMT-32"
                 x="83.398438"
                 id="use215"
                 y="0"
                 width="100%"
                 height="100%" />
              <use
                 xlink:href="#ArialMT-2e"
                 x="139.01367"
                 id="use217"
                 y="0"
                 width="100%"
                 height="100%" />
              <use
                 xlink:href="#ArialMT-34"
                 x="166.79688"
                 id="use219"
                 y="0"
                 width="100%"
                 height="100%" />
            </g>
          </g>
        </g>
        <g
           id="text_11">
          <!-- Version -->
          <g
             style="fill:#262626"
             transform="matrix(0,-0.168,-0.168,0,-12.973453,179.21794)"
             id="g244">
            <defs
               id="defs228">
              <path
                 id="ArialMT-56"
                 d="M 1803,0 28,4581 H 684 L 1875,1253 q 144,-400 241,-750 106,375 247,750 l 1237,3328 h 619 L 2425,0 Z"
                 transform="scale(0.015625)" />
              <path
                 id="ArialMT-6f"
                 d="m 213,1659 q 0,922 512,1366 428,369 1044,369 684,0 1118,-449 435,-448 435,-1239 0,-640 -192,-1008 Q 2938,331 2570,128 2203,-75 1769,-75 1072,-75 642,372 213,819 213,1659 Z m 578,0 q 0,-637 278,-954 278,-317 700,-317 419,0 697,318 278,319 278,972 0,616 -280,933 -280,317 -695,317 -422,0 -700,-316 -278,-315 -278,-953 z"
                 transform="scale(0.015625)" />
              <path
                 id="ArialMT-6e"
                 d="m 422,0 v 3319 h 506 v -472 q 366,547 1056,547 300,0 552,-108 252,-108 377,-283 125,-175 175,-415 31,-157 31,-547 V 0 h -563 v 2019 q 0,344 -66,514 -65,170 -232,271 -167,102 -392,102 -360,0 -621,-228 Q 984,2450 984,1813 V 0 Z"
                 transform="scale(0.015625)" />
            </defs>
            <use
               xlink:href="#ArialMT-56"
               id="use230"
               x="0"
               y="0"
               width="100%"
               height="100%" />
            <use
               xlink:href="#ArialMT-65"
               x="61.199219"
               id="use232"
               y="0"
               width="100%"
               height="100%" />
            <use
               xlink:href="#ArialMT-72"
               x="116.81445"
               id="use234"
               y="0"
               width="100%"
               height="100%" />
            <use
               xlink:href="#ArialMT-73"
               x="150.11523"
               id="use236"
               y="0"
               width="100%"
               height="100%" />
            <use
               xlink:href="#ArialMT-69"
               x="200.11523"
               id="use238"
               y="0"
               width="100%"
               height="100%" />
            <use
               xlink:href="#ArialMT-6f"
               x="222.33203"
               id="use240"
               y="0"
               width="100%"
               height="100%" />
            <use
               xlink:href="#ArialMT-6e"
               x="277.94727"
               id="use242"
               y="0"
               width="100%"
               height="100%" />
          </g>
        </g>
      </g>
      <g
         id="patch_3">
        <path
           d="m 34.56,46.224 h 162.20814 v 93.312 H 34.56 Z"
           clip-path="url(#pa160c59627)"
           style="fill:#1b86ba;stroke:#f0f0f0;stroke-width:0.5;stroke-linejoin:miter"
           id="path248" />
      </g>
      <g
         id="patch_4">
        <path
           d="m 34.56,162.864 h 340.89322 v 93.312 H 34.56 Z"
           clip-path="url(#pa160c59627)"
           style="fill:#e36149;stroke:#f0f0f0;stroke-width:0.5;stroke-linejoin:miter"
           id="path251" />
      </g>
      <g
         id="line2d_8">
        <path
           d="m 192.38568,92.88 h 9.50554"
           clip-path="url(#pa160c59627)"
           style="fill:none;stroke:#424242;stroke-width:7.2"
           id="path254" />
      </g>
      <g
         id="line2d_9">
        <path
           d="m 362.67506,209.52 h 29.8278"
           clip-path="url(#pa160c59627)"
           style="fill:none;stroke:#424242;stroke-width:7.2"
           id="path257" />
      </g>
      <g
         id="patch_5">
        <path
           d="M 34.56,267.84 V 34.56"
           style="fill:none;stroke:#f0f0f0;stroke-width:3;stroke-linecap:square;stroke-linejoin:miter"
           id="path260" />
      </g>
      <g
         id="patch_6">
        <path
           d="M 410.4,267.84 V 34.56"
           style="fill:none;stroke:#f0f0f0;stroke-width:3;stroke-linecap:square;stroke-linejoin:miter"
           id="path263" />
      </g>
      <g
         id="patch_7">
        <path
           d="M 34.56,267.84 H 410.4"
           style="fill:none;stroke:#f0f0f0;stroke-width:3;stroke-linecap:square;stroke-linejoin:miter"
           id="path266" />
      </g>
      <g
         id="patch_8">
        <path
           d="M 34.56,34.56 H 410.4"
           style="fill:none;stroke:#f0f0f0;stroke-width:3;stroke-linecap:square;stroke-linejoin:miter"
           id="path269" />
      </g>
      <g
         id="text_12">
        <!-- 52% faster -->
        <g
           style="fill:#262626"
           transform="matrix(0.18,0,0,-0.18,219.5342,97.533281)"
           id="g297">
          <defs
             id="defs275">
            <path
               id="ArialMT-25"
               d="m 372,3481 q 0,491 247,834 247,344 715,344 432,0 714,-308 283,-307 283,-904 0,-581 -286,-895 -286,-314 -704,-314 -416,0 -693,309 -276,309 -276,934 z m 978,791 q -209,0 -348,-182 -139,-181 -139,-665 0,-441 140,-621 141,-179 347,-179 213,0 352,181 139,182 139,663 0,444 -141,623 -141,180 -350,180 z m 3,-4441 2506,4828 h 457 L 1819,-169 Z m 1981,1244 q 0,494 247,836 247,342 719,342 431,0 714,-308 283,-307 283,-904 0,-582 -286,-896 -286,-314 -708,-314 -415,0 -692,311 -277,311 -277,933 z m 982,791 q -213,0 -352,-182 -139,-181 -139,-665 0,-438 140,-619 141,-181 348,-181 215,0 354,181 139,181 139,663 0,443 -141,623 -140,180 -349,180 z"
               transform="scale(0.015625)" />
            <path
               id="ArialMT-66"
               d="M 556,0 V 2881 H 59 v 438 h 497 v 353 q 0,334 60,497 81,219 285,354 205,136 574,136 238,0 525,-56 l -84,-490 q -175,31 -332,31 -256,0 -362,-110 -106,-109 -106,-409 v -306 h 647 V 2881 H 1116 V 0 Z"
               transform="scale(0.015625)" />
            <path
               id="ArialMT-61"
               d="M 2588,409 Q 2275,144 1986,34 1697,-75 1366,-75 819,-75 525,192 231,459 231,875 q 0,244 111,445 111,202 291,324 180,122 405,184 165,44 500,85 681,81 1003,193 3,116 3,147 0,344 -160,485 -215,190 -640,190 -397,0 -586,-139 -189,-139 -280,-492 l -550,75 q 75,353 247,570 172,217 497,334 325,118 753,118 425,0 690,-100 266,-100 391,-252 125,-151 175,-383 28,-143 28,-518 v -750 q 0,-785 36,-993 36,-207 143,-398 h -588 q -87,175 -112,409 z m -47,1257 q -307,-125 -919,-213 -347,-50 -491,-113 -143,-62 -222,-182 -78,-120 -78,-267 0,-225 170,-375 171,-150 499,-150 325,0 578,142 253,142 372,389 91,191 91,562 z"
               transform="scale(0.015625)" />
          </defs>
          <use
             xlink:href="#ArialMT-35"
             id="use277"
             x="0"
             y="0"
             width="100%"
             height="100%" />
          <use
             xlink:href="#ArialMT-32"
             x="55.615234"
             id="use279"
             y="0"
             width="100%"
             height="100%" />
          <use
             xlink:href="#ArialMT-25"
             x="111.23047"
             id="use281"
             y="0"
             width="100%"
             height="100%" />
          <use
             xlink:href="#ArialMT-20"
             x="200.14648"
             id="use283"
             y="0"
             width="100%"
             height="100%" />
          <use
             xlink:href="#ArialMT-66"
             x="227.92969"
             id="use285"
             y="0"
             width="100%"
             height="100%" />
          <use
             xlink:href="#ArialMT-61"
             x="255.71289"
             id="use287"
             y="0"
             width="100%"
             height="100%" />
          <use
             xlink:href="#ArialMT-73"
             x="311.32812"
             id="use289"
             y="0"
             width="100%"
             height="100%" />
          <use
             xlink:href="#ArialMT-74"
             x="361.32812"
             id="use291"
             y="0"
             width="100%"
             height="100%" />
          <use
             xlink:href="#ArialMT-65"
             x="389.11133"
             id="use293"
             y="0"
             width="100%"
             height="100%" />
          <use
             xlink:href="#ArialMT-72"
             x="444.72656"
             id="use295"
             y="0"
             width="100%"
             height="100%" />
        </g>
      </g>
    </g>
  </g>
  <defs
     id="defs305">
    <clipPath
       id="pa160c59627">
      <rect
         x="34.560001"
         y="34.560001"
         width="375.84"
         height="233.28"
         id="rect302" />
    </clipPath>
  </defs>
</svg>
