<?xml version="1.0" encoding="utf-8"?>
<svg xmlns="http://www.w3.org/2000/svg" xmlns:xlink="http://www.w3.org/1999/xlink" width="600" height="400" viewBox="0 0 2400 1600">
<defs>
  <clipPath id="clip740">
    <rect x="0" y="0" width="2400" height="1600"/>
  </clipPath>
</defs>
<path clip-path="url(#clip740)" d="
M0 1600 L2400 1600 L2400 0 L0 0  Z
  " fill="#ffffff" fill-rule="evenodd" fill-opacity="1"/>
<defs>
  <clipPath id="clip741">
    <rect x="480" y="0" width="1681" height="1600"/>
  </clipPath>
</defs>
<path clip-path="url(#clip740)" d="
M229.473 1423.18 L2352.76 1423.18 L2352.76 123.472 L229.473 123.472  Z
  " fill="#ffffff" fill-rule="evenodd" fill-opacity="1"/>
<defs>
  <clipPath id="clip742">
    <rect x="229" y="123" width="2124" height="1301"/>
  </clipPath>
</defs>
<polyline clip-path="url(#clip742)" style="stroke:#000000; stroke-width:2; stroke-opacity:0.1; fill:none" points="
  565.354,1423.18 565.354,123.472 
  "/>
<polyline clip-path="url(#clip742)" style="stroke:#000000; stroke-width:2; stroke-opacity:0.1; fill:none" points="
  928.234,1423.18 928.234,123.472 
  "/>
<polyline clip-path="url(#clip742)" style="stroke:#000000; stroke-width:2; stroke-opacity:0.1; fill:none" points="
  1291.11,1423.18 1291.11,123.472 
  "/>
<polyline clip-path="url(#clip742)" style="stroke:#000000; stroke-width:2; stroke-opacity:0.1; fill:none" points="
  1653.99,1423.18 1653.99,123.472 
  "/>
<polyline clip-path="url(#clip742)" style="stroke:#000000; stroke-width:2; stroke-opacity:0.1; fill:none" points="
  2016.87,1423.18 2016.87,123.472 
  "/>
<polyline clip-path="url(#clip740)" style="stroke:#000000; stroke-width:4; stroke-opacity:1; fill:none" points="
  229.473,1423.18 2352.76,1423.18 
  "/>
<polyline clip-path="url(#clip740)" style="stroke:#000000; stroke-width:4; stroke-opacity:1; fill:none" points="
  565.354,1423.18 565.354,1407.58 
  "/>
<polyline clip-path="url(#clip740)" style="stroke:#000000; stroke-width:4; stroke-opacity:1; fill:none" points="
  928.234,1423.18 928.234,1407.58 
  "/>
<polyline clip-path="url(#clip740)" style="stroke:#000000; stroke-width:4; stroke-opacity:1; fill:none" points="
  1291.11,1423.18 1291.11,1407.58 
  "/>
<polyline clip-path="url(#clip740)" style="stroke:#000000; stroke-width:4; stroke-opacity:1; fill:none" points="
  1653.99,1423.18 1653.99,1407.58 
  "/>
<polyline clip-path="url(#clip740)" style="stroke:#000000; stroke-width:4; stroke-opacity:1; fill:none" points="
  2016.87,1423.18 2016.87,1407.58 
  "/>
<path clip-path="url(#clip740)" d="M 0 0 M542.021 1479.92 L558.341 1479.92 L558.341 1483.85 L536.396 1483.85 L536.396 1479.92 Q539.058 1477.16 543.642 1472.53 Q548.248 1467.88 549.429 1466.54 Q551.674 1464.01 552.554 1462.28 Q553.456 1460.52 553.456 1458.83 Q553.456 1456.07 551.512 1454.34 Q549.591 1452.6 546.489 1452.6 Q544.29 1452.6 541.836 1453.37 Q539.405 1454.13 536.628 1455.68 L536.628 1450.96 Q539.452 1449.82 541.905 1449.25 Q544.359 1448.67 546.396 1448.67 Q551.766 1448.67 554.961 1451.35 Q558.155 1454.04 558.155 1458.53 Q558.155 1460.66 557.345 1462.58 Q556.558 1464.48 554.452 1467.07 Q553.873 1467.74 550.771 1470.96 Q547.669 1474.15 542.021 1479.92 Z" fill="#000000" fill-rule="evenodd" fill-opacity="1" /><path clip-path="url(#clip740)" d="M 0 0 M563.41 1477.97 L568.294 1477.97 L568.294 1483.85 L563.41 1483.85 L563.41 1477.97 Z" fill="#000000" fill-rule="evenodd" fill-opacity="1" /><path clip-path="url(#clip740)" d="M 0 0 M573.41 1449.29 L591.766 1449.29 L591.766 1453.23 L577.692 1453.23 L577.692 1461.7 Q578.711 1461.35 579.729 1461.19 Q580.748 1461 581.766 1461 Q587.553 1461 590.933 1464.18 Q594.313 1467.35 594.313 1472.76 Q594.313 1478.34 590.84 1481.44 Q587.368 1484.52 581.049 1484.52 Q578.873 1484.52 576.604 1484.15 Q574.359 1483.78 571.952 1483.04 L571.952 1478.34 Q574.035 1479.48 576.257 1480.03 Q578.479 1480.59 580.956 1480.59 Q584.961 1480.59 587.299 1478.48 Q589.637 1476.38 589.637 1472.76 Q589.637 1469.15 587.299 1467.05 Q584.961 1464.94 580.956 1464.94 Q579.081 1464.94 577.206 1465.36 Q575.354 1465.77 573.41 1466.65 L573.41 1449.29 Z" fill="#000000" fill-rule="evenodd" fill-opacity="1" /><path clip-path="url(#clip740)" d="M 0 0 M900.028 1449.29 L918.385 1449.29 L918.385 1453.23 L904.311 1453.23 L904.311 1461.7 Q905.329 1461.35 906.348 1461.19 Q907.366 1461 908.385 1461 Q914.172 1461 917.552 1464.18 Q920.931 1467.35 920.931 1472.76 Q920.931 1478.34 917.459 1481.44 Q913.987 1484.52 907.667 1484.52 Q905.491 1484.52 903.223 1484.15 Q900.978 1483.78 898.57 1483.04 L898.57 1478.34 Q900.653 1479.48 902.876 1480.03 Q905.098 1480.59 907.575 1480.59 Q911.579 1480.59 913.917 1478.48 Q916.255 1476.38 916.255 1472.76 Q916.255 1469.15 913.917 1467.05 Q911.579 1464.94 907.575 1464.94 Q905.7 1464.94 903.825 1465.36 Q901.973 1465.77 900.028 1466.65 L900.028 1449.29 Z" fill="#000000" fill-rule="evenodd" fill-opacity="1" /><path clip-path="url(#clip740)" d="M 0 0 M926.001 1477.97 L930.885 1477.97 L930.885 1483.85 L926.001 1483.85 L926.001 1477.97 Z" fill="#000000" fill-rule="evenodd" fill-opacity="1" /><path clip-path="url(#clip740)" d="M 0 0 M945.954 1452.37 Q942.343 1452.37 940.514 1455.94 Q938.709 1459.48 938.709 1466.61 Q938.709 1473.71 940.514 1477.28 Q942.343 1480.82 945.954 1480.82 Q949.588 1480.82 951.394 1477.28 Q953.223 1473.71 953.223 1466.61 Q953.223 1459.48 951.394 1455.94 Q949.588 1452.37 945.954 1452.37 M945.954 1448.67 Q951.764 1448.67 954.82 1453.27 Q957.899 1457.86 957.899 1466.61 Q957.899 1475.33 954.82 1479.94 Q951.764 1484.52 945.954 1484.52 Q940.144 1484.52 937.065 1479.94 Q934.01 1475.33 934.01 1466.61 Q934.01 1457.86 937.065 1453.27 Q940.144 1448.67 945.954 1448.67 Z" fill="#000000" fill-rule="evenodd" fill-opacity="1" /><path clip-path="url(#clip740)" d="M 0 0 M1262.02 1449.29 L1284.24 1449.29 L1284.24 1451.28 L1271.69 1483.85 L1266.81 1483.85 L1278.61 1453.23 L1262.02 1453.23 L1262.02 1449.29 Z" fill="#000000" fill-rule="evenodd" fill-opacity="1" /><path clip-path="url(#clip740)" d="M 0 0 M1289.31 1477.97 L1294.19 1477.97 L1294.19 1483.85 L1289.31 1483.85 L1289.31 1477.97 Z" fill="#000000" fill-rule="evenodd" fill-opacity="1" /><path clip-path="url(#clip740)" d="M 0 0 M1299.31 1449.29 L1317.67 1449.29 L1317.67 1453.23 L1303.59 1453.23 L1303.59 1461.7 Q1304.61 1461.35 1305.63 1461.19 Q1306.65 1461 1307.67 1461 Q1313.45 1461 1316.83 1464.18 Q1320.21 1467.35 1320.21 1472.76 Q1320.21 1478.34 1316.74 1481.44 Q1313.27 1484.52 1306.95 1484.52 Q1304.77 1484.52 1302.5 1484.15 Q1300.26 1483.78 1297.85 1483.04 L1297.85 1478.34 Q1299.93 1479.48 1302.16 1480.03 Q1304.38 1480.59 1306.85 1480.59 Q1310.86 1480.59 1313.2 1478.48 Q1315.54 1476.38 1315.54 1472.76 Q1315.54 1469.15 1313.2 1467.05 Q1310.86 1464.94 1306.85 1464.94 Q1304.98 1464.94 1303.1 1465.36 Q1301.25 1465.77 1299.31 1466.65 L1299.31 1449.29 Z" fill="#000000" fill-rule="evenodd" fill-opacity="1" /><path clip-path="url(#clip740)" d="M 0 0 M1612.39 1479.92 L1620.02 1479.92 L1620.02 1453.55 L1611.71 1455.22 L1611.71 1450.96 L1619.98 1449.29 L1624.65 1449.29 L1624.65 1479.92 L1632.29 1479.92 L1632.29 1483.85 L1612.39 1483.85 L1612.39 1479.92 Z" fill="#000000" fill-rule="evenodd" fill-opacity="1" /><path clip-path="url(#clip740)" d="M 0 0 M1647.36 1452.37 Q1643.75 1452.37 1641.92 1455.94 Q1640.12 1459.48 1640.12 1466.61 Q1640.12 1473.71 1641.92 1477.28 Q1643.75 1480.82 1647.36 1480.82 Q1651 1480.82 1652.8 1477.28 Q1654.63 1473.71 1654.63 1466.61 Q1654.63 1459.48 1652.8 1455.94 Q1651 1452.37 1647.36 1452.37 M1647.36 1448.67 Q1653.17 1448.67 1656.23 1453.27 Q1659.31 1457.86 1659.31 1466.61 Q1659.31 1475.33 1656.23 1479.94 Q1653.17 1484.52 1647.36 1484.52 Q1641.55 1484.52 1638.47 1479.94 Q1635.42 1475.33 1635.42 1466.61 Q1635.42 1457.86 1638.47 1453.27 Q1641.55 1448.67 1647.36 1448.67 Z" fill="#000000" fill-rule="evenodd" fill-opacity="1" /><path clip-path="url(#clip740)" d="M 0 0 M1664.38 1477.97 L1669.26 1477.97 L1669.26 1483.85 L1664.38 1483.85 L1664.38 1477.97 Z" fill="#000000" fill-rule="evenodd" fill-opacity="1" /><path clip-path="url(#clip740)" d="M 0 0 M1684.33 1452.37 Q1680.72 1452.37 1678.89 1455.94 Q1677.08 1459.48 1677.08 1466.61 Q1677.08 1473.71 1678.89 1477.28 Q1680.72 1480.82 1684.33 1480.82 Q1687.96 1480.82 1689.77 1477.28 Q1691.6 1473.71 1691.6 1466.61 Q1691.6 1459.48 1689.77 1455.94 Q1687.96 1452.37 1684.33 1452.37 M1684.33 1448.67 Q1690.14 1448.67 1693.2 1453.27 Q1696.27 1457.86 1696.27 1466.61 Q1696.27 1475.33 1693.2 1479.94 Q1690.14 1484.52 1684.33 1484.52 Q1678.52 1484.52 1675.44 1479.94 Q1672.39 1475.33 1672.39 1466.61 Q1672.39 1457.86 1675.44 1453.27 Q1678.52 1448.67 1684.33 1448.67 Z" fill="#000000" fill-rule="evenodd" fill-opacity="1" /><path clip-path="url(#clip740)" d="M 0 0 M1976.56 1479.92 L1984.2 1479.92 L1984.2 1453.55 L1975.89 1455.22 L1975.89 1450.96 L1984.15 1449.29 L1988.83 1449.29 L1988.83 1479.92 L1996.47 1479.92 L1996.47 1483.85 L1976.56 1483.85 L1976.56 1479.92 Z" fill="#000000" fill-rule="evenodd" fill-opacity="1" /><path clip-path="url(#clip740)" d="M 0 0 M2005.57 1479.92 L2021.89 1479.92 L2021.89 1483.85 L1999.94 1483.85 L1999.94 1479.92 Q2002.6 1477.16 2007.19 1472.53 Q2011.79 1467.88 2012.97 1466.54 Q2015.22 1464.01 2016.1 1462.28 Q2017 1460.52 2017 1458.83 Q2017 1456.07 2015.06 1454.34 Q2013.14 1452.6 2010.03 1452.6 Q2007.83 1452.6 2005.38 1453.37 Q2002.95 1454.13 2000.17 1455.68 L2000.17 1450.96 Q2003 1449.82 2005.45 1449.25 Q2007.9 1448.67 2009.94 1448.67 Q2015.31 1448.67 2018.51 1451.35 Q2021.7 1454.04 2021.7 1458.53 Q2021.7 1460.66 2020.89 1462.58 Q2020.1 1464.48 2018 1467.07 Q2017.42 1467.74 2014.32 1470.96 Q2011.21 1474.15 2005.57 1479.92 Z" fill="#000000" fill-rule="evenodd" fill-opacity="1" /><path clip-path="url(#clip740)" d="M 0 0 M2026.96 1477.97 L2031.84 1477.97 L2031.84 1483.85 L2026.96 1483.85 L2026.96 1477.97 Z" fill="#000000" fill-rule="evenodd" fill-opacity="1" /><path clip-path="url(#clip740)" d="M 0 0 M2036.96 1449.29 L2055.31 1449.29 L2055.31 1453.23 L2041.24 1453.23 L2041.24 1461.7 Q2042.26 1461.35 2043.27 1461.19 Q2044.29 1461 2045.31 1461 Q2051.1 1461 2054.48 1464.18 Q2057.86 1467.35 2057.86 1472.76 Q2057.86 1478.34 2054.39 1481.44 Q2050.91 1484.52 2044.59 1484.52 Q2042.42 1484.52 2040.15 1484.15 Q2037.9 1483.78 2035.5 1483.04 L2035.5 1478.34 Q2037.58 1479.48 2039.8 1480.03 Q2042.02 1480.59 2044.5 1480.59 Q2048.51 1480.59 2050.84 1478.48 Q2053.18 1476.38 2053.18 1472.76 Q2053.18 1469.15 2050.84 1467.05 Q2048.51 1464.94 2044.5 1464.94 Q2042.63 1464.94 2040.75 1465.36 Q2038.9 1465.77 2036.96 1466.65 L2036.96 1449.29 Z" fill="#000000" fill-rule="evenodd" fill-opacity="1" /><path clip-path="url(#clip740)" d="M 0 0 M1204.64 1512.88 Q1197.63 1512.88 1193.5 1518.1 Q1189.39 1523.32 1189.39 1532.33 Q1189.39 1541.31 1193.5 1546.53 Q1197.63 1551.75 1204.64 1551.75 Q1211.64 1551.75 1215.71 1546.53 Q1219.82 1541.31 1219.82 1532.33 Q1219.82 1523.32 1215.71 1518.1 Q1211.64 1512.88 1204.64 1512.88 M1204.64 1507.66 Q1214.63 1507.66 1220.61 1514.38 Q1226.6 1521.06 1226.6 1532.33 Q1226.6 1543.57 1220.61 1550.28 Q1214.63 1556.97 1204.64 1556.97 Q1194.61 1556.97 1188.59 1550.28 Q1182.61 1543.6 1182.61 1532.33 Q1182.61 1521.06 1188.59 1514.38 Q1194.61 1507.66 1204.64 1507.66 Z" fill="#000000" fill-rule="evenodd" fill-opacity="1" /><path clip-path="url(#clip740)" d="M 0 0 M1258.33 1538.25 Q1258.33 1531.79 1255.66 1528.13 Q1253.02 1524.44 1248.37 1524.44 Q1243.72 1524.44 1241.05 1528.13 Q1238.41 1531.79 1238.41 1538.25 Q1238.41 1544.71 1241.05 1548.4 Q1243.72 1552.07 1248.37 1552.07 Q1253.02 1552.07 1255.66 1548.4 Q1258.33 1544.71 1258.33 1538.25 M1238.41 1525.81 Q1240.25 1522.62 1243.05 1521.1 Q1245.89 1519.54 1249.8 1519.54 Q1256.29 1519.54 1260.34 1524.69 Q1264.41 1529.85 1264.41 1538.25 Q1264.41 1546.65 1260.34 1551.81 Q1256.29 1556.97 1249.8 1556.97 Q1245.89 1556.97 1243.05 1555.44 Q1240.25 1553.88 1238.41 1550.7 L1238.41 1556.04 L1232.52 1556.04 L1232.52 1506.52 L1238.41 1506.52 L1238.41 1525.81 Z" fill="#000000" fill-rule="evenodd" fill-opacity="1" /><path clip-path="url(#clip740)" d="M 0 0 M1270.55 1520.4 L1276.41 1520.4 L1276.41 1556.68 Q1276.41 1563.49 1273.8 1566.55 Q1271.22 1569.6 1265.46 1569.6 L1263.23 1569.6 L1263.23 1564.64 L1264.79 1564.64 Q1268.13 1564.64 1269.34 1563.08 Q1270.55 1561.55 1270.55 1556.68 L1270.55 1520.4 M1270.55 1506.52 L1276.41 1506.52 L1276.41 1513.93 L1270.55 1513.93 L1270.55 1506.52 Z" fill="#000000" fill-rule="evenodd" fill-opacity="1" /><path clip-path="url(#clip740)" d="M 0 0 M1313.04 1536.76 L1313.04 1539.62 L1286.12 1539.62 Q1286.5 1545.67 1289.75 1548.85 Q1293.02 1552 1298.85 1552 Q1302.22 1552 1305.37 1551.17 Q1308.56 1550.35 1311.68 1548.69 L1311.68 1554.23 Q1308.52 1555.57 1305.21 1556.27 Q1301.9 1556.97 1298.5 1556.97 Q1289.97 1556.97 1284.97 1552 Q1280.01 1547.04 1280.01 1538.57 Q1280.01 1529.82 1284.72 1524.69 Q1289.46 1519.54 1297.48 1519.54 Q1304.67 1519.54 1308.84 1524.18 Q1313.04 1528.8 1313.04 1536.76 M1307.19 1535.04 Q1307.12 1530.23 1304.48 1527.37 Q1301.87 1524.5 1297.54 1524.5 Q1292.64 1524.5 1289.68 1527.27 Q1286.75 1530.04 1286.31 1535.07 L1307.19 1535.04 Z" fill="#000000" fill-rule="evenodd" fill-opacity="1" /><path clip-path="url(#clip740)" d="M 0 0 M1344.84 1521.76 L1344.84 1527.24 Q1342.36 1525.87 1339.84 1525.2 Q1337.36 1524.5 1334.81 1524.5 Q1329.12 1524.5 1325.97 1528.13 Q1322.82 1531.73 1322.82 1538.25 Q1322.82 1544.78 1325.97 1548.4 Q1329.12 1552 1334.81 1552 Q1337.36 1552 1339.84 1551.33 Q1342.36 1550.63 1344.84 1549.26 L1344.84 1554.68 Q1342.39 1555.82 1339.75 1556.39 Q1337.14 1556.97 1334.18 1556.97 Q1326.13 1556.97 1321.38 1551.91 Q1316.64 1546.85 1316.64 1538.25 Q1316.64 1529.53 1321.42 1524.53 Q1326.22 1519.54 1334.56 1519.54 Q1337.27 1519.54 1339.84 1520.11 Q1342.42 1520.65 1344.84 1521.76 Z" fill="#000000" fill-rule="evenodd" fill-opacity="1" /><path clip-path="url(#clip740)" d="M 0 0 M1356.78 1510.27 L1356.78 1520.4 L1368.84 1520.4 L1368.84 1524.95 L1356.78 1524.95 L1356.78 1544.3 Q1356.78 1548.66 1357.95 1549.9 Q1359.16 1551.14 1362.82 1551.14 L1368.84 1551.14 L1368.84 1556.04 L1362.82 1556.04 Q1356.04 1556.04 1353.47 1553.53 Q1350.89 1550.98 1350.89 1544.3 L1350.89 1524.95 L1346.59 1524.95 L1346.59 1520.4 L1350.89 1520.4 L1350.89 1510.27 L1356.78 1510.27 Z" fill="#000000" fill-rule="evenodd" fill-opacity="1" /><path clip-path="url(#clip740)" d="M 0 0 M1397.71 1521.45 L1397.71 1526.98 Q1395.23 1525.71 1392.55 1525.07 Q1389.88 1524.44 1387.01 1524.44 Q1382.65 1524.44 1380.46 1525.77 Q1378.29 1527.11 1378.29 1529.79 Q1378.29 1531.82 1379.85 1533 Q1381.41 1534.15 1386.12 1535.2 L1388.13 1535.64 Q1394.37 1536.98 1396.98 1539.43 Q1399.62 1541.85 1399.62 1546.21 Q1399.62 1551.17 1395.67 1554.07 Q1391.76 1556.97 1384.88 1556.97 Q1382.02 1556.97 1378.9 1556.39 Q1375.81 1555.85 1372.37 1554.74 L1372.37 1548.69 Q1375.62 1550.38 1378.77 1551.24 Q1381.92 1552.07 1385.01 1552.07 Q1389.15 1552.07 1391.37 1550.66 Q1393.6 1549.23 1393.6 1546.65 Q1393.6 1544.27 1391.98 1542.99 Q1390.39 1541.72 1384.94 1540.54 L1382.91 1540.07 Q1377.47 1538.92 1375.05 1536.56 Q1372.63 1534.18 1372.63 1530.04 Q1372.63 1525.01 1376.19 1522.27 Q1379.76 1519.54 1386.31 1519.54 Q1389.56 1519.54 1392.42 1520.01 Q1395.29 1520.49 1397.71 1521.45 Z" fill="#000000" fill-rule="evenodd" fill-opacity="1" /><polyline clip-path="url(#clip742)" style="stroke:#000000; stroke-width:2; stroke-opacity:0.1; fill:none" points="
  229.473,1387.51 2352.76,1387.51 
  "/>
<polyline clip-path="url(#clip742)" style="stroke:#000000; stroke-width:2; stroke-opacity:0.1; fill:none" points="
  229.473,1125.07 2352.76,1125.07 
  "/>
<polyline clip-path="url(#clip742)" style="stroke:#000000; stroke-width:2; stroke-opacity:0.1; fill:none" points="
  229.473,862.621 2352.76,862.621 
  "/>
<polyline clip-path="url(#clip742)" style="stroke:#000000; stroke-width:2; stroke-opacity:0.1; fill:none" points="
  229.473,600.175 2352.76,600.175 
  "/>
<polyline clip-path="url(#clip742)" style="stroke:#000000; stroke-width:2; stroke-opacity:0.1; fill:none" points="
  229.473,337.729 2352.76,337.729 
  "/>
<polyline clip-path="url(#clip740)" style="stroke:#000000; stroke-width:4; stroke-opacity:1; fill:none" points="
  229.473,1423.18 229.473,123.472 
  "/>
<polyline clip-path="url(#clip740)" style="stroke:#000000; stroke-width:4; stroke-opacity:1; fill:none" points="
  229.473,1387.51 254.952,1387.51 
  "/>
<polyline clip-path="url(#clip740)" style="stroke:#000000; stroke-width:4; stroke-opacity:1; fill:none" points="
  229.473,1125.07 254.952,1125.07 
  "/>
<polyline clip-path="url(#clip740)" style="stroke:#000000; stroke-width:4; stroke-opacity:1; fill:none" points="
  229.473,862.621 254.952,862.621 
  "/>
<polyline clip-path="url(#clip740)" style="stroke:#000000; stroke-width:4; stroke-opacity:1; fill:none" points="
  229.473,600.175 254.952,600.175 
  "/>
<polyline clip-path="url(#clip740)" style="stroke:#000000; stroke-width:4; stroke-opacity:1; fill:none" points="
  229.473,337.729 254.952,337.729 
  "/>
<path clip-path="url(#clip740)" d="M 0 0 M181.528 1373.31 Q177.917 1373.31 176.089 1376.88 Q174.283 1380.42 174.283 1387.55 Q174.283 1394.65 176.089 1398.22 Q177.917 1401.76 181.528 1401.76 Q185.163 1401.76 186.968 1398.22 Q188.797 1394.65 188.797 1387.55 Q188.797 1380.42 186.968 1376.88 Q185.163 1373.31 181.528 1373.31 M181.528 1369.61 Q187.338 1369.61 190.394 1374.21 Q193.473 1378.8 193.473 1387.55 Q193.473 1396.27 190.394 1400.88 Q187.338 1405.46 181.528 1405.46 Q175.718 1405.46 172.639 1400.88 Q169.584 1396.27 169.584 1387.55 Q169.584 1378.8 172.639 1374.21 Q175.718 1369.61 181.528 1369.61 Z" fill="#000000" fill-rule="evenodd" fill-opacity="1" /><path clip-path="url(#clip740)" d="M 0 0 M119.538 1138.41 L127.177 1138.41 L127.177 1112.05 L118.867 1113.71 L118.867 1109.45 L127.13 1107.79 L131.806 1107.79 L131.806 1138.41 L139.445 1138.41 L139.445 1142.35 L119.538 1142.35 L119.538 1138.41 Z" fill="#000000" fill-rule="evenodd" fill-opacity="1" /><path clip-path="url(#clip740)" d="M 0 0 M154.515 1110.87 Q150.903 1110.87 149.075 1114.43 Q147.269 1117.97 147.269 1125.1 Q147.269 1132.21 149.075 1135.77 Q150.903 1139.31 154.515 1139.31 Q158.149 1139.31 159.954 1135.77 Q161.783 1132.21 161.783 1125.1 Q161.783 1117.97 159.954 1114.43 Q158.149 1110.87 154.515 1110.87 M154.515 1107.16 Q160.325 1107.16 163.38 1111.77 Q166.459 1116.35 166.459 1125.1 Q166.459 1133.83 163.38 1138.43 Q160.325 1143.02 154.515 1143.02 Q148.704 1143.02 145.626 1138.43 Q142.57 1133.83 142.57 1125.1 Q142.57 1116.35 145.626 1111.77 Q148.704 1107.16 154.515 1107.16 Z" fill="#000000" fill-rule="evenodd" fill-opacity="1" /><path clip-path="url(#clip740)" d="M 0 0 M181.528 1110.87 Q177.917 1110.87 176.089 1114.43 Q174.283 1117.97 174.283 1125.1 Q174.283 1132.21 176.089 1135.77 Q177.917 1139.31 181.528 1139.31 Q185.163 1139.31 186.968 1135.77 Q188.797 1132.21 188.797 1125.1 Q188.797 1117.97 186.968 1114.43 Q185.163 1110.87 181.528 1110.87 M181.528 1107.16 Q187.338 1107.16 190.394 1111.77 Q193.473 1116.35 193.473 1125.1 Q193.473 1133.83 190.394 1138.43 Q187.338 1143.02 181.528 1143.02 Q175.718 1143.02 172.639 1138.43 Q169.584 1133.83 169.584 1125.1 Q169.584 1116.35 172.639 1111.77 Q175.718 1107.16 181.528 1107.16 Z" fill="#000000" fill-rule="evenodd" fill-opacity="1" /><path clip-path="url(#clip740)" d="M 0 0 M123.126 875.966 L139.445 875.966 L139.445 879.901 L117.501 879.901 L117.501 875.966 Q120.163 873.211 124.746 868.582 Q129.353 863.929 130.533 862.586 Q132.779 860.063 133.658 858.327 Q134.561 856.568 134.561 854.878 Q134.561 852.123 132.617 850.387 Q130.695 848.651 127.593 848.651 Q125.394 848.651 122.941 849.415 Q120.51 850.179 117.732 851.73 L117.732 847.008 Q120.556 845.873 123.01 845.295 Q125.464 844.716 127.501 844.716 Q132.871 844.716 136.066 847.401 Q139.26 850.086 139.26 854.577 Q139.26 856.707 138.45 858.628 Q137.663 860.526 135.556 863.119 Q134.978 863.79 131.876 867.008 Q128.774 870.202 123.126 875.966 Z" fill="#000000" fill-rule="evenodd" fill-opacity="1" /><path clip-path="url(#clip740)" d="M 0 0 M154.515 848.42 Q150.903 848.42 149.075 851.984 Q147.269 855.526 147.269 862.656 Q147.269 869.762 149.075 873.327 Q150.903 876.869 154.515 876.869 Q158.149 876.869 159.954 873.327 Q161.783 869.762 161.783 862.656 Q161.783 855.526 159.954 851.984 Q158.149 848.42 154.515 848.42 M154.515 844.716 Q160.325 844.716 163.38 849.322 Q166.459 853.906 166.459 862.656 Q166.459 871.382 163.38 875.989 Q160.325 880.572 154.515 880.572 Q148.704 880.572 145.626 875.989 Q142.57 871.382 142.57 862.656 Q142.57 853.906 145.626 849.322 Q148.704 844.716 154.515 844.716 Z" fill="#000000" fill-rule="evenodd" fill-opacity="1" /><path clip-path="url(#clip740)" d="M 0 0 M181.528 848.42 Q177.917 848.42 176.089 851.984 Q174.283 855.526 174.283 862.656 Q174.283 869.762 176.089 873.327 Q177.917 876.869 181.528 876.869 Q185.163 876.869 186.968 873.327 Q188.797 869.762 188.797 862.656 Q188.797 855.526 186.968 851.984 Q185.163 848.42 181.528 848.42 M181.528 844.716 Q187.338 844.716 190.394 849.322 Q193.473 853.906 193.473 862.656 Q193.473 871.382 190.394 875.989 Q187.338 880.572 181.528 880.572 Q175.718 880.572 172.639 875.989 Q169.584 871.382 169.584 862.656 Q169.584 853.906 172.639 849.322 Q175.718 844.716 181.528 844.716 Z" fill="#000000" fill-rule="evenodd" fill-opacity="1" /><path clip-path="url(#clip740)" d="M 0 0 M132.316 598.821 Q135.672 599.538 137.547 601.807 Q139.445 604.075 139.445 607.409 Q139.445 612.524 135.927 615.325 Q132.408 618.126 125.927 618.126 Q123.751 618.126 121.436 617.686 Q119.144 617.27 116.691 616.413 L116.691 611.899 Q118.635 613.034 120.95 613.612 Q123.265 614.191 125.788 614.191 Q130.186 614.191 132.478 612.455 Q134.792 610.719 134.792 607.409 Q134.792 604.353 132.64 602.64 Q130.51 600.904 126.691 600.904 L122.663 600.904 L122.663 597.062 L126.876 597.062 Q130.325 597.062 132.154 595.696 Q133.982 594.307 133.982 591.714 Q133.982 589.052 132.084 587.64 Q130.209 586.205 126.691 586.205 Q124.769 586.205 122.57 586.622 Q120.371 587.038 117.732 587.918 L117.732 583.751 Q120.394 583.011 122.709 582.64 Q125.047 582.27 127.107 582.27 Q132.431 582.27 135.533 584.7 Q138.635 587.108 138.635 591.228 Q138.635 594.099 136.992 596.089 Q135.348 598.057 132.316 598.821 Z" fill="#000000" fill-rule="evenodd" fill-opacity="1" /><path clip-path="url(#clip740)" d="M 0 0 M154.515 585.974 Q150.903 585.974 149.075 589.538 Q147.269 593.08 147.269 600.21 Q147.269 607.316 149.075 610.881 Q150.903 614.423 154.515 614.423 Q158.149 614.423 159.954 610.881 Q161.783 607.316 161.783 600.21 Q161.783 593.08 159.954 589.538 Q158.149 585.974 154.515 585.974 M154.515 582.27 Q160.325 582.27 163.38 586.876 Q166.459 591.46 166.459 600.21 Q166.459 608.936 163.38 613.543 Q160.325 618.126 154.515 618.126 Q148.704 618.126 145.626 613.543 Q142.57 608.936 142.57 600.21 Q142.57 591.46 145.626 586.876 Q148.704 582.27 154.515 582.27 Z" fill="#000000" fill-rule="evenodd" fill-opacity="1" /><path clip-path="url(#clip740)" d="M 0 0 M181.528 585.974 Q177.917 585.974 176.089 589.538 Q174.283 593.08 174.283 600.21 Q174.283 607.316 176.089 610.881 Q177.917 614.423 181.528 614.423 Q185.163 614.423 186.968 610.881 Q188.797 607.316 188.797 600.21 Q188.797 593.08 186.968 589.538 Q185.163 585.974 181.528 585.974 M181.528 582.27 Q187.338 582.27 190.394 586.876 Q193.473 591.46 193.473 600.21 Q193.473 608.936 190.394 613.543 Q187.338 618.126 181.528 618.126 Q175.718 618.126 172.639 613.543 Q169.584 608.936 169.584 600.21 Q169.584 591.46 172.639 586.876 Q175.718 582.27 181.528 582.27 Z" fill="#000000" fill-rule="evenodd" fill-opacity="1" /><path clip-path="url(#clip740)" d="M 0 0 M129.862 324.523 L118.056 342.972 L129.862 342.972 L129.862 324.523 M128.635 320.449 L134.515 320.449 L134.515 342.972 L139.445 342.972 L139.445 346.861 L134.515 346.861 L134.515 355.009 L129.862 355.009 L129.862 346.861 L114.26 346.861 L114.26 342.347 L128.635 320.449 Z" fill="#000000" fill-rule="evenodd" fill-opacity="1" /><path clip-path="url(#clip740)" d="M 0 0 M154.515 323.528 Q150.903 323.528 149.075 327.092 Q147.269 330.634 147.269 337.764 Q147.269 344.87 149.075 348.435 Q150.903 351.977 154.515 351.977 Q158.149 351.977 159.954 348.435 Q161.783 344.87 161.783 337.764 Q161.783 330.634 159.954 327.092 Q158.149 323.528 154.515 323.528 M154.515 319.824 Q160.325 319.824 163.38 324.43 Q166.459 329.014 166.459 337.764 Q166.459 346.49 163.38 351.097 Q160.325 355.68 154.515 355.68 Q148.704 355.68 145.626 351.097 Q142.57 346.49 142.57 337.764 Q142.57 329.014 145.626 324.43 Q148.704 319.824 154.515 319.824 Z" fill="#000000" fill-rule="evenodd" fill-opacity="1" /><path clip-path="url(#clip740)" d="M 0 0 M181.528 323.528 Q177.917 323.528 176.089 327.092 Q174.283 330.634 174.283 337.764 Q174.283 344.87 176.089 348.435 Q177.917 351.977 181.528 351.977 Q185.163 351.977 186.968 348.435 Q188.797 344.87 188.797 337.764 Q188.797 330.634 186.968 327.092 Q185.163 323.528 181.528 323.528 M181.528 319.824 Q187.338 319.824 190.394 324.43 Q193.473 329.014 193.473 337.764 Q193.473 346.49 190.394 351.097 Q187.338 355.68 181.528 355.68 Q175.718 355.68 172.639 351.097 Q169.584 346.49 169.584 337.764 Q169.584 329.014 172.639 324.43 Q175.718 319.824 181.528 319.824 Z" fill="#000000" fill-rule="evenodd" fill-opacity="1" /><path clip-path="url(#clip740)" d="M 0 0 M88.0042 962.992 L40.4842 981.134 L40.4842 974.419 L80.4926 959.364 L40.4842 944.277 L40.4842 937.593 L88.0042 955.703 L88.0042 962.992 Z" fill="#000000" fill-rule="evenodd" fill-opacity="1" /><path clip-path="url(#clip740)" d="M 0 0 M68.7161 906.019 L71.5806 906.019 L71.5806 932.946 Q77.6281 932.564 80.8109 929.318 Q83.9619 926.039 83.9619 920.215 Q83.9619 916.841 83.1344 913.69 Q82.3069 910.507 80.6518 907.388 L86.1899 907.388 Q87.5267 910.539 88.227 913.849 Q88.9272 917.159 88.9272 920.565 Q88.9272 929.095 83.9619 934.092 Q78.9967 939.057 70.5303 939.057 Q61.7774 939.057 56.6531 934.347 Q51.4968 929.604 51.4968 921.583 Q51.4968 914.39 56.1438 910.221 Q60.7589 906.019 68.7161 906.019 M66.9973 911.876 Q62.1912 911.939 59.3266 914.581 Q56.4621 917.191 56.4621 921.52 Q56.4621 926.421 59.2312 929.381 Q62.0002 932.31 67.0292 932.755 L66.9973 911.876 Z" fill="#000000" fill-rule="evenodd" fill-opacity="1" /><path clip-path="url(#clip740)" d="M 0 0 M38.479 899.876 L38.479 894.02 L88.0042 894.02 L88.0042 899.876 L38.479 899.876 Z" fill="#000000" fill-rule="evenodd" fill-opacity="1" /><path clip-path="url(#clip740)" d="M 0 0 M56.4621 874.063 Q56.4621 878.774 60.1542 881.511 Q63.8145 884.248 70.212 884.248 Q76.6095 884.248 80.3017 881.543 Q83.9619 878.806 83.9619 874.063 Q83.9619 869.384 80.2698 866.647 Q76.5777 863.91 70.212 863.91 Q63.8781 863.91 60.186 866.647 Q56.4621 869.384 56.4621 874.063 M51.4968 874.063 Q51.4968 866.424 56.4621 862.064 Q61.4273 857.703 70.212 857.703 Q78.9649 857.703 83.9619 862.064 Q88.9272 866.424 88.9272 874.063 Q88.9272 881.734 83.9619 886.094 Q78.9649 890.423 70.212 890.423 Q61.4273 890.423 56.4621 886.094 Q51.4968 881.734 51.4968 874.063 Z" fill="#000000" fill-rule="evenodd" fill-opacity="1" /><path clip-path="url(#clip740)" d="M 0 0 M53.7248 825.907 L59.1993 825.907 Q57.8307 828.389 57.1623 830.904 Q56.4621 833.386 56.4621 835.933 Q56.4621 841.63 60.0905 844.781 Q63.6872 847.932 70.212 847.932 Q76.7369 847.932 80.3653 844.781 Q83.9619 841.63 83.9619 835.933 Q83.9619 833.386 83.2935 830.904 Q82.5933 828.389 81.2247 825.907 L86.6355 825.907 Q87.7814 828.358 88.3543 830.999 Q88.9272 833.609 88.9272 836.569 Q88.9272 844.622 83.8664 849.364 Q78.8057 854.107 70.212 854.107 Q61.491 854.107 56.4939 849.333 Q51.4968 844.526 51.4968 836.187 Q51.4968 833.482 52.0697 830.904 Q52.6108 828.326 53.7248 825.907 Z" fill="#000000" fill-rule="evenodd" fill-opacity="1" /><path clip-path="url(#clip740)" d="M 0 0 M52.3562 819.764 L52.3562 813.907 L88.0042 813.907 L88.0042 819.764 L52.3562 819.764 M38.479 819.764 L38.479 813.907 L45.895 813.907 L45.895 819.764 L38.479 819.764 Z" fill="#000000" fill-rule="evenodd" fill-opacity="1" /><path clip-path="url(#clip740)" d="M 0 0 M42.2347 801.972 L52.3562 801.972 L52.3562 789.909 L56.9077 789.909 L56.9077 801.972 L76.2594 801.972 Q80.6199 801.972 81.8613 800.794 Q83.1026 799.585 83.1026 795.924 L83.1026 789.909 L88.0042 789.909 L88.0042 795.924 Q88.0042 802.704 85.4897 805.282 Q82.9434 807.86 76.2594 807.86 L56.9077 807.86 L56.9077 812.157 L52.3562 812.157 L52.3562 807.86 L42.2347 807.86 L42.2347 801.972 Z" fill="#000000" fill-rule="evenodd" fill-opacity="1" /><path clip-path="url(#clip740)" d="M 0 0 M91.3143 768.934 Q97.68 771.416 99.6216 773.772 Q101.563 776.127 101.563 780.074 L101.563 784.752 L96.6615 784.752 L96.6615 781.315 Q96.6615 778.896 95.5157 777.559 Q94.3699 776.222 90.1048 774.599 L87.4312 773.549 L52.3562 787.967 L52.3562 781.761 L80.238 770.621 L52.3562 759.481 L52.3562 753.274 L91.3143 768.934 Z" fill="#000000" fill-rule="evenodd" fill-opacity="1" /><path clip-path="url(#clip740)" d="M 0 0 M38.5426 712.343 Q45.8632 716.608 53.0246 718.676 Q60.186 720.745 67.5384 720.745 Q74.8908 720.745 82.1159 718.676 Q89.3091 716.576 96.5979 712.343 L96.5979 717.435 Q89.1182 722.209 81.8931 724.596 Q74.668 726.952 67.5384 726.952 Q60.4406 726.952 53.2474 724.596 Q46.0542 722.241 38.5426 717.435 L38.5426 712.343 Z" fill="#000000" fill-rule="evenodd" fill-opacity="1" /><path clip-path="url(#clip740)" d="M 0 0 M82.657 700.534 L101.563 700.534 L101.563 706.422 L52.3562 706.422 L52.3562 700.534 L57.7671 700.534 Q54.5842 698.688 53.0564 695.887 Q51.4968 693.054 51.4968 689.14 Q51.4968 682.646 56.6531 678.604 Q61.8093 674.53 70.212 674.53 Q78.6147 674.53 83.771 678.604 Q88.9272 682.646 88.9272 689.14 Q88.9272 693.054 87.3994 695.887 Q85.8398 698.688 82.657 700.534 M70.212 680.609 Q63.7508 680.609 60.0905 683.283 Q56.3984 685.925 56.3984 690.572 Q56.3984 695.219 60.0905 697.892 Q63.7508 700.534 70.212 700.534 Q76.6732 700.534 80.3653 697.892 Q84.0256 695.219 84.0256 690.572 Q84.0256 685.925 80.3653 683.283 Q76.6732 680.609 70.212 680.609 Z" fill="#000000" fill-rule="evenodd" fill-opacity="1" /><path clip-path="url(#clip740)" d="M 0 0 M52.3562 638.755 L69.7028 651.646 L88.0042 638.087 L88.0042 644.993 L73.9996 655.369 L88.0042 665.746 L88.0042 672.652 L69.3526 658.807 L52.3562 671.475 L52.3562 664.568 L65.0558 655.115 L52.3562 645.662 L52.3562 638.755 Z" fill="#000000" fill-rule="evenodd" fill-opacity="1" /><path clip-path="url(#clip740)" d="M 0 0 M40.4842 621.536 L40.4842 616.125 L94.0516 632.676 L94.0516 638.087 L40.4842 621.536 Z" fill="#000000" fill-rule="evenodd" fill-opacity="1" /><path clip-path="url(#clip740)" d="M 0 0 M53.4065 587.256 L58.9447 587.256 Q57.6716 589.739 57.035 592.413 Q56.3984 595.086 56.3984 597.951 Q56.3984 602.311 57.7352 604.507 Q59.072 606.672 61.7456 606.672 Q63.7826 606.672 64.9603 605.112 Q66.1061 603.553 67.1565 598.842 L67.6021 596.837 Q68.9389 590.598 71.3897 587.988 Q73.8086 585.347 78.1691 585.347 Q83.1344 585.347 86.0308 589.293 Q88.9272 593.208 88.9272 600.083 Q88.9272 602.948 88.3543 606.067 Q87.8132 609.154 86.6992 612.592 L80.6518 612.592 Q82.3387 609.345 83.198 606.194 Q84.0256 603.043 84.0256 599.956 Q84.0256 595.818 82.6251 593.59 Q81.1929 591.362 78.6147 591.362 Q76.2276 591.362 74.9545 592.986 Q73.6813 594.577 72.5037 600.02 L72.0262 602.057 Q70.8804 607.499 68.5251 609.918 Q66.138 612.337 62.0002 612.337 Q56.9713 612.337 54.2341 608.772 Q51.4968 605.208 51.4968 598.651 Q51.4968 595.404 51.9743 592.54 Q52.4517 589.675 53.4065 587.256 Z" fill="#000000" fill-rule="evenodd" fill-opacity="1" /><path clip-path="url(#clip740)" d="M 0 0 M38.5426 580.127 L38.5426 575.034 Q46.0542 570.26 53.2474 567.905 Q60.4406 565.517 67.5384 565.517 Q74.668 565.517 81.8931 567.905 Q89.1182 570.26 96.5979 575.034 L96.5979 580.127 Q89.3091 575.894 82.1159 573.825 Q74.8908 571.724 67.5384 571.724 Q60.186 571.724 53.0246 573.825 Q45.8632 575.894 38.5426 580.127 Z" fill="#000000" fill-rule="evenodd" fill-opacity="1" /><path clip-path="url(#clip740)" d="M 0 0 M931.313 72.576 L908.223 12.096 L916.77 12.096 L935.931 63.0159 L955.132 12.096 L963.639 12.096 L940.59 72.576 L931.313 72.576 Z" fill="#000000" fill-rule="evenodd" fill-opacity="1" /><path clip-path="url(#clip740)" d="M 0 0 M1003.82 48.0275 L1003.82 51.6733 L969.554 51.6733 Q970.04 59.3701 974.172 63.421 Q978.344 67.4314 985.757 67.4314 Q990.051 67.4314 994.061 66.3781 Q998.112 65.3249 1002.08 63.2184 L1002.08 70.267 Q998.072 71.9684 993.859 72.8596 Q989.646 73.7508 985.312 73.7508 Q974.455 73.7508 968.095 67.4314 Q961.776 61.1119 961.776 50.3365 Q961.776 39.1965 967.771 32.6746 Q973.807 26.1121 984.015 26.1121 Q993.17 26.1121 998.477 32.0264 Q1003.82 37.9003 1003.82 48.0275 M996.371 45.84 Q996.289 39.7232 992.927 36.0774 Q989.605 32.4315 984.096 32.4315 Q977.858 32.4315 974.091 35.9558 Q970.364 39.4801 969.797 45.8805 L996.371 45.84 Z" fill="#000000" fill-rule="evenodd" fill-opacity="1" /><path clip-path="url(#clip740)" d="M 0 0 M1011.64 9.54393 L1019.1 9.54393 L1019.1 72.576 L1011.64 72.576 L1011.64 9.54393 Z" fill="#000000" fill-rule="evenodd" fill-opacity="1" /><path clip-path="url(#clip740)" d="M 0 0 M1044.5 32.4315 Q1038.5 32.4315 1035.02 37.1306 Q1031.53 41.7891 1031.53 49.9314 Q1031.53 58.0738 1034.98 62.7728 Q1038.46 67.4314 1044.5 67.4314 Q1050.45 67.4314 1053.93 62.7323 Q1057.42 58.0333 1057.42 49.9314 Q1057.42 41.8701 1053.93 37.1711 Q1050.45 32.4315 1044.5 32.4315 M1044.5 26.1121 Q1054.22 26.1121 1059.77 32.4315 Q1065.32 38.7509 1065.32 49.9314 Q1065.32 61.0714 1059.77 67.4314 Q1054.22 73.7508 1044.5 73.7508 Q1034.73 73.7508 1029.18 67.4314 Q1023.67 61.0714 1023.67 49.9314 Q1023.67 38.7509 1029.18 32.4315 Q1034.73 26.1121 1044.5 26.1121 Z" fill="#000000" fill-rule="evenodd" fill-opacity="1" /><path clip-path="url(#clip740)" d="M 0 0 M1105.79 28.9478 L1105.79 35.9153 Q1102.63 34.1734 1099.43 33.3227 Q1096.27 32.4315 1093.03 32.4315 Q1085.77 32.4315 1081.76 37.0496 Q1077.75 41.6271 1077.75 49.9314 Q1077.75 58.2358 1081.76 62.8538 Q1085.77 67.4314 1093.03 67.4314 Q1096.27 67.4314 1099.43 66.5807 Q1102.63 65.6895 1105.79 63.9476 L1105.79 70.8341 Q1102.67 72.2924 1099.3 73.0216 Q1095.98 73.7508 1092.21 73.7508 Q1081.97 73.7508 1075.93 67.3098 Q1069.89 60.8689 1069.89 49.9314 Q1069.89 38.832 1075.97 32.472 Q1082.09 26.1121 1092.7 26.1121 Q1096.14 26.1121 1099.43 26.8413 Q1102.71 27.5299 1105.79 28.9478 Z" fill="#000000" fill-rule="evenodd" fill-opacity="1" /><path clip-path="url(#clip740)" d="M 0 0 M1113.6 27.2059 L1121.06 27.2059 L1121.06 72.576 L1113.6 72.576 L1113.6 27.2059 M1113.6 9.54393 L1121.06 9.54393 L1121.06 18.9825 L1113.6 18.9825 L1113.6 9.54393 Z" fill="#000000" fill-rule="evenodd" fill-opacity="1" /><path clip-path="url(#clip740)" d="M 0 0 M1136.25 14.324 L1136.25 27.2059 L1151.6 27.2059 L1151.6 32.9987 L1136.25 32.9987 L1136.25 57.6282 Q1136.25 63.1779 1137.75 64.7578 Q1139.29 66.3376 1143.94 66.3376 L1151.6 66.3376 L1151.6 72.576 L1143.94 72.576 Q1135.32 72.576 1132.04 69.3758 Q1128.75 66.1351 1128.75 57.6282 L1128.75 32.9987 L1123.29 32.9987 L1123.29 27.2059 L1128.75 27.2059 L1128.75 14.324 L1136.25 14.324 Z" fill="#000000" fill-rule="evenodd" fill-opacity="1" /><path clip-path="url(#clip740)" d="M 0 0 M1178.3 76.7889 Q1175.14 84.8907 1172.14 87.3618 Q1169.14 89.8329 1164.12 89.8329 L1158.16 89.8329 L1158.16 83.5945 L1162.54 83.5945 Q1165.62 83.5945 1167.32 82.1361 Q1169.02 80.6778 1171.09 75.2496 L1172.42 71.8468 L1154.07 27.2059 L1161.97 27.2059 L1176.15 62.6918 L1190.33 27.2059 L1198.23 27.2059 L1178.3 76.7889 Z" fill="#000000" fill-rule="evenodd" fill-opacity="1" /><path clip-path="url(#clip740)" d="M 0 0 M1262.27 34.0924 L1262.27 9.54393 L1269.73 9.54393 L1269.73 72.576 L1262.27 72.576 L1262.27 65.7705 Q1259.92 69.8214 1256.32 71.8063 Q1252.75 73.7508 1247.73 73.7508 Q1239.51 73.7508 1234.32 67.1883 Q1229.18 60.6258 1229.18 49.9314 Q1229.18 39.2371 1234.32 32.6746 Q1239.51 26.1121 1247.73 26.1121 Q1252.75 26.1121 1256.32 28.0971 Q1259.92 30.0415 1262.27 34.0924 M1236.87 49.9314 Q1236.87 58.1548 1240.23 62.8538 Q1243.64 67.5124 1249.55 67.5124 Q1255.47 67.5124 1258.87 62.8538 Q1262.27 58.1548 1262.27 49.9314 Q1262.27 41.7081 1258.87 37.0496 Q1255.47 32.3505 1249.55 32.3505 Q1243.64 32.3505 1240.23 37.0496 Q1236.87 41.7081 1236.87 49.9314 Z" fill="#000000" fill-rule="evenodd" fill-opacity="1" /><path clip-path="url(#clip740)" d="M 0 0 M1277.54 27.2059 L1285 27.2059 L1285 72.576 L1277.54 72.576 L1277.54 27.2059 M1277.54 9.54393 L1285 9.54393 L1285 18.9825 L1277.54 18.9825 L1277.54 9.54393 Z" fill="#000000" fill-rule="evenodd" fill-opacity="1" /><path clip-path="url(#clip740)" d="M 0 0 M1321.74 28.5427 L1321.74 35.5912 Q1318.58 33.9709 1315.18 33.1607 Q1311.77 32.3505 1308.13 32.3505 Q1302.58 32.3505 1299.78 34.0519 Q1297.03 35.7533 1297.03 39.156 Q1297.03 41.7486 1299.01 43.2475 Q1301 44.7058 1306.99 46.0426 L1309.55 46.6097 Q1317.49 48.3111 1320.81 51.4303 Q1324.17 54.509 1324.17 60.0587 Q1324.17 66.3781 1319.15 70.0644 Q1314.16 73.7508 1305.41 73.7508 Q1301.77 73.7508 1297.8 73.0216 Q1293.87 72.3329 1289.49 70.9151 L1289.49 63.2184 Q1293.63 65.3654 1297.64 66.4591 Q1301.65 67.5124 1305.58 67.5124 Q1310.84 67.5124 1313.68 65.73 Q1316.51 63.9071 1316.51 60.6258 Q1316.51 57.5877 1314.45 55.9673 Q1312.42 54.3469 1305.5 52.8481 L1302.9 52.2405 Q1295.98 50.7821 1292.9 47.7845 Q1289.82 44.7463 1289.82 39.4801 Q1289.82 33.0797 1294.36 29.5959 Q1298.89 26.1121 1307.24 26.1121 Q1311.37 26.1121 1315.01 26.7198 Q1318.66 27.3274 1321.74 28.5427 Z" fill="#000000" fill-rule="evenodd" fill-opacity="1" /><path clip-path="url(#clip740)" d="M 0 0 M1339.36 14.324 L1339.36 27.2059 L1354.71 27.2059 L1354.71 32.9987 L1339.36 32.9987 L1339.36 57.6282 Q1339.36 63.1779 1340.86 64.7578 Q1342.4 66.3376 1347.06 66.3376 L1354.71 66.3376 L1354.71 72.576 L1347.06 72.576 Q1338.43 72.576 1335.15 69.3758 Q1331.87 66.1351 1331.87 57.6282 L1331.87 32.9987 L1326.4 32.9987 L1326.4 27.2059 L1331.87 27.2059 L1331.87 14.324 L1339.36 14.324 Z" fill="#000000" fill-rule="evenodd" fill-opacity="1" /><path clip-path="url(#clip740)" d="M 0 0 M1388.82 34.1734 Q1387.57 33.4443 1386.07 33.1202 Q1384.61 32.7556 1382.83 32.7556 Q1376.51 32.7556 1373.1 36.8875 Q1369.74 40.9789 1369.74 48.6757 L1369.74 72.576 L1362.25 72.576 L1362.25 27.2059 L1369.74 27.2059 L1369.74 34.2544 Q1372.09 30.1225 1375.86 28.1376 Q1379.63 26.1121 1385.01 26.1121 Q1385.78 26.1121 1386.72 26.2337 Q1387.65 26.3147 1388.78 26.5172 L1388.82 34.1734 Z" fill="#000000" fill-rule="evenodd" fill-opacity="1" /><path clip-path="url(#clip740)" d="M 0 0 M1396.64 27.2059 L1404.09 27.2059 L1404.09 72.576 L1396.64 72.576 L1396.64 27.2059 M1396.64 9.54393 L1404.09 9.54393 L1404.09 18.9825 L1396.64 18.9825 L1396.64 9.54393 Z" fill="#000000" fill-rule="evenodd" fill-opacity="1" /><path clip-path="url(#clip740)" d="M 0 0 M1444.48 49.9314 Q1444.48 41.7081 1441.08 37.0496 Q1437.72 32.3505 1431.8 32.3505 Q1425.89 32.3505 1422.49 37.0496 Q1419.12 41.7081 1419.12 49.9314 Q1419.12 58.1548 1422.49 62.8538 Q1425.89 67.5124 1431.8 67.5124 Q1437.72 67.5124 1441.08 62.8538 Q1444.48 58.1548 1444.48 49.9314 M1419.12 34.0924 Q1421.47 30.0415 1425.04 28.0971 Q1428.64 26.1121 1433.63 26.1121 Q1441.89 26.1121 1447.03 32.6746 Q1452.22 39.2371 1452.22 49.9314 Q1452.22 60.6258 1447.03 67.1883 Q1441.89 73.7508 1433.63 73.7508 Q1428.64 73.7508 1425.04 71.8063 Q1421.47 69.8214 1419.12 65.7705 L1419.12 72.576 L1411.63 72.576 L1411.63 9.54393 L1419.12 9.54393 L1419.12 34.0924 Z" fill="#000000" fill-rule="evenodd" fill-opacity="1" /><path clip-path="url(#clip740)" d="M 0 0 M1459.27 54.671 L1459.27 27.2059 L1466.72 27.2059 L1466.72 54.3874 Q1466.72 60.8284 1469.23 64.0691 Q1471.74 67.2693 1476.77 67.2693 Q1482.8 67.2693 1486.29 63.421 Q1489.81 59.5726 1489.81 52.9291 L1489.81 27.2059 L1497.26 27.2059 L1497.26 72.576 L1489.81 72.576 L1489.81 65.6084 Q1487.1 69.7404 1483.49 71.7658 Q1479.93 73.7508 1475.19 73.7508 Q1467.37 73.7508 1463.32 68.8897 Q1459.27 64.0286 1459.27 54.671 M1478.02 26.1121 L1478.02 26.1121 Z" fill="#000000" fill-rule="evenodd" fill-opacity="1" /><path clip-path="url(#clip740)" d="M 0 0 M1512.46 14.324 L1512.46 27.2059 L1527.81 27.2059 L1527.81 32.9987 L1512.46 32.9987 L1512.46 57.6282 Q1512.46 63.1779 1513.95 64.7578 Q1515.49 66.3376 1520.15 66.3376 L1527.81 66.3376 L1527.81 72.576 L1520.15 72.576 Q1511.52 72.576 1508.24 69.3758 Q1504.96 66.1351 1504.96 57.6282 L1504.96 32.9987 L1499.49 32.9987 L1499.49 27.2059 L1504.96 27.2059 L1504.96 14.324 L1512.46 14.324 Z" fill="#000000" fill-rule="evenodd" fill-opacity="1" /><path clip-path="url(#clip740)" d="M 0 0 M1535.63 27.2059 L1543.08 27.2059 L1543.08 72.576 L1535.63 72.576 L1535.63 27.2059 M1535.63 9.54393 L1543.08 9.54393 L1543.08 18.9825 L1535.63 18.9825 L1535.63 9.54393 Z" fill="#000000" fill-rule="evenodd" fill-opacity="1" /><path clip-path="url(#clip740)" d="M 0 0 M1568.48 32.4315 Q1562.48 32.4315 1559 37.1306 Q1555.52 41.7891 1555.52 49.9314 Q1555.52 58.0738 1558.96 62.7728 Q1562.44 67.4314 1568.48 67.4314 Q1574.43 67.4314 1577.92 62.7323 Q1581.4 58.0333 1581.4 49.9314 Q1581.4 41.8701 1577.92 37.1711 Q1574.43 32.4315 1568.48 32.4315 M1568.48 26.1121 Q1578.2 26.1121 1583.75 32.4315 Q1589.3 38.7509 1589.3 49.9314 Q1589.3 61.0714 1583.75 67.4314 Q1578.2 73.7508 1568.48 73.7508 Q1558.72 73.7508 1553.17 67.4314 Q1547.66 61.0714 1547.66 49.9314 Q1547.66 38.7509 1553.17 32.4315 Q1558.72 26.1121 1568.48 26.1121 Z" fill="#000000" fill-rule="evenodd" fill-opacity="1" /><path clip-path="url(#clip740)" d="M 0 0 M1634.83 45.1919 L1634.83 72.576 L1627.38 72.576 L1627.38 45.4349 Q1627.38 38.994 1624.87 35.7938 Q1622.36 32.5936 1617.33 32.5936 Q1611.3 32.5936 1607.81 36.4419 Q1604.33 40.2903 1604.33 46.9338 L1604.33 72.576 L1596.84 72.576 L1596.84 27.2059 L1604.33 27.2059 L1604.33 34.2544 Q1607 30.163 1610.61 28.1376 Q1614.25 26.1121 1618.99 26.1121 Q1626.81 26.1121 1630.82 30.9732 Q1634.83 35.7938 1634.83 45.1919 Z" fill="#000000" fill-rule="evenodd" fill-opacity="1" /><path clip-path="url(#clip740)" d="M 0 0 M1671.58 28.5427 L1671.58 35.5912 Q1668.42 33.9709 1665.01 33.1607 Q1661.61 32.3505 1657.96 32.3505 Q1652.41 32.3505 1649.62 34.0519 Q1646.86 35.7533 1646.86 39.156 Q1646.86 41.7486 1648.85 43.2475 Q1650.83 44.7058 1656.83 46.0426 L1659.38 46.6097 Q1667.32 48.3111 1670.64 51.4303 Q1674.01 54.509 1674.01 60.0587 Q1674.01 66.3781 1668.98 70.0644 Q1664 73.7508 1655.25 73.7508 Q1651.6 73.7508 1647.63 73.0216 Q1643.71 72.3329 1639.33 70.9151 L1639.33 63.2184 Q1643.46 65.3654 1647.47 66.4591 Q1651.48 67.5124 1655.41 67.5124 Q1660.68 67.5124 1663.51 65.73 Q1666.35 63.9071 1666.35 60.6258 Q1666.35 57.5877 1664.28 55.9673 Q1662.26 54.3469 1655.33 52.8481 L1652.74 52.2405 Q1645.81 50.7821 1642.73 47.7845 Q1639.65 44.7463 1639.65 39.4801 Q1639.65 33.0797 1644.19 29.5959 Q1648.73 26.1121 1657.07 26.1121 Q1661.2 26.1121 1664.85 26.7198 Q1668.5 27.3274 1671.58 28.5427 Z" fill="#000000" fill-rule="evenodd" fill-opacity="1" /><path clip-path="url(#clip742)" d="
M347.626 1386.4 L289.566 1386.4 L405.687 1386.4 L347.626 1386.4 L347.626 1328.66 L347.626 1386.4  Z
  " fill="#009af9" fill-rule="evenodd" fill-opacity="1"/>
<polyline clip-path="url(#clip742)" style="stroke:#000000; stroke-width:4; stroke-opacity:1; fill:none" points="
  347.626,1386.4 289.566,1386.4 405.687,1386.4 347.626,1386.4 347.626,1328.66 347.626,1386.4 
  "/>
<path clip-path="url(#clip742)" d="
M289.566 1328.66 L289.566 1279.01 L347.626 1279.01 L405.687 1279.01 L405.687 1328.66 L289.566 1328.66 L289.566 1328.66  Z
  " fill="#009af9" fill-rule="evenodd" fill-opacity="1"/>
<polyline clip-path="url(#clip742)" style="stroke:#000000; stroke-width:4; stroke-opacity:1; fill:none" points="
  289.566,1328.66 289.566,1279.01 347.626,1279.01 405.687,1279.01 405.687,1328.66 289.566,1328.66 
  "/>
<path clip-path="url(#clip742)" d="
M289.566 1212.3 L289.566 1279.01 L405.687 1279.01 L405.687 1212.3 L289.566 1212.3 L289.566 1212.3  Z
  " fill="#009af9" fill-rule="evenodd" fill-opacity="1"/>
<polyline clip-path="url(#clip742)" style="stroke:#000000; stroke-width:4; stroke-opacity:1; fill:none" points="
  289.566,1212.3 289.566,1279.01 405.687,1279.01 405.687,1212.3 289.566,1212.3 
  "/>
<path clip-path="url(#clip742)" d="
M347.626 1062.89 L289.566 1062.89 L405.687 1062.89 L347.626 1062.89 L347.626 1212.3 L347.626 1062.89  Z
  " fill="#009af9" fill-rule="evenodd" fill-opacity="1"/>
<polyline clip-path="url(#clip742)" style="stroke:#000000; stroke-width:4; stroke-opacity:1; fill:none" points="
  347.626,1062.89 289.566,1062.89 405.687,1062.89 347.626,1062.89 347.626,1212.3 347.626,1062.89 
  "/>
<circle clip-path="url(#clip742)" cx="347.626" cy="286.493" r="14" fill="#009af9" fill-rule="evenodd" fill-opacity="1" stroke="#000000" stroke-opacity="1" stroke-width="3.2"/>
<circle clip-path="url(#clip742)" cx="347.626" cy="832.884" r="14" fill="#009af9" fill-rule="evenodd" fill-opacity="1" stroke="#000000" stroke-opacity="1" stroke-width="3.2"/>
<circle clip-path="url(#clip742)" cx="347.626" cy="750.534" r="14" fill="#009af9" fill-rule="evenodd" fill-opacity="1" stroke="#000000" stroke-opacity="1" stroke-width="3.2"/>
<circle clip-path="url(#clip742)" cx="347.626" cy="265.352" r="14" fill="#009af9" fill-rule="evenodd" fill-opacity="1" stroke="#000000" stroke-opacity="1" stroke-width="3.2"/>
<circle clip-path="url(#clip742)" cx="347.626" cy="833.598" r="14" fill="#009af9" fill-rule="evenodd" fill-opacity="1" stroke="#000000" stroke-opacity="1" stroke-width="3.2"/>
<circle clip-path="url(#clip742)" cx="347.626" cy="805.785" r="14" fill="#009af9" fill-rule="evenodd" fill-opacity="1" stroke="#000000" stroke-opacity="1" stroke-width="3.2"/>
<polyline clip-path="url(#clip742)" style="stroke:#009af9; stroke-width:0; stroke-opacity:1; fill:none" points="
  347.626,1386.4 289.566,1386.4 405.687,1386.4 347.626,1386.4 347.626,1328.66 
  "/>
<polyline clip-path="url(#clip742)" style="stroke:#009af9; stroke-width:0; stroke-opacity:1; fill:none" points="
  289.566,1328.66 289.566,1279.01 347.626,1279.01 405.687,1279.01 405.687,1328.66 289.566,1328.66 
  "/>
<polyline clip-path="url(#clip742)" style="stroke:#009af9; stroke-width:0; stroke-opacity:1; fill:none" points="
  289.566,1212.3 289.566,1279.01 405.687,1279.01 405.687,1212.3 289.566,1212.3 
  "/>
<polyline clip-path="url(#clip742)" style="stroke:#009af9; stroke-width:0; stroke-opacity:1; fill:none" points="
  347.626,1062.89 289.566,1062.89 405.687,1062.89 347.626,1062.89 347.626,1212.3 
  "/>
<path clip-path="url(#clip742)" d="
M492.778 1357.55 L434.718 1357.55 L550.839 1357.55 L492.778 1357.55 L492.778 1199.35 L492.778 1357.55  Z
  " fill="#e26f46" fill-rule="evenodd" fill-opacity="1"/>
<polyline clip-path="url(#clip742)" style="stroke:#000000; stroke-width:4; stroke-opacity:1; fill:none" points="
  492.778,1357.55 434.718,1357.55 550.839,1357.55 492.778,1357.55 492.778,1199.35 492.778,1357.55 
  "/>
<path clip-path="url(#clip742)" d="
M434.718 1199.35 L434.718 1101.6 L492.778 1101.6 L550.839 1101.6 L550.839 1199.35 L434.718 1199.35 L434.718 1199.35  Z
  " fill="#e26f46" fill-rule="evenodd" fill-opacity="1"/>
<polyline clip-path="url(#clip742)" style="stroke:#000000; stroke-width:4; stroke-opacity:1; fill:none" points="
  434.718,1199.35 434.718,1101.6 492.778,1101.6 550.839,1101.6 550.839,1199.35 434.718,1199.35 
  "/>
<path clip-path="url(#clip742)" d="
M434.718 1051.92 L434.718 1101.6 L550.839 1101.6 L550.839 1051.92 L434.718 1051.92 L434.718 1051.92  Z
  " fill="#e26f46" fill-rule="evenodd" fill-opacity="1"/>
<polyline clip-path="url(#clip742)" style="stroke:#000000; stroke-width:4; stroke-opacity:1; fill:none" points="
  434.718,1051.92 434.718,1101.6 550.839,1101.6 550.839,1051.92 434.718,1051.92 
  "/>
<path clip-path="url(#clip742)" d="
M492.778 842.479 L434.718 842.479 L550.839 842.479 L492.778 842.479 L492.778 1051.92 L492.778 842.479  Z
  " fill="#e26f46" fill-rule="evenodd" fill-opacity="1"/>
<polyline clip-path="url(#clip742)" style="stroke:#000000; stroke-width:4; stroke-opacity:1; fill:none" points="
  492.778,842.479 434.718,842.479 550.839,842.479 492.778,842.479 492.778,1051.92 492.778,842.479 
  "/>
<circle clip-path="url(#clip742)" cx="492.778" cy="829.803" r="14" fill="#e26f46" fill-rule="evenodd" fill-opacity="1" stroke="#000000" stroke-opacity="1" stroke-width="3.2"/>
<circle clip-path="url(#clip742)" cx="492.778" cy="774.6" r="14" fill="#e26f46" fill-rule="evenodd" fill-opacity="1" stroke="#000000" stroke-opacity="1" stroke-width="3.2"/>
<circle clip-path="url(#clip742)" cx="492.778" cy="540.308" r="14" fill="#e26f46" fill-rule="evenodd" fill-opacity="1" stroke="#000000" stroke-opacity="1" stroke-width="3.2"/>
<circle clip-path="url(#clip742)" cx="492.778" cy="809.544" r="14" fill="#e26f46" fill-rule="evenodd" fill-opacity="1" stroke="#000000" stroke-opacity="1" stroke-width="3.2"/>
<circle clip-path="url(#clip742)" cx="492.778" cy="815.761" r="14" fill="#e26f46" fill-rule="evenodd" fill-opacity="1" stroke="#000000" stroke-opacity="1" stroke-width="3.2"/>
<polyline clip-path="url(#clip742)" style="stroke:#e26f46; stroke-width:0; stroke-opacity:1; fill:none" points="
  492.778,1357.55 434.718,1357.55 550.839,1357.55 492.778,1357.55 492.778,1199.35 
  "/>
<polyline clip-path="url(#clip742)" style="stroke:#e26f46; stroke-width:0; stroke-opacity:1; fill:none" points="
  434.718,1199.35 434.718,1101.6 492.778,1101.6 550.839,1101.6 550.839,1199.35 434.718,1199.35 
  "/>
<polyline clip-path="url(#clip742)" style="stroke:#e26f46; stroke-width:0; stroke-opacity:1; fill:none" points="
  434.718,1051.92 434.718,1101.6 550.839,1101.6 550.839,1051.92 434.718,1051.92 
  "/>
<polyline clip-path="url(#clip742)" style="stroke:#e26f46; stroke-width:0; stroke-opacity:1; fill:none" points="
  492.778,842.479 434.718,842.479 550.839,842.479 492.778,842.479 492.778,1051.92 
  "/>
<path clip-path="url(#clip742)" d="
M637.93 1380.79 L579.87 1380.79 L695.991 1380.79 L637.93 1380.79 L637.93 1316.38 L637.93 1380.79  Z
  " fill="#3da44d" fill-rule="evenodd" fill-opacity="1"/>
<polyline clip-path="url(#clip742)" style="stroke:#000000; stroke-width:4; stroke-opacity:1; fill:none" points="
  637.93,1380.79 579.87,1380.79 695.991,1380.79 637.93,1380.79 637.93,1316.38 637.93,1380.79 
  "/>
<path clip-path="url(#clip742)" d="
M579.87 1316.38 L579.87 1209.88 L637.93 1209.88 L695.991 1209.88 L695.991 1316.38 L579.87 1316.38 L579.87 1316.38  Z
  " fill="#3da44d" fill-rule="evenodd" fill-opacity="1"/>
<polyline clip-path="url(#clip742)" style="stroke:#000000; stroke-width:4; stroke-opacity:1; fill:none" points="
  579.87,1316.38 579.87,1209.88 637.93,1209.88 695.991,1209.88 695.991,1316.38 579.87,1316.38 
  "/>
<path clip-path="url(#clip742)" d="
M579.87 1042.71 L579.87 1209.88 L695.991 1209.88 L695.991 1042.71 L579.87 1042.71 L579.87 1042.71  Z
  " fill="#3da44d" fill-rule="evenodd" fill-opacity="1"/>
<polyline clip-path="url(#clip742)" style="stroke:#000000; stroke-width:4; stroke-opacity:1; fill:none" points="
  579.87,1042.71 579.87,1209.88 695.991,1209.88 695.991,1042.71 579.87,1042.71 
  "/>
<path clip-path="url(#clip742)" d="
M637.93 723.686 L579.87 723.686 L695.991 723.686 L637.93 723.686 L637.93 1042.71 L637.93 723.686  Z
  " fill="#3da44d" fill-rule="evenodd" fill-opacity="1"/>
<polyline clip-path="url(#clip742)" style="stroke:#000000; stroke-width:4; stroke-opacity:1; fill:none" points="
  637.93,723.686 579.87,723.686 695.991,723.686 637.93,723.686 637.93,1042.71 637.93,723.686 
  "/>
<circle clip-path="url(#clip742)" cx="637.93" cy="496.955" r="14" fill="#3da44d" fill-rule="evenodd" fill-opacity="1" stroke="#000000" stroke-opacity="1" stroke-width="3.2"/>
<circle clip-path="url(#clip742)" cx="637.93" cy="432.405" r="14" fill="#3da44d" fill-rule="evenodd" fill-opacity="1" stroke="#000000" stroke-opacity="1" stroke-width="3.2"/>
<polyline clip-path="url(#clip742)" style="stroke:#3da44d; stroke-width:0; stroke-opacity:1; fill:none" points="
  637.93,1380.79 579.87,1380.79 695.991,1380.79 637.93,1380.79 637.93,1316.38 
  "/>
<polyline clip-path="url(#clip742)" style="stroke:#3da44d; stroke-width:0; stroke-opacity:1; fill:none" points="
  579.87,1316.38 579.87,1209.88 637.93,1209.88 695.991,1209.88 695.991,1316.38 579.87,1316.38 
  "/>
<polyline clip-path="url(#clip742)" style="stroke:#3da44d; stroke-width:0; stroke-opacity:1; fill:none" points="
  579.87,1042.71 579.87,1209.88 695.991,1209.88 695.991,1042.71 579.87,1042.71 
  "/>
<polyline clip-path="url(#clip742)" style="stroke:#3da44d; stroke-width:0; stroke-opacity:1; fill:none" points="
  637.93,723.686 579.87,723.686 695.991,723.686 637.93,723.686 637.93,1042.71 
  "/>
<path clip-path="url(#clip742)" d="
M783.082 1349.55 L725.022 1349.55 L841.143 1349.55 L783.082 1349.55 L783.082 1270.98 L783.082 1349.55  Z
  " fill="#c271d2" fill-rule="evenodd" fill-opacity="1"/>
<polyline clip-path="url(#clip742)" style="stroke:#000000; stroke-width:4; stroke-opacity:1; fill:none" points="
  783.082,1349.55 725.022,1349.55 841.143,1349.55 783.082,1349.55 783.082,1270.98 783.082,1349.55 
  "/>
<path clip-path="url(#clip742)" d="
M725.022 1270.98 L725.022 1219.93 L783.082 1219.93 L841.143 1219.93 L841.143 1270.98 L725.022 1270.98 L725.022 1270.98  Z
  " fill="#c271d2" fill-rule="evenodd" fill-opacity="1"/>
<polyline clip-path="url(#clip742)" style="stroke:#000000; stroke-width:4; stroke-opacity:1; fill:none" points="
  725.022,1270.98 725.022,1219.93 783.082,1219.93 841.143,1219.93 841.143,1270.98 725.022,1270.98 
  "/>
<path clip-path="url(#clip742)" d="
M725.022 1155.35 L725.022 1219.93 L841.143 1219.93 L841.143 1155.35 L725.022 1155.35 L725.022 1155.35  Z
  " fill="#c271d2" fill-rule="evenodd" fill-opacity="1"/>
<polyline clip-path="url(#clip742)" style="stroke:#000000; stroke-width:4; stroke-opacity:1; fill:none" points="
  725.022,1155.35 725.022,1219.93 841.143,1219.93 841.143,1155.35 725.022,1155.35 
  "/>
<path clip-path="url(#clip742)" d="
M783.082 982.234 L725.022 982.234 L841.143 982.234 L783.082 982.234 L783.082 1155.35 L783.082 982.234  Z
  " fill="#c271d2" fill-rule="evenodd" fill-opacity="1"/>
<polyline clip-path="url(#clip742)" style="stroke:#000000; stroke-width:4; stroke-opacity:1; fill:none" points="
  783.082,982.234 725.022,982.234 841.143,982.234 783.082,982.234 783.082,1155.35 783.082,982.234 
  "/>
<circle clip-path="url(#clip742)" cx="783.082" cy="931.823" r="14" fill="#c271d2" fill-rule="evenodd" fill-opacity="1" stroke="#000000" stroke-opacity="1" stroke-width="3.2"/>
<circle clip-path="url(#clip742)" cx="783.082" cy="841.887" r="14" fill="#c271d2" fill-rule="evenodd" fill-opacity="1" stroke="#000000" stroke-opacity="1" stroke-width="3.2"/>
<circle clip-path="url(#clip742)" cx="783.082" cy="976.827" r="14" fill="#c271d2" fill-rule="evenodd" fill-opacity="1" stroke="#000000" stroke-opacity="1" stroke-width="3.2"/>
<circle clip-path="url(#clip742)" cx="783.082" cy="880.748" r="14" fill="#c271d2" fill-rule="evenodd" fill-opacity="1" stroke="#000000" stroke-opacity="1" stroke-width="3.2"/>
<circle clip-path="url(#clip742)" cx="783.082" cy="945.992" r="14" fill="#c271d2" fill-rule="evenodd" fill-opacity="1" stroke="#000000" stroke-opacity="1" stroke-width="3.2"/>
<circle clip-path="url(#clip742)" cx="783.082" cy="925.119" r="14" fill="#c271d2" fill-rule="evenodd" fill-opacity="1" stroke="#000000" stroke-opacity="1" stroke-width="3.2"/>
<polyline clip-path="url(#clip742)" style="stroke:#c271d2; stroke-width:0; stroke-opacity:1; fill:none" points="
  783.082,1349.55 725.022,1349.55 841.143,1349.55 783.082,1349.55 783.082,1270.98 
  "/>
<polyline clip-path="url(#clip742)" style="stroke:#c271d2; stroke-width:0; stroke-opacity:1; fill:none" points="
  725.022,1270.98 725.022,1219.93 783.082,1219.93 841.143,1219.93 841.143,1270.98 725.022,1270.98 
  "/>
<polyline clip-path="url(#clip742)" style="stroke:#c271d2; stroke-width:0; stroke-opacity:1; fill:none" points="
  725.022,1155.35 725.022,1219.93 841.143,1219.93 841.143,1155.35 725.022,1155.35 
  "/>
<polyline clip-path="url(#clip742)" style="stroke:#c271d2; stroke-width:0; stroke-opacity:1; fill:none" points="
  783.082,982.234 725.022,982.234 841.143,982.234 783.082,982.234 783.082,1155.35 
  "/>
<path clip-path="url(#clip742)" d="
M928.234 1368.27 L870.174 1368.27 L986.295 1368.27 L928.234 1368.27 L928.234 1166.06 L928.234 1368.27  Z
  " fill="#ac8d18" fill-rule="evenodd" fill-opacity="1"/>
<polyline clip-path="url(#clip742)" style="stroke:#000000; stroke-width:4; stroke-opacity:1; fill:none" points="
  928.234,1368.27 870.174,1368.27 986.295,1368.27 928.234,1368.27 928.234,1166.06 928.234,1368.27 
  "/>
<path clip-path="url(#clip742)" d="
M870.174 1166.06 L870.174 1027.48 L928.234 1027.48 L986.295 1027.48 L986.295 1166.06 L870.174 1166.06 L870.174 1166.06  Z
  " fill="#ac8d18" fill-rule="evenodd" fill-opacity="1"/>
<polyline clip-path="url(#clip742)" style="stroke:#000000; stroke-width:4; stroke-opacity:1; fill:none" points="
  870.174,1166.06 870.174,1027.48 928.234,1027.48 986.295,1027.48 986.295,1166.06 870.174,1166.06 
  "/>
<path clip-path="url(#clip742)" d="
M870.174 907.437 L870.174 1027.48 L986.295 1027.48 L986.295 907.437 L870.174 907.437 L870.174 907.437  Z
  " fill="#ac8d18" fill-rule="evenodd" fill-opacity="1"/>
<polyline clip-path="url(#clip742)" style="stroke:#000000; stroke-width:4; stroke-opacity:1; fill:none" points="
  870.174,907.437 870.174,1027.48 986.295,1027.48 986.295,907.437 870.174,907.437 
  "/>
<path clip-path="url(#clip742)" d="
M928.234 532.993 L870.174 532.993 L986.295 532.993 L928.234 532.993 L928.234 907.437 L928.234 532.993  Z
  " fill="#ac8d18" fill-rule="evenodd" fill-opacity="1"/>
<polyline clip-path="url(#clip742)" style="stroke:#000000; stroke-width:4; stroke-opacity:1; fill:none" points="
  928.234,532.993 870.174,532.993 986.295,532.993 928.234,532.993 928.234,907.437 928.234,532.993 
  "/>
<circle clip-path="url(#clip742)" cx="928.234" cy="213.448" r="14" fill="#ac8d18" fill-rule="evenodd" fill-opacity="1" stroke="#000000" stroke-opacity="1" stroke-width="3.2"/>
<circle clip-path="url(#clip742)" cx="928.234" cy="468.064" r="14" fill="#ac8d18" fill-rule="evenodd" fill-opacity="1" stroke="#000000" stroke-opacity="1" stroke-width="3.2"/>
<circle clip-path="url(#clip742)" cx="928.234" cy="225.368" r="14" fill="#ac8d18" fill-rule="evenodd" fill-opacity="1" stroke="#000000" stroke-opacity="1" stroke-width="3.2"/>
<circle clip-path="url(#clip742)" cx="928.234" cy="160.256" r="14" fill="#ac8d18" fill-rule="evenodd" fill-opacity="1" stroke="#000000" stroke-opacity="1" stroke-width="3.2"/>
<circle clip-path="url(#clip742)" cx="928.234" cy="431.793" r="14" fill="#ac8d18" fill-rule="evenodd" fill-opacity="1" stroke="#000000" stroke-opacity="1" stroke-width="3.2"/>
<circle clip-path="url(#clip742)" cx="928.234" cy="191.634" r="14" fill="#ac8d18" fill-rule="evenodd" fill-opacity="1" stroke="#000000" stroke-opacity="1" stroke-width="3.2"/>
<polyline clip-path="url(#clip742)" style="stroke:#ac8d18; stroke-width:0; stroke-opacity:1; fill:none" points="
  928.234,1368.27 870.174,1368.27 986.295,1368.27 928.234,1368.27 928.234,1166.06 
  "/>
<polyline clip-path="url(#clip742)" style="stroke:#ac8d18; stroke-width:0; stroke-opacity:1; fill:none" points="
  870.174,1166.06 870.174,1027.48 928.234,1027.48 986.295,1027.48 986.295,1166.06 870.174,1166.06 
  "/>
<polyline clip-path="url(#clip742)" style="stroke:#ac8d18; stroke-width:0; stroke-opacity:1; fill:none" points="
  870.174,907.437 870.174,1027.48 986.295,1027.48 986.295,907.437 870.174,907.437 
  "/>
<polyline clip-path="url(#clip742)" style="stroke:#ac8d18; stroke-width:0; stroke-opacity:1; fill:none" points="
  928.234,532.993 870.174,532.993 986.295,532.993 928.234,532.993 928.234,907.437 
  "/>
<path clip-path="url(#clip742)" d="
M1073.39 1380.45 L1015.33 1380.45 L1131.45 1380.45 L1073.39 1380.45 L1073.39 1274.37 L1073.39 1380.45  Z
  " fill="#00a9ad" fill-rule="evenodd" fill-opacity="1"/>
<polyline clip-path="url(#clip742)" style="stroke:#000000; stroke-width:4; stroke-opacity:1; fill:none" points="
  1073.39,1380.45 1015.33,1380.45 1131.45,1380.45 1073.39,1380.45 1073.39,1274.37 1073.39,1380.45 
  "/>
<path clip-path="url(#clip742)" d="
M1015.33 1274.37 L1015.33 1214.51 L1073.39 1214.51 L1131.45 1214.51 L1131.45 1274.37 L1015.33 1274.37 L1015.33 1274.37  Z
  " fill="#00a9ad" fill-rule="evenodd" fill-opacity="1"/>
<polyline clip-path="url(#clip742)" style="stroke:#000000; stroke-width:4; stroke-opacity:1; fill:none" points="
  1015.33,1274.37 1015.33,1214.51 1073.39,1214.51 1131.45,1214.51 1131.45,1274.37 1015.33,1274.37 
  "/>
<path clip-path="url(#clip742)" d="
M1015.33 1154.41 L1015.33 1214.51 L1131.45 1214.51 L1131.45 1154.41 L1015.33 1154.41 L1015.33 1154.41  Z
  " fill="#00a9ad" fill-rule="evenodd" fill-opacity="1"/>
<polyline clip-path="url(#clip742)" style="stroke:#000000; stroke-width:4; stroke-opacity:1; fill:none" points="
  1015.33,1154.41 1015.33,1214.51 1131.45,1214.51 1131.45,1154.41 1015.33,1154.41 
  "/>
<path clip-path="url(#clip742)" d="
M1073.39 976.599 L1015.33 976.599 L1131.45 976.599 L1073.39 976.599 L1073.39 1154.41 L1073.39 976.599  Z
  " fill="#00a9ad" fill-rule="evenodd" fill-opacity="1"/>
<polyline clip-path="url(#clip742)" style="stroke:#000000; stroke-width:4; stroke-opacity:1; fill:none" points="
  1073.39,976.599 1015.33,976.599 1131.45,976.599 1073.39,976.599 1073.39,1154.41 1073.39,976.599 
  "/>
<circle clip-path="url(#clip742)" cx="1073.39" cy="967.287" r="14" fill="#00a9ad" fill-rule="evenodd" fill-opacity="1" stroke="#000000" stroke-opacity="1" stroke-width="3.2"/>
<circle clip-path="url(#clip742)" cx="1073.39" cy="911.896" r="14" fill="#00a9ad" fill-rule="evenodd" fill-opacity="1" stroke="#000000" stroke-opacity="1" stroke-width="3.2"/>
<circle clip-path="url(#clip742)" cx="1073.39" cy="624.751" r="14" fill="#00a9ad" fill-rule="evenodd" fill-opacity="1" stroke="#000000" stroke-opacity="1" stroke-width="3.2"/>
<circle clip-path="url(#clip742)" cx="1073.39" cy="459.739" r="14" fill="#00a9ad" fill-rule="evenodd" fill-opacity="1" stroke="#000000" stroke-opacity="1" stroke-width="3.2"/>
<circle clip-path="url(#clip742)" cx="1073.39" cy="701.268" r="14" fill="#00a9ad" fill-rule="evenodd" fill-opacity="1" stroke="#000000" stroke-opacity="1" stroke-width="3.2"/>
<polyline clip-path="url(#clip742)" style="stroke:#00a9ad; stroke-width:0; stroke-opacity:1; fill:none" points="
  1073.39,1380.45 1015.33,1380.45 1131.45,1380.45 1073.39,1380.45 1073.39,1274.37 
  "/>
<polyline clip-path="url(#clip742)" style="stroke:#00a9ad; stroke-width:0; stroke-opacity:1; fill:none" points="
  1015.33,1274.37 1015.33,1214.51 1073.39,1214.51 1131.45,1214.51 1131.45,1274.37 1015.33,1274.37 
  "/>
<polyline clip-path="url(#clip742)" style="stroke:#00a9ad; stroke-width:0; stroke-opacity:1; fill:none" points="
  1015.33,1154.41 1015.33,1214.51 1131.45,1214.51 1131.45,1154.41 1015.33,1154.41 
  "/>
<polyline clip-path="url(#clip742)" style="stroke:#00a9ad; stroke-width:0; stroke-opacity:1; fill:none" points="
  1073.39,976.599 1015.33,976.599 1131.45,976.599 1073.39,976.599 1073.39,1154.41 
  "/>
<path clip-path="url(#clip742)" d="
M1218.54 1376.11 L1160.48 1376.11 L1276.6 1376.11 L1218.54 1376.11 L1218.54 1296.75 L1218.54 1376.11  Z
  " fill="#ed5d92" fill-rule="evenodd" fill-opacity="1"/>
<polyline clip-path="url(#clip742)" style="stroke:#000000; stroke-width:4; stroke-opacity:1; fill:none" points="
  1218.54,1376.11 1160.48,1376.11 1276.6,1376.11 1218.54,1376.11 1218.54,1296.75 1218.54,1376.11 
  "/>
<path clip-path="url(#clip742)" d="
M1160.48 1296.75 L1160.48 1255.39 L1218.54 1255.39 L1276.6 1255.39 L1276.6 1296.75 L1160.48 1296.75 L1160.48 1296.75  Z
  " fill="#ed5d92" fill-rule="evenodd" fill-opacity="1"/>
<polyline clip-path="url(#clip742)" style="stroke:#000000; stroke-width:4; stroke-opacity:1; fill:none" points="
  1160.48,1296.75 1160.48,1255.39 1218.54,1255.39 1276.6,1255.39 1276.6,1296.75 1160.48,1296.75 
  "/>
<path clip-path="url(#clip742)" d="
M1160.48 1215.71 L1160.48 1255.39 L1276.6 1255.39 L1276.6 1215.71 L1160.48 1215.71 L1160.48 1215.71  Z
  " fill="#ed5d92" fill-rule="evenodd" fill-opacity="1"/>
<polyline clip-path="url(#clip742)" style="stroke:#000000; stroke-width:4; stroke-opacity:1; fill:none" points="
  1160.48,1215.71 1160.48,1255.39 1276.6,1255.39 1276.6,1215.71 1160.48,1215.71 
  "/>
<path clip-path="url(#clip742)" d="
M1218.54 1101.2 L1160.48 1101.2 L1276.6 1101.2 L1218.54 1101.2 L1218.54 1215.71 L1218.54 1101.2  Z
  " fill="#ed5d92" fill-rule="evenodd" fill-opacity="1"/>
<polyline clip-path="url(#clip742)" style="stroke:#000000; stroke-width:4; stroke-opacity:1; fill:none" points="
  1218.54,1101.2 1160.48,1101.2 1276.6,1101.2 1218.54,1101.2 1218.54,1215.71 1218.54,1101.2 
  "/>
<circle clip-path="url(#clip742)" cx="1218.54" cy="1072.61" r="14" fill="#ed5d92" fill-rule="evenodd" fill-opacity="1" stroke="#000000" stroke-opacity="1" stroke-width="3.2"/>
<circle clip-path="url(#clip742)" cx="1218.54" cy="1086.58" r="14" fill="#ed5d92" fill-rule="evenodd" fill-opacity="1" stroke="#000000" stroke-opacity="1" stroke-width="3.2"/>
<circle clip-path="url(#clip742)" cx="1218.54" cy="1073.38" r="14" fill="#ed5d92" fill-rule="evenodd" fill-opacity="1" stroke="#000000" stroke-opacity="1" stroke-width="3.2"/>
<circle clip-path="url(#clip742)" cx="1218.54" cy="1050.51" r="14" fill="#ed5d92" fill-rule="evenodd" fill-opacity="1" stroke="#000000" stroke-opacity="1" stroke-width="3.2"/>
<circle clip-path="url(#clip742)" cx="1218.54" cy="964.489" r="14" fill="#ed5d92" fill-rule="evenodd" fill-opacity="1" stroke="#000000" stroke-opacity="1" stroke-width="3.2"/>
<circle clip-path="url(#clip742)" cx="1218.54" cy="1087.41" r="14" fill="#ed5d92" fill-rule="evenodd" fill-opacity="1" stroke="#000000" stroke-opacity="1" stroke-width="3.2"/>
<polyline clip-path="url(#clip742)" style="stroke:#ed5d92; stroke-width:0; stroke-opacity:1; fill:none" points="
  1218.54,1376.11 1160.48,1376.11 1276.6,1376.11 1218.54,1376.11 1218.54,1296.75 
  "/>
<polyline clip-path="url(#clip742)" style="stroke:#ed5d92; stroke-width:0; stroke-opacity:1; fill:none" points="
  1160.48,1296.75 1160.48,1255.39 1218.54,1255.39 1276.6,1255.39 1276.6,1296.75 1160.48,1296.75 
  "/>
<polyline clip-path="url(#clip742)" style="stroke:#ed5d92; stroke-width:0; stroke-opacity:1; fill:none" points="
  1160.48,1215.71 1160.48,1255.39 1276.6,1255.39 1276.6,1215.71 1160.48,1215.71 
  "/>
<polyline clip-path="url(#clip742)" style="stroke:#ed5d92; stroke-width:0; stroke-opacity:1; fill:none" points="
  1218.54,1101.2 1160.48,1101.2 1276.6,1101.2 1218.54,1101.2 1218.54,1215.71 
  "/>
<path clip-path="url(#clip742)" d="
M1363.69 1362.71 L1305.63 1362.71 L1421.75 1362.71 L1363.69 1362.71 L1363.69 1309.86 L1363.69 1362.71  Z
  " fill="#c68125" fill-rule="evenodd" fill-opacity="1"/>
<polyline clip-path="url(#clip742)" style="stroke:#000000; stroke-width:4; stroke-opacity:1; fill:none" points="
  1363.69,1362.71 1305.63,1362.71 1421.75,1362.71 1363.69,1362.71 1363.69,1309.86 1363.69,1362.71 
  "/>
<path clip-path="url(#clip742)" d="
M1305.63 1309.86 L1305.63 1292.01 L1363.69 1292.01 L1421.75 1292.01 L1421.75 1309.86 L1305.63 1309.86 L1305.63 1309.86  Z
  " fill="#c68125" fill-rule="evenodd" fill-opacity="1"/>
<polyline clip-path="url(#clip742)" style="stroke:#000000; stroke-width:4; stroke-opacity:1; fill:none" points="
  1305.63,1309.86 1305.63,1292.01 1363.69,1292.01 1421.75,1292.01 1421.75,1309.86 1305.63,1309.86 
  "/>
<path clip-path="url(#clip742)" d="
M1305.63 1260.8 L1305.63 1292.01 L1421.75 1292.01 L1421.75 1260.8 L1305.63 1260.8 L1305.63 1260.8  Z
  " fill="#c68125" fill-rule="evenodd" fill-opacity="1"/>
<polyline clip-path="url(#clip742)" style="stroke:#000000; stroke-width:4; stroke-opacity:1; fill:none" points="
  1305.63,1260.8 1305.63,1292.01 1421.75,1292.01 1421.75,1260.8 1305.63,1260.8 
  "/>
<path clip-path="url(#clip742)" d="
M1363.69 1188.81 L1305.63 1188.81 L1421.75 1188.81 L1363.69 1188.81 L1363.69 1260.8 L1363.69 1188.81  Z
  " fill="#c68125" fill-rule="evenodd" fill-opacity="1"/>
<polyline clip-path="url(#clip742)" style="stroke:#000000; stroke-width:4; stroke-opacity:1; fill:none" points="
  1363.69,1188.81 1305.63,1188.81 1421.75,1188.81 1363.69,1188.81 1363.69,1260.8 1363.69,1188.81 
  "/>
<circle clip-path="url(#clip742)" cx="1363.69" cy="1164.02" r="14" fill="#c68125" fill-rule="evenodd" fill-opacity="1" stroke="#000000" stroke-opacity="1" stroke-width="3.2"/>
<circle clip-path="url(#clip742)" cx="1363.69" cy="1176.69" r="14" fill="#c68125" fill-rule="evenodd" fill-opacity="1" stroke="#000000" stroke-opacity="1" stroke-width="3.2"/>
<circle clip-path="url(#clip742)" cx="1363.69" cy="1114.34" r="14" fill="#c68125" fill-rule="evenodd" fill-opacity="1" stroke="#000000" stroke-opacity="1" stroke-width="3.2"/>
<circle clip-path="url(#clip742)" cx="1363.69" cy="1111.66" r="14" fill="#c68125" fill-rule="evenodd" fill-opacity="1" stroke="#000000" stroke-opacity="1" stroke-width="3.2"/>
<circle clip-path="url(#clip742)" cx="1363.69" cy="1091.68" r="14" fill="#c68125" fill-rule="evenodd" fill-opacity="1" stroke="#000000" stroke-opacity="1" stroke-width="3.2"/>
<circle clip-path="url(#clip742)" cx="1363.69" cy="1152.2" r="14" fill="#c68125" fill-rule="evenodd" fill-opacity="1" stroke="#000000" stroke-opacity="1" stroke-width="3.2"/>
<circle clip-path="url(#clip742)" cx="1363.69" cy="1178.2" r="14" fill="#c68125" fill-rule="evenodd" fill-opacity="1" stroke="#000000" stroke-opacity="1" stroke-width="3.2"/>
<circle clip-path="url(#clip742)" cx="1363.69" cy="1106.35" r="14" fill="#c68125" fill-rule="evenodd" fill-opacity="1" stroke="#000000" stroke-opacity="1" stroke-width="3.2"/>
<circle clip-path="url(#clip742)" cx="1363.69" cy="1007.08" r="14" fill="#c68125" fill-rule="evenodd" fill-opacity="1" stroke="#000000" stroke-opacity="1" stroke-width="3.2"/>
<circle clip-path="url(#clip742)" cx="1363.69" cy="1131.87" r="14" fill="#c68125" fill-rule="evenodd" fill-opacity="1" stroke="#000000" stroke-opacity="1" stroke-width="3.2"/>
<circle clip-path="url(#clip742)" cx="1363.69" cy="1181.63" r="14" fill="#c68125" fill-rule="evenodd" fill-opacity="1" stroke="#000000" stroke-opacity="1" stroke-width="3.2"/>
<circle clip-path="url(#clip742)" cx="1363.69" cy="1159.09" r="14" fill="#c68125" fill-rule="evenodd" fill-opacity="1" stroke="#000000" stroke-opacity="1" stroke-width="3.2"/>
<circle clip-path="url(#clip742)" cx="1363.69" cy="1058.34" r="14" fill="#c68125" fill-rule="evenodd" fill-opacity="1" stroke="#000000" stroke-opacity="1" stroke-width="3.2"/>
<polyline clip-path="url(#clip742)" style="stroke:#c68125; stroke-width:0; stroke-opacity:1; fill:none" points="
  1363.69,1362.71 1305.63,1362.71 1421.75,1362.71 1363.69,1362.71 1363.69,1309.86 
  "/>
<polyline clip-path="url(#clip742)" style="stroke:#c68125; stroke-width:0; stroke-opacity:1; fill:none" points="
  1305.63,1309.86 1305.63,1292.01 1363.69,1292.01 1421.75,1292.01 1421.75,1309.86 1305.63,1309.86 
  "/>
<polyline clip-path="url(#clip742)" style="stroke:#c68125; stroke-width:0; stroke-opacity:1; fill:none" points="
  1305.63,1260.8 1305.63,1292.01 1421.75,1292.01 1421.75,1260.8 1305.63,1260.8 
  "/>
<polyline clip-path="url(#clip742)" style="stroke:#c68125; stroke-width:0; stroke-opacity:1; fill:none" points="
  1363.69,1188.81 1305.63,1188.81 1421.75,1188.81 1363.69,1188.81 1363.69,1260.8 
  "/>
<path clip-path="url(#clip742)" d="
M1508.84 1359.39 L1450.78 1359.39 L1566.9 1359.39 L1508.84 1359.39 L1508.84 1245.66 L1508.84 1359.39  Z
  " fill="#00a98d" fill-rule="evenodd" fill-opacity="1"/>
<polyline clip-path="url(#clip742)" style="stroke:#000000; stroke-width:4; stroke-opacity:1; fill:none" points="
  1508.84,1359.39 1450.78,1359.39 1566.9,1359.39 1508.84,1359.39 1508.84,1245.66 1508.84,1359.39 
  "/>
<path clip-path="url(#clip742)" d="
M1450.78 1245.66 L1450.78 1180.47 L1508.84 1180.47 L1566.9 1180.47 L1566.9 1245.66 L1450.78 1245.66 L1450.78 1245.66  Z
  " fill="#00a98d" fill-rule="evenodd" fill-opacity="1"/>
<polyline clip-path="url(#clip742)" style="stroke:#000000; stroke-width:4; stroke-opacity:1; fill:none" points="
  1450.78,1245.66 1450.78,1180.47 1508.84,1180.47 1566.9,1180.47 1566.9,1245.66 1450.78,1245.66 
  "/>
<path clip-path="url(#clip742)" d="
M1450.78 1099.45 L1450.78 1180.47 L1566.9 1180.47 L1566.9 1099.45 L1450.78 1099.45 L1450.78 1099.45  Z
  " fill="#00a98d" fill-rule="evenodd" fill-opacity="1"/>
<polyline clip-path="url(#clip742)" style="stroke:#000000; stroke-width:4; stroke-opacity:1; fill:none" points="
  1450.78,1099.45 1450.78,1180.47 1566.9,1180.47 1566.9,1099.45 1450.78,1099.45 
  "/>
<path clip-path="url(#clip742)" d="
M1508.84 908.062 L1450.78 908.062 L1566.9 908.062 L1508.84 908.062 L1508.84 1099.45 L1508.84 908.062  Z
  " fill="#00a98d" fill-rule="evenodd" fill-opacity="1"/>
<polyline clip-path="url(#clip742)" style="stroke:#000000; stroke-width:4; stroke-opacity:1; fill:none" points="
  1508.84,908.062 1450.78,908.062 1566.9,908.062 1508.84,908.062 1508.84,1099.45 1508.84,908.062 
  "/>
<circle clip-path="url(#clip742)" cx="1508.84" cy="852.534" r="14" fill="#00a98d" fill-rule="evenodd" fill-opacity="1" stroke="#000000" stroke-opacity="1" stroke-width="3.2"/>
<polyline clip-path="url(#clip742)" style="stroke:#00a98d; stroke-width:0; stroke-opacity:1; fill:none" points="
  1508.84,1359.39 1450.78,1359.39 1566.9,1359.39 1508.84,1359.39 1508.84,1245.66 
  "/>
<polyline clip-path="url(#clip742)" style="stroke:#00a98d; stroke-width:0; stroke-opacity:1; fill:none" points="
  1450.78,1245.66 1450.78,1180.47 1508.84,1180.47 1566.9,1180.47 1566.9,1245.66 1450.78,1245.66 
  "/>
<polyline clip-path="url(#clip742)" style="stroke:#00a98d; stroke-width:0; stroke-opacity:1; fill:none" points="
  1450.78,1099.45 1450.78,1180.47 1566.9,1180.47 1566.9,1099.45 1450.78,1099.45 
  "/>
<polyline clip-path="url(#clip742)" style="stroke:#00a98d; stroke-width:0; stroke-opacity:1; fill:none" points="
  1508.84,908.062 1450.78,908.062 1566.9,908.062 1508.84,908.062 1508.84,1099.45 
  "/>
<path clip-path="url(#clip742)" d="
M1653.99 1373.25 L1595.93 1373.25 L1712.06 1373.25 L1653.99 1373.25 L1653.99 1250.98 L1653.99 1373.25  Z
  " fill="#8e971d" fill-rule="evenodd" fill-opacity="1"/>
<polyline clip-path="url(#clip742)" style="stroke:#000000; stroke-width:4; stroke-opacity:1; fill:none" points="
  1653.99,1373.25 1595.93,1373.25 1712.06,1373.25 1653.99,1373.25 1653.99,1250.98 1653.99,1373.25 
  "/>
<path clip-path="url(#clip742)" d="
M1595.93 1250.98 L1595.93 1150.61 L1653.99 1150.61 L1712.06 1150.61 L1712.06 1250.98 L1595.93 1250.98 L1595.93 1250.98  Z
  " fill="#8e971d" fill-rule="evenodd" fill-opacity="1"/>
<polyline clip-path="url(#clip742)" style="stroke:#000000; stroke-width:4; stroke-opacity:1; fill:none" points="
  1595.93,1250.98 1595.93,1150.61 1653.99,1150.61 1712.06,1150.61 1712.06,1250.98 1595.93,1250.98 
  "/>
<path clip-path="url(#clip742)" d="
M1595.93 1050.42 L1595.93 1150.61 L1712.06 1150.61 L1712.06 1050.42 L1595.93 1050.42 L1595.93 1050.42  Z
  " fill="#8e971d" fill-rule="evenodd" fill-opacity="1"/>
<polyline clip-path="url(#clip742)" style="stroke:#000000; stroke-width:4; stroke-opacity:1; fill:none" points="
  1595.93,1050.42 1595.93,1150.61 1712.06,1150.61 1712.06,1050.42 1595.93,1050.42 
  "/>
<path clip-path="url(#clip742)" d="
M1653.99 753.792 L1595.93 753.792 L1712.06 753.792 L1653.99 753.792 L1653.99 1050.42 L1653.99 753.792  Z
  " fill="#8e971d" fill-rule="evenodd" fill-opacity="1"/>
<polyline clip-path="url(#clip742)" style="stroke:#000000; stroke-width:4; stroke-opacity:1; fill:none" points="
  1653.99,753.792 1595.93,753.792 1712.06,753.792 1653.99,753.792 1653.99,1050.42 1653.99,753.792 
  "/>
<circle clip-path="url(#clip742)" cx="1653.99" cy="630.857" r="14" fill="#8e971d" fill-rule="evenodd" fill-opacity="1" stroke="#000000" stroke-opacity="1" stroke-width="3.2"/>
<polyline clip-path="url(#clip742)" style="stroke:#8e971d; stroke-width:0; stroke-opacity:1; fill:none" points="
  1653.99,1373.25 1595.93,1373.25 1712.06,1373.25 1653.99,1373.25 1653.99,1250.98 
  "/>
<polyline clip-path="url(#clip742)" style="stroke:#8e971d; stroke-width:0; stroke-opacity:1; fill:none" points="
  1595.93,1250.98 1595.93,1150.61 1653.99,1150.61 1712.06,1150.61 1712.06,1250.98 1595.93,1250.98 
  "/>
<polyline clip-path="url(#clip742)" style="stroke:#8e971d; stroke-width:0; stroke-opacity:1; fill:none" points="
  1595.93,1050.42 1595.93,1150.61 1712.06,1150.61 1712.06,1050.42 1595.93,1050.42 
  "/>
<polyline clip-path="url(#clip742)" style="stroke:#8e971d; stroke-width:0; stroke-opacity:1; fill:none" points="
  1653.99,753.792 1595.93,753.792 1712.06,753.792 1653.99,753.792 1653.99,1050.42 
  "/>
<path clip-path="url(#clip742)" d="
M1799.15 1382.39 L1741.09 1382.39 L1857.21 1382.39 L1799.15 1382.39 L1799.15 1277.25 L1799.15 1382.39  Z
  " fill="#00a8cb" fill-rule="evenodd" fill-opacity="1"/>
<polyline clip-path="url(#clip742)" style="stroke:#000000; stroke-width:4; stroke-opacity:1; fill:none" points="
  1799.15,1382.39 1741.09,1382.39 1857.21,1382.39 1799.15,1382.39 1799.15,1277.25 1799.15,1382.39 
  "/>
<path clip-path="url(#clip742)" d="
M1741.09 1277.25 L1741.09 1182.78 L1799.15 1182.78 L1857.21 1182.78 L1857.21 1277.25 L1741.09 1277.25 L1741.09 1277.25  Z
  " fill="#00a8cb" fill-rule="evenodd" fill-opacity="1"/>
<polyline clip-path="url(#clip742)" style="stroke:#000000; stroke-width:4; stroke-opacity:1; fill:none" points="
  1741.09,1277.25 1741.09,1182.78 1799.15,1182.78 1857.21,1182.78 1857.21,1277.25 1741.09,1277.25 
  "/>
<path clip-path="url(#clip742)" d="
M1741.09 1078.16 L1741.09 1182.78 L1857.21 1182.78 L1857.21 1078.16 L1741.09 1078.16 L1741.09 1078.16  Z
  " fill="#00a8cb" fill-rule="evenodd" fill-opacity="1"/>
<polyline clip-path="url(#clip742)" style="stroke:#000000; stroke-width:4; stroke-opacity:1; fill:none" points="
  1741.09,1078.16 1741.09,1182.78 1857.21,1182.78 1857.21,1078.16 1741.09,1078.16 
  "/>
<path clip-path="url(#clip742)" d="
M1799.15 782.832 L1741.09 782.832 L1857.21 782.832 L1799.15 782.832 L1799.15 1078.16 L1799.15 782.832  Z
  " fill="#00a8cb" fill-rule="evenodd" fill-opacity="1"/>
<polyline clip-path="url(#clip742)" style="stroke:#000000; stroke-width:4; stroke-opacity:1; fill:none" points="
  1799.15,782.832 1741.09,782.832 1857.21,782.832 1799.15,782.832 1799.15,1078.16 1799.15,782.832 
  "/>
<polyline clip-path="url(#clip742)" style="stroke:#00a8cb; stroke-width:0; stroke-opacity:1; fill:none" points="
  1799.15,1382.39 1741.09,1382.39 1857.21,1382.39 1799.15,1382.39 1799.15,1277.25 
  "/>
<polyline clip-path="url(#clip742)" style="stroke:#00a8cb; stroke-width:0; stroke-opacity:1; fill:none" points="
  1741.09,1277.25 1741.09,1182.78 1799.15,1182.78 1857.21,1182.78 1857.21,1277.25 1741.09,1277.25 
  "/>
<polyline clip-path="url(#clip742)" style="stroke:#00a8cb; stroke-width:0; stroke-opacity:1; fill:none" points="
  1741.09,1078.16 1741.09,1182.78 1857.21,1182.78 1857.21,1078.16 1741.09,1078.16 
  "/>
<polyline clip-path="url(#clip742)" style="stroke:#00a8cb; stroke-width:0; stroke-opacity:1; fill:none" points="
  1799.15,782.832 1741.09,782.832 1857.21,782.832 1799.15,782.832 1799.15,1078.16 
  "/>
<path clip-path="url(#clip742)" d="
M1944.3 1367.83 L1886.24 1367.83 L2002.36 1367.83 L1944.3 1367.83 L1944.3 1271.62 L1944.3 1367.83  Z
  " fill="#9b7fe8" fill-rule="evenodd" fill-opacity="1"/>
<polyline clip-path="url(#clip742)" style="stroke:#000000; stroke-width:4; stroke-opacity:1; fill:none" points="
  1944.3,1367.83 1886.24,1367.83 2002.36,1367.83 1944.3,1367.83 1944.3,1271.62 1944.3,1367.83 
  "/>
<path clip-path="url(#clip742)" d="
M1886.24 1271.62 L1886.24 1227.96 L1944.3 1227.96 L2002.36 1227.96 L2002.36 1271.62 L1886.24 1271.62 L1886.24 1271.62  Z
  " fill="#9b7fe8" fill-rule="evenodd" fill-opacity="1"/>
<polyline clip-path="url(#clip742)" style="stroke:#000000; stroke-width:4; stroke-opacity:1; fill:none" points="
  1886.24,1271.62 1886.24,1227.96 1944.3,1227.96 2002.36,1227.96 2002.36,1271.62 1886.24,1271.62 
  "/>
<path clip-path="url(#clip742)" d="
M1886.24 1149.33 L1886.24 1227.96 L2002.36 1227.96 L2002.36 1149.33 L1886.24 1149.33 L1886.24 1149.33  Z
  " fill="#9b7fe8" fill-rule="evenodd" fill-opacity="1"/>
<polyline clip-path="url(#clip742)" style="stroke:#000000; stroke-width:4; stroke-opacity:1; fill:none" points="
  1886.24,1149.33 1886.24,1227.96 2002.36,1227.96 2002.36,1149.33 1886.24,1149.33 
  "/>
<path clip-path="url(#clip742)" d="
M1944.3 969.396 L1886.24 969.396 L2002.36 969.396 L1944.3 969.396 L1944.3 1149.33 L1944.3 969.396  Z
  " fill="#9b7fe8" fill-rule="evenodd" fill-opacity="1"/>
<polyline clip-path="url(#clip742)" style="stroke:#000000; stroke-width:4; stroke-opacity:1; fill:none" points="
  1944.3,969.396 1886.24,969.396 2002.36,969.396 1944.3,969.396 1944.3,1149.33 1944.3,969.396 
  "/>
<circle clip-path="url(#clip742)" cx="1944.3" cy="960.255" r="14" fill="#9b7fe8" fill-rule="evenodd" fill-opacity="1" stroke="#000000" stroke-opacity="1" stroke-width="3.2"/>
<circle clip-path="url(#clip742)" cx="1944.3" cy="947.596" r="14" fill="#9b7fe8" fill-rule="evenodd" fill-opacity="1" stroke="#000000" stroke-opacity="1" stroke-width="3.2"/>
<circle clip-path="url(#clip742)" cx="1944.3" cy="945.885" r="14" fill="#9b7fe8" fill-rule="evenodd" fill-opacity="1" stroke="#000000" stroke-opacity="1" stroke-width="3.2"/>
<circle clip-path="url(#clip742)" cx="1944.3" cy="545.606" r="14" fill="#9b7fe8" fill-rule="evenodd" fill-opacity="1" stroke="#000000" stroke-opacity="1" stroke-width="3.2"/>
<circle clip-path="url(#clip742)" cx="1944.3" cy="534.587" r="14" fill="#9b7fe8" fill-rule="evenodd" fill-opacity="1" stroke="#000000" stroke-opacity="1" stroke-width="3.2"/>
<circle clip-path="url(#clip742)" cx="1944.3" cy="924.089" r="14" fill="#9b7fe8" fill-rule="evenodd" fill-opacity="1" stroke="#000000" stroke-opacity="1" stroke-width="3.2"/>
<polyline clip-path="url(#clip742)" style="stroke:#9b7fe8; stroke-width:0; stroke-opacity:1; fill:none" points="
  1944.3,1367.83 1886.24,1367.83 2002.36,1367.83 1944.3,1367.83 1944.3,1271.62 
  "/>
<polyline clip-path="url(#clip742)" style="stroke:#9b7fe8; stroke-width:0; stroke-opacity:1; fill:none" points="
  1886.24,1271.62 1886.24,1227.96 1944.3,1227.96 2002.36,1227.96 2002.36,1271.62 1886.24,1271.62 
  "/>
<polyline clip-path="url(#clip742)" style="stroke:#9b7fe8; stroke-width:0; stroke-opacity:1; fill:none" points="
  1886.24,1149.33 1886.24,1227.96 2002.36,1227.96 2002.36,1149.33 1886.24,1149.33 
  "/>
<polyline clip-path="url(#clip742)" style="stroke:#9b7fe8; stroke-width:0; stroke-opacity:1; fill:none" points="
  1944.3,969.396 1886.24,969.396 2002.36,969.396 1944.3,969.396 1944.3,1149.33 
  "/>
<path clip-path="url(#clip742)" d="
M2089.45 1323.84 L2031.39 1323.84 L2147.51 1323.84 L2089.45 1323.84 L2089.45 1167.26 L2089.45 1323.84  Z
  " fill="#608cf6" fill-rule="evenodd" fill-opacity="1"/>
<polyline clip-path="url(#clip742)" style="stroke:#000000; stroke-width:4; stroke-opacity:1; fill:none" points="
  2089.45,1323.84 2031.39,1323.84 2147.51,1323.84 2089.45,1323.84 2089.45,1167.26 2089.45,1323.84 
  "/>
<path clip-path="url(#clip742)" d="
M2031.39 1167.26 L2031.39 1102.76 L2089.45 1102.76 L2147.51 1102.76 L2147.51 1167.26 L2031.39 1167.26 L2031.39 1167.26  Z
  " fill="#608cf6" fill-rule="evenodd" fill-opacity="1"/>
<polyline clip-path="url(#clip742)" style="stroke:#000000; stroke-width:4; stroke-opacity:1; fill:none" points="
  2031.39,1167.26 2031.39,1102.76 2089.45,1102.76 2147.51,1102.76 2147.51,1167.26 2031.39,1167.26 
  "/>
<path clip-path="url(#clip742)" d="
M2031.39 1017.68 L2031.39 1102.76 L2147.51 1102.76 L2147.51 1017.68 L2031.39 1017.68 L2031.39 1017.68  Z
  " fill="#608cf6" fill-rule="evenodd" fill-opacity="1"/>
<polyline clip-path="url(#clip742)" style="stroke:#000000; stroke-width:4; stroke-opacity:1; fill:none" points="
  2031.39,1017.68 2031.39,1102.76 2147.51,1102.76 2147.51,1017.68 2031.39,1017.68 
  "/>
<path clip-path="url(#clip742)" d="
M2089.45 818.635 L2031.39 818.635 L2147.51 818.635 L2089.45 818.635 L2089.45 1017.68 L2089.45 818.635  Z
  " fill="#608cf6" fill-rule="evenodd" fill-opacity="1"/>
<polyline clip-path="url(#clip742)" style="stroke:#000000; stroke-width:4; stroke-opacity:1; fill:none" points="
  2089.45,818.635 2031.39,818.635 2147.51,818.635 2089.45,818.635 2089.45,1017.68 2089.45,818.635 
  "/>
<polyline clip-path="url(#clip742)" style="stroke:#608cf6; stroke-width:0; stroke-opacity:1; fill:none" points="
  2089.45,1323.84 2031.39,1323.84 2147.51,1323.84 2089.45,1323.84 2089.45,1167.26 
  "/>
<polyline clip-path="url(#clip742)" style="stroke:#608cf6; stroke-width:0; stroke-opacity:1; fill:none" points="
  2031.39,1167.26 2031.39,1102.76 2089.45,1102.76 2147.51,1102.76 2147.51,1167.26 2031.39,1167.26 
  "/>
<polyline clip-path="url(#clip742)" style="stroke:#608cf6; stroke-width:0; stroke-opacity:1; fill:none" points="
  2031.39,1017.68 2031.39,1102.76 2147.51,1102.76 2147.51,1017.68 2031.39,1017.68 
  "/>
<polyline clip-path="url(#clip742)" style="stroke:#608cf6; stroke-width:0; stroke-opacity:1; fill:none" points="
  2089.45,818.635 2031.39,818.635 2147.51,818.635 2089.45,818.635 2089.45,1017.68 
  "/>
<path clip-path="url(#clip742)" d="
M2234.6 1379.19 L2176.54 1379.19 L2292.66 1379.19 L2234.6 1379.19 L2234.6 1273.12 L2234.6 1379.19  Z
  " fill="#f05f73" fill-rule="evenodd" fill-opacity="1"/>
<polyline clip-path="url(#clip742)" style="stroke:#000000; stroke-width:4; stroke-opacity:1; fill:none" points="
  2234.6,1379.19 2176.54,1379.19 2292.66,1379.19 2234.6,1379.19 2234.6,1273.12 2234.6,1379.19 
  "/>
<path clip-path="url(#clip742)" d="
M2176.54 1273.12 L2176.54 1144.85 L2234.6 1144.85 L2292.66 1144.85 L2292.66 1273.12 L2176.54 1273.12 L2176.54 1273.12  Z
  " fill="#f05f73" fill-rule="evenodd" fill-opacity="1"/>
<polyline clip-path="url(#clip742)" style="stroke:#000000; stroke-width:4; stroke-opacity:1; fill:none" points="
  2176.54,1273.12 2176.54,1144.85 2234.6,1144.85 2292.66,1144.85 2292.66,1273.12 2176.54,1273.12 
  "/>
<path clip-path="url(#clip742)" d="
M2176.54 1040.9 L2176.54 1144.85 L2292.66 1144.85 L2292.66 1040.9 L2176.54 1040.9 L2176.54 1040.9  Z
  " fill="#f05f73" fill-rule="evenodd" fill-opacity="1"/>
<polyline clip-path="url(#clip742)" style="stroke:#000000; stroke-width:4; stroke-opacity:1; fill:none" points="
  2176.54,1040.9 2176.54,1144.85 2292.66,1144.85 2292.66,1040.9 2176.54,1040.9 
  "/>
<path clip-path="url(#clip742)" d="
M2234.6 697.825 L2176.54 697.825 L2292.66 697.825 L2234.6 697.825 L2234.6 1040.9 L2234.6 697.825  Z
  " fill="#f05f73" fill-rule="evenodd" fill-opacity="1"/>
<polyline clip-path="url(#clip742)" style="stroke:#000000; stroke-width:4; stroke-opacity:1; fill:none" points="
  2234.6,697.825 2176.54,697.825 2292.66,697.825 2234.6,697.825 2234.6,1040.9 2234.6,697.825 
  "/>
<polyline clip-path="url(#clip742)" style="stroke:#f05f73; stroke-width:0; stroke-opacity:1; fill:none" points="
  2234.6,1379.19 2176.54,1379.19 2292.66,1379.19 2234.6,1379.19 2234.6,1273.12 
  "/>
<polyline clip-path="url(#clip742)" style="stroke:#f05f73; stroke-width:0; stroke-opacity:1; fill:none" points="
  2176.54,1273.12 2176.54,1144.85 2234.6,1144.85 2292.66,1144.85 2292.66,1273.12 2176.54,1273.12 
  "/>
<polyline clip-path="url(#clip742)" style="stroke:#f05f73; stroke-width:0; stroke-opacity:1; fill:none" points="
  2176.54,1040.9 2176.54,1144.85 2292.66,1144.85 2292.66,1040.9 2176.54,1040.9 
  "/>
<polyline clip-path="url(#clip742)" style="stroke:#f05f73; stroke-width:0; stroke-opacity:1; fill:none" points="
  2234.6,697.825 2176.54,697.825 2292.66,697.825 2234.6,697.825 2234.6,1040.9 
  "/>
</svg>
