<?xml version="1.0" encoding="utf-8"?>
<svg xmlns="http://www.w3.org/2000/svg" xmlns:xlink="http://www.w3.org/1999/xlink" width="600" height="400" viewBox="0 0 2400 1600">
<defs>
  <clipPath id="clip660">
    <rect x="0" y="0" width="2400" height="1600"/>
  </clipPath>
</defs>
<path clip-path="url(#clip660)" d="
M0 1600 L2400 1600 L2400 0 L0 0  Z
  " fill="#ffffff" fill-rule="evenodd" fill-opacity="1"/>
<defs>
  <clipPath id="clip661">
    <rect x="480" y="0" width="1681" height="1600"/>
  </clipPath>
</defs>
<path clip-path="url(#clip660)" d="
M198.339 1423.18 L2352.76 1423.18 L2352.76 123.472 L198.339 123.472  Z
  " fill="#ffffff" fill-rule="evenodd" fill-opacity="1"/>
<defs>
  <clipPath id="clip662">
    <rect x="198" y="123" width="2155" height="1301"/>
  </clipPath>
</defs>
<polyline clip-path="url(#clip662)" style="stroke:#000000; stroke-width:2; stroke-opacity:0.1; fill:none" points="
  249.099,1423.18 249.099,123.472 
  "/>
<polyline clip-path="url(#clip662)" style="stroke:#000000; stroke-width:2; stroke-opacity:0.1; fill:none" points="
  759.77,1423.18 759.77,123.472 
  "/>
<polyline clip-path="url(#clip662)" style="stroke:#000000; stroke-width:2; stroke-opacity:0.1; fill:none" points="
  1270.44,1423.18 1270.44,123.472 
  "/>
<polyline clip-path="url(#clip662)" style="stroke:#000000; stroke-width:2; stroke-opacity:0.1; fill:none" points="
  1781.11,1423.18 1781.11,123.472 
  "/>
<polyline clip-path="url(#clip662)" style="stroke:#000000; stroke-width:2; stroke-opacity:0.1; fill:none" points="
  2291.78,1423.18 2291.78,123.472 
  "/>
<polyline clip-path="url(#clip660)" style="stroke:#000000; stroke-width:4; stroke-opacity:1; fill:none" points="
  198.339,1423.18 2352.76,1423.18 
  "/>
<polyline clip-path="url(#clip660)" style="stroke:#000000; stroke-width:4; stroke-opacity:1; fill:none" points="
  249.099,1423.18 249.099,1407.58 
  "/>
<polyline clip-path="url(#clip660)" style="stroke:#000000; stroke-width:4; stroke-opacity:1; fill:none" points="
  759.77,1423.18 759.77,1407.58 
  "/>
<polyline clip-path="url(#clip660)" style="stroke:#000000; stroke-width:4; stroke-opacity:1; fill:none" points="
  1270.44,1423.18 1270.44,1407.58 
  "/>
<polyline clip-path="url(#clip660)" style="stroke:#000000; stroke-width:4; stroke-opacity:1; fill:none" points="
  1781.11,1423.18 1781.11,1407.58 
  "/>
<polyline clip-path="url(#clip660)" style="stroke:#000000; stroke-width:4; stroke-opacity:1; fill:none" points="
  2291.78,1423.18 2291.78,1407.58 
  "/>
<path clip-path="url(#clip660)" d="M 0 0 M249.099 1452.37 Q245.488 1452.37 243.659 1455.94 Q241.854 1459.48 241.854 1466.61 Q241.854 1473.71 243.659 1477.28 Q245.488 1480.82 249.099 1480.82 Q252.734 1480.82 254.539 1477.28 Q256.368 1473.71 256.368 1466.61 Q256.368 1459.48 254.539 1455.94 Q252.734 1452.37 249.099 1452.37 M249.099 1448.67 Q254.909 1448.67 257.965 1453.27 Q261.044 1457.86 261.044 1466.61 Q261.044 1475.33 257.965 1479.94 Q254.909 1484.52 249.099 1484.52 Q243.289 1484.52 240.21 1479.94 Q237.155 1475.33 237.155 1466.61 Q237.155 1457.86 240.21 1453.27 Q243.289 1448.67 249.099 1448.67 Z" fill="#000000" fill-rule="evenodd" fill-opacity="1" /><path clip-path="url(#clip660)" d="M 0 0 M736.541 1449.29 L754.897 1449.29 L754.897 1453.23 L740.823 1453.23 L740.823 1461.7 Q741.842 1461.35 742.86 1461.19 Q743.879 1461 744.897 1461 Q750.684 1461 754.064 1464.18 Q757.444 1467.35 757.444 1472.76 Q757.444 1478.34 753.971 1481.44 Q750.499 1484.52 744.18 1484.52 Q742.004 1484.52 739.735 1484.15 Q737.49 1483.78 735.083 1483.04 L735.083 1478.34 Q737.166 1479.48 739.388 1480.03 Q741.61 1480.59 744.087 1480.59 Q748.092 1480.59 750.43 1478.48 Q752.768 1476.38 752.768 1472.76 Q752.768 1469.15 750.43 1467.05 Q748.092 1464.94 744.087 1464.94 Q742.212 1464.94 740.337 1465.36 Q738.485 1465.77 736.541 1466.65 L736.541 1449.29 Z" fill="#000000" fill-rule="evenodd" fill-opacity="1" /><path clip-path="url(#clip660)" d="M 0 0 M772.513 1452.37 Q768.902 1452.37 767.073 1455.94 Q765.268 1459.48 765.268 1466.61 Q765.268 1473.71 767.073 1477.28 Q768.902 1480.82 772.513 1480.82 Q776.147 1480.82 777.953 1477.28 Q779.781 1473.71 779.781 1466.61 Q779.781 1459.48 777.953 1455.94 Q776.147 1452.37 772.513 1452.37 M772.513 1448.67 Q778.323 1448.67 781.379 1453.27 Q784.457 1457.86 784.457 1466.61 Q784.457 1475.33 781.379 1479.94 Q778.323 1484.52 772.513 1484.52 Q766.703 1484.52 763.624 1479.94 Q760.569 1475.33 760.569 1466.61 Q760.569 1457.86 763.624 1453.27 Q766.703 1448.67 772.513 1448.67 Z" fill="#000000" fill-rule="evenodd" fill-opacity="1" /><path clip-path="url(#clip660)" d="M 0 0 M1233.81 1479.92 L1241.45 1479.92 L1241.45 1453.55 L1233.14 1455.22 L1233.14 1450.96 L1241.4 1449.29 L1246.08 1449.29 L1246.08 1479.92 L1253.72 1479.92 L1253.72 1483.85 L1233.81 1483.85 L1233.81 1479.92 Z" fill="#000000" fill-rule="evenodd" fill-opacity="1" /><path clip-path="url(#clip660)" d="M 0 0 M1268.79 1452.37 Q1265.17 1452.37 1263.35 1455.94 Q1261.54 1459.48 1261.54 1466.61 Q1261.54 1473.71 1263.35 1477.28 Q1265.17 1480.82 1268.79 1480.82 Q1272.42 1480.82 1274.23 1477.28 Q1276.05 1473.71 1276.05 1466.61 Q1276.05 1459.48 1274.23 1455.94 Q1272.42 1452.37 1268.79 1452.37 M1268.79 1448.67 Q1274.6 1448.67 1277.65 1453.27 Q1280.73 1457.86 1280.73 1466.61 Q1280.73 1475.33 1277.65 1479.94 Q1274.6 1484.52 1268.79 1484.52 Q1262.98 1484.52 1259.9 1479.94 Q1256.84 1475.33 1256.84 1466.61 Q1256.84 1457.86 1259.9 1453.27 Q1262.98 1448.67 1268.79 1448.67 Z" fill="#000000" fill-rule="evenodd" fill-opacity="1" /><path clip-path="url(#clip660)" d="M 0 0 M1295.8 1452.37 Q1292.19 1452.37 1290.36 1455.94 Q1288.55 1459.48 1288.55 1466.61 Q1288.55 1473.71 1290.36 1477.28 Q1292.19 1480.82 1295.8 1480.82 Q1299.43 1480.82 1301.24 1477.28 Q1303.07 1473.71 1303.07 1466.61 Q1303.07 1459.48 1301.24 1455.94 Q1299.43 1452.37 1295.8 1452.37 M1295.8 1448.67 Q1301.61 1448.67 1304.66 1453.27 Q1307.74 1457.86 1307.74 1466.61 Q1307.74 1475.33 1304.66 1479.94 Q1301.61 1484.52 1295.8 1484.52 Q1289.99 1484.52 1286.91 1479.94 Q1283.85 1475.33 1283.85 1466.61 Q1283.85 1457.86 1286.91 1453.27 Q1289.99 1448.67 1295.8 1448.67 Z" fill="#000000" fill-rule="evenodd" fill-opacity="1" /><path clip-path="url(#clip660)" d="M 0 0 M1744.98 1479.92 L1752.62 1479.92 L1752.62 1453.55 L1744.31 1455.22 L1744.31 1450.96 L1752.57 1449.29 L1757.25 1449.29 L1757.25 1479.92 L1764.88 1479.92 L1764.88 1483.85 L1744.98 1483.85 L1744.98 1479.92 Z" fill="#000000" fill-rule="evenodd" fill-opacity="1" /><path clip-path="url(#clip660)" d="M 0 0 M1770 1449.29 L1788.36 1449.29 L1788.36 1453.23 L1774.28 1453.23 L1774.28 1461.7 Q1775.3 1461.35 1776.32 1461.19 Q1777.34 1461 1778.36 1461 Q1784.14 1461 1787.52 1464.18 Q1790.9 1467.35 1790.9 1472.76 Q1790.9 1478.34 1787.43 1481.44 Q1783.96 1484.52 1777.64 1484.52 Q1775.46 1484.52 1773.19 1484.15 Q1770.95 1483.78 1768.54 1483.04 L1768.54 1478.34 Q1770.63 1479.48 1772.85 1480.03 Q1775.07 1480.59 1777.55 1480.59 Q1781.55 1480.59 1783.89 1478.48 Q1786.23 1476.38 1786.23 1472.76 Q1786.23 1469.15 1783.89 1467.05 Q1781.55 1464.94 1777.55 1464.94 Q1775.67 1464.94 1773.8 1465.36 Q1771.94 1465.77 1770 1466.65 L1770 1449.29 Z" fill="#000000" fill-rule="evenodd" fill-opacity="1" /><path clip-path="url(#clip660)" d="M 0 0 M1805.97 1452.37 Q1802.36 1452.37 1800.53 1455.94 Q1798.73 1459.48 1798.73 1466.61 Q1798.73 1473.71 1800.53 1477.28 Q1802.36 1480.82 1805.97 1480.82 Q1809.61 1480.82 1811.41 1477.28 Q1813.24 1473.71 1813.24 1466.61 Q1813.24 1459.48 1811.41 1455.94 Q1809.61 1452.37 1805.97 1452.37 M1805.97 1448.67 Q1811.78 1448.67 1814.84 1453.27 Q1817.92 1457.86 1817.92 1466.61 Q1817.92 1475.33 1814.84 1479.94 Q1811.78 1484.52 1805.97 1484.52 Q1800.16 1484.52 1797.08 1479.94 Q1794.03 1475.33 1794.03 1466.61 Q1794.03 1457.86 1797.08 1453.27 Q1800.16 1448.67 1805.97 1448.67 Z" fill="#000000" fill-rule="evenodd" fill-opacity="1" /><path clip-path="url(#clip660)" d="M 0 0 M2259.42 1479.92 L2275.74 1479.92 L2275.74 1483.85 L2253.8 1483.85 L2253.8 1479.92 Q2256.46 1477.16 2261.04 1472.53 Q2265.65 1467.88 2266.83 1466.54 Q2269.07 1464.01 2269.95 1462.28 Q2270.86 1460.52 2270.86 1458.83 Q2270.86 1456.07 2268.91 1454.34 Q2266.99 1452.6 2263.89 1452.6 Q2261.69 1452.6 2259.24 1453.37 Q2256.81 1454.13 2254.03 1455.68 L2254.03 1450.96 Q2256.85 1449.82 2259.31 1449.25 Q2261.76 1448.67 2263.8 1448.67 Q2269.17 1448.67 2272.36 1451.35 Q2275.56 1454.04 2275.56 1458.53 Q2275.56 1460.66 2274.74 1462.58 Q2273.96 1464.48 2271.85 1467.07 Q2271.27 1467.74 2268.17 1470.96 Q2265.07 1474.15 2259.42 1479.92 Z" fill="#000000" fill-rule="evenodd" fill-opacity="1" /><path clip-path="url(#clip660)" d="M 0 0 M2290.81 1452.37 Q2287.2 1452.37 2285.37 1455.94 Q2283.56 1459.48 2283.56 1466.61 Q2283.56 1473.71 2285.37 1477.28 Q2287.2 1480.82 2290.81 1480.82 Q2294.44 1480.82 2296.25 1477.28 Q2298.08 1473.71 2298.08 1466.61 Q2298.08 1459.48 2296.25 1455.94 Q2294.44 1452.37 2290.81 1452.37 M2290.81 1448.67 Q2296.62 1448.67 2299.68 1453.27 Q2302.75 1457.86 2302.75 1466.61 Q2302.75 1475.33 2299.68 1479.94 Q2296.62 1484.52 2290.81 1484.52 Q2285 1484.52 2281.92 1479.94 Q2278.87 1475.33 2278.87 1466.61 Q2278.87 1457.86 2281.92 1453.27 Q2285 1448.67 2290.81 1448.67 Z" fill="#000000" fill-rule="evenodd" fill-opacity="1" /><path clip-path="url(#clip660)" d="M 0 0 M2317.82 1452.37 Q2314.21 1452.37 2312.38 1455.94 Q2310.58 1459.48 2310.58 1466.61 Q2310.58 1473.71 2312.38 1477.28 Q2314.21 1480.82 2317.82 1480.82 Q2321.46 1480.82 2323.26 1477.28 Q2325.09 1473.71 2325.09 1466.61 Q2325.09 1459.48 2323.26 1455.94 Q2321.46 1452.37 2317.82 1452.37 M2317.82 1448.67 Q2323.63 1448.67 2326.69 1453.27 Q2329.77 1457.86 2329.77 1466.61 Q2329.77 1475.33 2326.69 1479.94 Q2323.63 1484.52 2317.82 1484.52 Q2312.01 1484.52 2308.93 1479.94 Q2305.88 1475.33 2305.88 1466.61 Q2305.88 1457.86 2308.93 1453.27 Q2312.01 1448.67 2317.82 1448.67 Z" fill="#000000" fill-rule="evenodd" fill-opacity="1" /><path clip-path="url(#clip660)" d="M 0 0 M1171.17 1508.52 L1198.47 1508.52 L1198.47 1513.93 L1177.59 1513.93 L1177.59 1527.94 L1196.44 1527.94 L1196.44 1533.35 L1177.59 1533.35 L1177.59 1556.04 L1171.17 1556.04 L1171.17 1508.52 Z" fill="#000000" fill-rule="evenodd" fill-opacity="1" /><path clip-path="url(#clip660)" d="M 0 0 M1220.53 1525.87 Q1219.54 1525.3 1218.37 1525.04 Q1217.22 1524.76 1215.82 1524.76 Q1210.86 1524.76 1208.18 1528 Q1205.54 1531.22 1205.54 1537.27 L1205.54 1556.04 L1199.65 1556.04 L1199.65 1520.4 L1205.54 1520.4 L1205.54 1525.93 Q1207.39 1522.69 1210.35 1521.13 Q1213.31 1519.54 1217.54 1519.54 Q1218.14 1519.54 1218.88 1519.63 Q1219.61 1519.7 1220.5 1519.85 L1220.53 1525.87 Z" fill="#000000" fill-rule="evenodd" fill-opacity="1" /><path clip-path="url(#clip660)" d="M 0 0 M1242.88 1538.12 Q1235.78 1538.12 1233.04 1539.75 Q1230.3 1541.37 1230.3 1545.29 Q1230.3 1548.4 1232.34 1550.25 Q1234.41 1552.07 1237.94 1552.07 Q1242.81 1552.07 1245.74 1548.63 Q1248.7 1545.16 1248.7 1539.43 L1248.7 1538.12 L1242.88 1538.12 M1254.56 1535.71 L1254.56 1556.04 L1248.7 1556.04 L1248.7 1550.63 Q1246.69 1553.88 1243.7 1555.44 Q1240.71 1556.97 1236.38 1556.97 Q1230.91 1556.97 1227.66 1553.91 Q1224.45 1550.82 1224.45 1545.67 Q1224.45 1539.65 1228.46 1536.6 Q1232.5 1533.54 1240.49 1533.54 L1248.7 1533.54 L1248.7 1532.97 Q1248.7 1528.93 1246.03 1526.73 Q1243.38 1524.5 1238.58 1524.5 Q1235.52 1524.5 1232.63 1525.23 Q1229.73 1525.97 1227.06 1527.43 L1227.06 1522.02 Q1230.27 1520.78 1233.29 1520.17 Q1236.32 1519.54 1239.18 1519.54 Q1246.92 1519.54 1250.74 1523.55 Q1254.56 1527.56 1254.56 1535.71 Z" fill="#000000" fill-rule="evenodd" fill-opacity="1" /><path clip-path="url(#clip660)" d="M 0 0 M1288.45 1527.24 Q1290.65 1523.29 1293.71 1521.41 Q1296.76 1519.54 1300.9 1519.54 Q1306.47 1519.54 1309.49 1523.45 Q1312.52 1527.33 1312.52 1534.53 L1312.52 1556.04 L1306.63 1556.04 L1306.63 1534.72 Q1306.63 1529.59 1304.81 1527.11 Q1303 1524.63 1299.28 1524.63 Q1294.72 1524.63 1292.08 1527.65 Q1289.44 1530.68 1289.44 1535.9 L1289.44 1556.04 L1283.55 1556.04 L1283.55 1534.72 Q1283.55 1529.56 1281.74 1527.11 Q1279.92 1524.63 1276.14 1524.63 Q1271.65 1524.63 1269.01 1527.68 Q1266.36 1530.71 1266.36 1535.9 L1266.36 1556.04 L1260.48 1556.04 L1260.48 1520.4 L1266.36 1520.4 L1266.36 1525.93 Q1268.37 1522.66 1271.17 1521.1 Q1273.97 1519.54 1277.82 1519.54 Q1281.71 1519.54 1284.41 1521.51 Q1287.15 1523.48 1288.45 1527.24 Z" fill="#000000" fill-rule="evenodd" fill-opacity="1" /><path clip-path="url(#clip660)" d="M 0 0 M1349.15 1536.76 L1349.15 1539.62 L1322.22 1539.62 Q1322.61 1545.67 1325.85 1548.85 Q1329.13 1552 1334.96 1552 Q1338.33 1552 1341.48 1551.17 Q1344.66 1550.35 1347.78 1548.69 L1347.78 1554.23 Q1344.63 1555.57 1341.32 1556.27 Q1338.01 1556.97 1334.61 1556.97 Q1326.08 1556.97 1321.08 1552 Q1316.11 1547.04 1316.11 1538.57 Q1316.11 1529.82 1320.82 1524.69 Q1325.57 1519.54 1333.59 1519.54 Q1340.78 1519.54 1344.95 1524.18 Q1349.15 1528.8 1349.15 1536.76 M1343.29 1535.04 Q1343.23 1530.23 1340.59 1527.37 Q1337.98 1524.5 1333.65 1524.5 Q1328.75 1524.5 1325.79 1527.27 Q1322.86 1530.04 1322.41 1535.07 L1343.29 1535.04 Z" fill="#000000" fill-rule="evenodd" fill-opacity="1" /><path clip-path="url(#clip660)" d="M 0 0 M1378.02 1521.45 L1378.02 1526.98 Q1375.54 1525.71 1372.86 1525.07 Q1370.19 1524.44 1367.32 1524.44 Q1362.96 1524.44 1360.77 1525.77 Q1358.6 1527.11 1358.6 1529.79 Q1358.6 1531.82 1360.16 1533 Q1361.72 1534.15 1366.43 1535.2 L1368.44 1535.64 Q1374.68 1536.98 1377.29 1539.43 Q1379.93 1541.85 1379.93 1546.21 Q1379.93 1551.17 1375.98 1554.07 Q1372.07 1556.97 1365.19 1556.97 Q1362.33 1556.97 1359.21 1556.39 Q1356.12 1555.85 1352.68 1554.74 L1352.68 1548.69 Q1355.93 1550.38 1359.08 1551.24 Q1362.23 1552.07 1365.32 1552.07 Q1369.46 1552.07 1371.69 1550.66 Q1373.91 1549.23 1373.91 1546.65 Q1373.91 1544.27 1372.29 1542.99 Q1370.7 1541.72 1365.26 1540.54 L1363.22 1540.07 Q1357.78 1538.92 1355.36 1536.56 Q1352.94 1534.18 1352.94 1530.04 Q1352.94 1525.01 1356.5 1522.27 Q1360.07 1519.54 1366.62 1519.54 Q1369.87 1519.54 1372.74 1520.01 Q1375.6 1520.49 1378.02 1521.45 Z" fill="#000000" fill-rule="evenodd" fill-opacity="1" /><polyline clip-path="url(#clip662)" style="stroke:#000000; stroke-width:2; stroke-opacity:0.1; fill:none" points="
  198.339,1211.23 2352.76,1211.23 
  "/>
<polyline clip-path="url(#clip662)" style="stroke:#000000; stroke-width:2; stroke-opacity:0.1; fill:none" points="
  198.339,860.907 2352.76,860.907 
  "/>
<polyline clip-path="url(#clip662)" style="stroke:#000000; stroke-width:2; stroke-opacity:0.1; fill:none" points="
  198.339,510.582 2352.76,510.582 
  "/>
<polyline clip-path="url(#clip662)" style="stroke:#000000; stroke-width:2; stroke-opacity:0.1; fill:none" points="
  198.339,160.256 2352.76,160.256 
  "/>
<polyline clip-path="url(#clip660)" style="stroke:#000000; stroke-width:4; stroke-opacity:1; fill:none" points="
  198.339,1423.18 198.339,123.472 
  "/>
<polyline clip-path="url(#clip660)" style="stroke:#000000; stroke-width:4; stroke-opacity:1; fill:none" points="
  198.339,1211.23 224.192,1211.23 
  "/>
<polyline clip-path="url(#clip660)" style="stroke:#000000; stroke-width:4; stroke-opacity:1; fill:none" points="
  198.339,860.907 224.192,860.907 
  "/>
<polyline clip-path="url(#clip660)" style="stroke:#000000; stroke-width:4; stroke-opacity:1; fill:none" points="
  198.339,510.582 224.192,510.582 
  "/>
<polyline clip-path="url(#clip660)" style="stroke:#000000; stroke-width:4; stroke-opacity:1; fill:none" points="
  198.339,160.256 224.192,160.256 
  "/>
<path clip-path="url(#clip660)" d="M 0 0 M150.487 1212.1 Q147.153 1212.1 145.232 1213.88 Q143.334 1215.67 143.334 1218.79 Q143.334 1221.92 145.232 1223.7 Q147.153 1225.48 150.487 1225.48 Q153.82 1225.48 155.741 1223.7 Q157.663 1221.89 157.663 1218.79 Q157.663 1215.67 155.741 1213.88 Q153.843 1212.1 150.487 1212.1 M145.811 1210.11 Q142.802 1209.37 141.112 1207.31 Q139.445 1205.25 139.445 1202.29 Q139.445 1198.14 142.385 1195.74 Q145.348 1193.33 150.487 1193.33 Q155.649 1193.33 158.589 1195.74 Q161.528 1198.14 161.528 1202.29 Q161.528 1205.25 159.839 1207.31 Q158.172 1209.37 155.186 1210.11 Q158.565 1210.9 160.44 1213.19 Q162.339 1215.48 162.339 1218.79 Q162.339 1223.81 159.26 1226.5 Q156.204 1229.18 150.487 1229.18 Q144.769 1229.18 141.691 1226.5 Q138.635 1223.81 138.635 1218.79 Q138.635 1215.48 140.533 1213.19 Q142.431 1210.9 145.811 1210.11 M144.098 1202.73 Q144.098 1205.41 145.765 1206.92 Q147.454 1208.42 150.487 1208.42 Q153.496 1208.42 155.186 1206.92 Q156.899 1205.41 156.899 1202.73 Q156.899 1200.04 155.186 1198.54 Q153.496 1197.03 150.487 1197.03 Q147.454 1197.03 145.765 1198.54 Q144.098 1200.04 144.098 1202.73 Z" fill="#000000" fill-rule="evenodd" fill-opacity="1" /><path clip-path="url(#clip660)" d="M 0 0 M115.418 874.252 L123.056 874.252 L123.056 847.887 L114.746 849.553 L114.746 845.294 L123.01 843.627 L127.686 843.627 L127.686 874.252 L135.325 874.252 L135.325 878.187 L115.418 878.187 L115.418 874.252 Z" fill="#000000" fill-rule="evenodd" fill-opacity="1" /><path clip-path="url(#clip660)" d="M 0 0 M150.394 846.706 Q146.783 846.706 144.954 850.271 Q143.149 853.812 143.149 860.942 Q143.149 868.049 144.954 871.613 Q146.783 875.155 150.394 875.155 Q154.028 875.155 155.834 871.613 Q157.663 868.049 157.663 860.942 Q157.663 853.812 155.834 850.271 Q154.028 846.706 150.394 846.706 M150.394 843.002 Q156.204 843.002 159.26 847.609 Q162.339 852.192 162.339 860.942 Q162.339 869.669 159.26 874.275 Q156.204 878.859 150.394 878.859 Q144.584 878.859 141.505 874.275 Q138.45 869.669 138.45 860.942 Q138.45 852.192 141.505 847.609 Q144.584 843.002 150.394 843.002 Z" fill="#000000" fill-rule="evenodd" fill-opacity="1" /><path clip-path="url(#clip660)" d="M 0 0 M117.015 523.927 L124.654 523.927 L124.654 497.561 L116.343 499.228 L116.343 494.968 L124.607 493.302 L129.283 493.302 L129.283 523.927 L136.922 523.927 L136.922 527.862 L117.015 527.862 L117.015 523.927 Z" fill="#000000" fill-rule="evenodd" fill-opacity="1" /><path clip-path="url(#clip660)" d="M 0 0 M146.019 523.927 L162.339 523.927 L162.339 527.862 L140.394 527.862 L140.394 523.927 Q143.056 521.172 147.64 516.542 Q152.246 511.89 153.427 510.547 Q155.672 508.024 156.552 506.288 Q157.454 504.529 157.454 502.839 Q157.454 500.084 155.51 498.348 Q153.589 496.612 150.487 496.612 Q148.288 496.612 145.834 497.376 Q143.404 498.14 140.626 499.691 L140.626 494.968 Q143.45 493.834 145.904 493.256 Q148.357 492.677 150.394 492.677 Q155.765 492.677 158.959 495.362 Q162.153 498.047 162.153 502.538 Q162.153 504.668 161.343 506.589 Q160.556 508.487 158.45 511.08 Q157.871 511.751 154.769 514.968 Q151.667 518.163 146.019 523.927 Z" fill="#000000" fill-rule="evenodd" fill-opacity="1" /><path clip-path="url(#clip660)" d="M 0 0 M114.931 173.601 L122.57 173.601 L122.57 147.236 L114.26 148.902 L114.26 144.643 L122.524 142.976 L127.2 142.976 L127.2 173.601 L134.839 173.601 L134.839 177.536 L114.931 177.536 L114.931 173.601 Z" fill="#000000" fill-rule="evenodd" fill-opacity="1" /><path clip-path="url(#clip660)" d="M 0 0 M152.755 147.05 L140.95 165.499 L152.755 165.499 L152.755 147.05 M151.528 142.976 L157.408 142.976 L157.408 165.499 L162.339 165.499 L162.339 169.388 L157.408 169.388 L157.408 177.536 L152.755 177.536 L152.755 169.388 L137.154 169.388 L137.154 164.874 L151.528 142.976 Z" fill="#000000" fill-rule="evenodd" fill-opacity="1" /><path clip-path="url(#clip660)" d="M 0 0 M44.8447 859.804 Q44.8447 866.806 50.0645 870.944 Q55.2844 875.05 64.2919 875.05 Q73.2675 875.05 78.4874 870.944 Q83.7073 866.806 83.7073 859.804 Q83.7073 852.802 78.4874 848.728 Q73.2675 844.622 64.2919 844.622 Q55.2844 844.622 50.0645 848.728 Q44.8447 852.802 44.8447 859.804 M39.6248 859.804 Q39.6248 849.81 46.3406 843.826 Q53.0246 837.842 64.2919 837.842 Q75.5274 837.842 82.2432 843.826 Q88.9272 849.81 88.9272 859.804 Q88.9272 869.83 82.2432 875.846 Q75.5592 881.829 64.2919 881.829 Q53.0246 881.829 46.3406 875.846 Q39.6248 869.83 39.6248 859.804 Z" fill="#000000" fill-rule="evenodd" fill-opacity="1" /><path clip-path="url(#clip660)" d="M 0 0 M70.212 806.109 Q63.7508 806.109 60.0905 808.783 Q56.3984 811.425 56.3984 816.072 Q56.3984 820.719 60.0905 823.392 Q63.7508 826.034 70.212 826.034 Q76.6732 826.034 80.3653 823.392 Q84.0256 820.719 84.0256 816.072 Q84.0256 811.425 80.3653 808.783 Q76.6732 806.109 70.212 806.109 M57.7671 826.034 Q54.5842 824.188 53.0564 821.387 Q51.4968 818.554 51.4968 814.639 Q51.4968 808.146 56.6531 804.104 Q61.8093 800.03 70.212 800.03 Q78.6147 800.03 83.771 804.104 Q88.9272 808.146 88.9272 814.639 Q88.9272 818.554 87.3994 821.387 Q85.8398 824.188 82.657 826.034 L88.0042 826.034 L88.0042 831.922 L38.479 831.922 L38.479 826.034 L57.7671 826.034 Z" fill="#000000" fill-rule="evenodd" fill-opacity="1" /><path clip-path="url(#clip660)" d="M 0 0 M52.3562 793.887 L52.3562 788.031 L88.6407 788.031 Q95.452 788.031 98.5076 790.641 Q101.563 793.219 101.563 798.98 L101.563 801.208 L96.5979 801.208 L96.5979 799.648 Q96.5979 796.306 95.0383 795.097 Q93.5105 793.887 88.6407 793.887 L52.3562 793.887 M38.479 793.887 L38.479 788.031 L45.895 788.031 L45.895 793.887 L38.479 793.887 Z" fill="#000000" fill-rule="evenodd" fill-opacity="1" /><path clip-path="url(#clip660)" d="M 0 0 M68.7161 751.396 L71.5806 751.396 L71.5806 778.323 Q77.6281 777.941 80.8109 774.695 Q83.9619 771.416 83.9619 765.592 Q83.9619 762.218 83.1344 759.067 Q82.3069 755.884 80.6518 752.765 L86.1899 752.765 Q87.5267 755.916 88.227 759.226 Q88.9272 762.536 88.9272 765.942 Q88.9272 774.472 83.9619 779.469 Q78.9967 784.434 70.5303 784.434 Q61.7774 784.434 56.6531 779.724 Q51.4968 774.981 51.4968 766.96 Q51.4968 759.767 56.1438 755.597 Q60.7589 751.396 68.7161 751.396 M66.9973 757.253 Q62.1912 757.316 59.3266 759.958 Q56.4621 762.568 56.4621 766.897 Q56.4621 771.798 59.2312 774.758 Q62.0002 777.686 67.0292 778.132 L66.9973 757.253 Z" fill="#000000" fill-rule="evenodd" fill-opacity="1" /><path clip-path="url(#clip660)" d="M 0 0 M53.7248 719.599 L59.1993 719.599 Q57.8307 722.082 57.1623 724.596 Q56.4621 727.079 56.4621 729.625 Q56.4621 735.323 60.0905 738.474 Q63.6872 741.625 70.212 741.625 Q76.7369 741.625 80.3653 738.474 Q83.9619 735.323 83.9619 729.625 Q83.9619 727.079 83.2935 724.596 Q82.5933 722.082 81.2247 719.599 L86.6355 719.599 Q87.7814 722.05 88.3543 724.692 Q88.9272 727.302 88.9272 730.262 Q88.9272 738.315 83.8664 743.057 Q78.8057 747.8 70.212 747.8 Q61.491 747.8 56.4939 743.025 Q51.4968 738.219 51.4968 729.88 Q51.4968 727.175 52.0697 724.596 Q52.6108 722.018 53.7248 719.599 Z" fill="#000000" fill-rule="evenodd" fill-opacity="1" /><path clip-path="url(#clip660)" d="M 0 0 M42.2347 707.664 L52.3562 707.664 L52.3562 695.601 L56.9077 695.601 L56.9077 707.664 L76.2594 707.664 Q80.6199 707.664 81.8613 706.486 Q83.1026 705.277 83.1026 701.616 L83.1026 695.601 L88.0042 695.601 L88.0042 701.616 Q88.0042 708.396 85.4897 710.974 Q82.9434 713.552 76.2594 713.552 L56.9077 713.552 L56.9077 717.849 L52.3562 717.849 L52.3562 713.552 L42.2347 713.552 L42.2347 707.664 Z" fill="#000000" fill-rule="evenodd" fill-opacity="1" /><path clip-path="url(#clip660)" d="M 0 0 M53.4065 666.732 L58.9447 666.732 Q57.6716 669.215 57.035 671.888 Q56.3984 674.562 56.3984 677.427 Q56.3984 681.787 57.7352 683.983 Q59.072 686.148 61.7456 686.148 Q63.7826 686.148 64.9603 684.588 Q66.1061 683.028 67.1565 678.318 L67.6021 676.313 Q68.9389 670.074 71.3897 667.464 Q73.8086 664.823 78.1691 664.823 Q83.1344 664.823 86.0308 668.769 Q88.9272 672.684 88.9272 679.559 Q88.9272 682.424 88.3543 685.543 Q87.8132 688.63 86.6992 692.068 L80.6518 692.068 Q82.3387 688.821 83.198 685.67 Q84.0256 682.519 84.0256 679.432 Q84.0256 675.294 82.6251 673.066 Q81.1929 670.838 78.6147 670.838 Q76.2276 670.838 74.9545 672.461 Q73.6813 674.053 72.5037 679.495 L72.0262 681.532 Q70.8804 686.975 68.5251 689.394 Q66.138 691.813 62.0002 691.813 Q56.9713 691.813 54.2341 688.248 Q51.4968 684.684 51.4968 678.127 Q51.4968 674.88 51.9743 672.016 Q52.4517 669.151 53.4065 666.732 Z" fill="#000000" fill-rule="evenodd" fill-opacity="1" /><path clip-path="url(#clip660)" d="M 0 0 M563.662 12.096 L574.68 12.096 L601.497 62.6918 L601.497 12.096 L609.437 12.096 L609.437 72.576 L598.418 72.576 L571.601 21.9802 L571.601 72.576 L563.662 72.576 L563.662 12.096 Z" fill="#000000" fill-rule="evenodd" fill-opacity="1" /><path clip-path="url(#clip660)" d="M 0 0 M616.485 54.671 L616.485 27.2059 L623.939 27.2059 L623.939 54.3874 Q623.939 60.8284 626.451 64.0691 Q628.962 67.2693 633.985 67.2693 Q640.021 67.2693 643.505 63.421 Q647.029 59.5726 647.029 52.9291 L647.029 27.2059 L654.483 27.2059 L654.483 72.576 L647.029 72.576 L647.029 65.6084 Q644.315 69.7404 640.71 71.7658 Q637.145 73.7508 632.405 73.7508 Q624.587 73.7508 620.536 68.8897 Q616.485 64.0286 616.485 54.671 M635.241 26.1121 L635.241 26.1121 Z" fill="#000000" fill-rule="evenodd" fill-opacity="1" /><path clip-path="url(#clip660)" d="M 0 0 M697.625 35.9153 Q700.42 30.8922 704.309 28.5022 Q708.198 26.1121 713.464 26.1121 Q720.553 26.1121 724.401 31.0947 Q728.25 36.0368 728.25 45.1919 L728.25 72.576 L720.756 72.576 L720.756 45.4349 Q720.756 38.913 718.447 35.7533 Q716.138 32.5936 711.398 32.5936 Q705.605 32.5936 702.243 36.4419 Q698.881 40.2903 698.881 46.9338 L698.881 72.576 L691.387 72.576 L691.387 45.4349 Q691.387 38.8725 689.078 35.7533 Q686.769 32.5936 681.948 32.5936 Q676.236 32.5936 672.874 36.4824 Q669.512 40.3308 669.512 46.9338 L669.512 72.576 L662.018 72.576 L662.018 27.2059 L669.512 27.2059 L669.512 34.2544 Q672.064 30.082 675.629 28.0971 Q679.193 26.1121 684.095 26.1121 Q689.037 26.1121 692.48 28.6237 Q695.964 31.1352 697.625 35.9153 Z" fill="#000000" fill-rule="evenodd" fill-opacity="1" /><path clip-path="url(#clip660)" d="M 0 0 M768.637 49.9314 Q768.637 41.7081 765.235 37.0496 Q761.872 32.3505 755.958 32.3505 Q750.044 32.3505 746.641 37.0496 Q743.279 41.7081 743.279 49.9314 Q743.279 58.1548 746.641 62.8538 Q750.044 67.5124 755.958 67.5124 Q761.872 67.5124 765.235 62.8538 Q768.637 58.1548 768.637 49.9314 M743.279 34.0924 Q745.628 30.0415 749.193 28.0971 Q752.798 26.1121 757.781 26.1121 Q766.045 26.1121 771.189 32.6746 Q776.375 39.2371 776.375 49.9314 Q776.375 60.6258 771.189 67.1883 Q766.045 73.7508 757.781 73.7508 Q752.798 73.7508 749.193 71.8063 Q745.628 69.8214 743.279 65.7705 L743.279 72.576 L735.785 72.576 L735.785 9.54393 L743.279 9.54393 L743.279 34.0924 Z" fill="#000000" fill-rule="evenodd" fill-opacity="1" /><path clip-path="url(#clip660)" d="M 0 0 M823 48.0275 L823 51.6733 L788.73 51.6733 Q789.216 59.3701 793.348 63.421 Q797.52 67.4314 804.933 67.4314 Q809.227 67.4314 813.238 66.3781 Q817.289 65.3249 821.259 63.2184 L821.259 70.267 Q817.248 71.9684 813.035 72.8596 Q808.822 73.7508 804.488 73.7508 Q793.631 73.7508 787.272 67.4314 Q780.952 61.1119 780.952 50.3365 Q780.952 39.1965 786.947 32.6746 Q792.983 26.1121 803.192 26.1121 Q812.347 26.1121 817.653 32.0264 Q823 37.9003 823 48.0275 M815.547 45.84 Q815.466 39.7232 812.104 36.0774 Q808.782 32.4315 803.273 32.4315 Q797.034 32.4315 793.267 35.9558 Q789.54 39.4801 788.973 45.8805 L815.547 45.84 Z" fill="#000000" fill-rule="evenodd" fill-opacity="1" /><path clip-path="url(#clip660)" d="M 0 0 M857.109 34.1734 Q855.853 33.4443 854.354 33.1202 Q852.896 32.7556 851.114 32.7556 Q844.794 32.7556 841.392 36.8875 Q838.029 40.9789 838.029 48.6757 L838.029 72.576 L830.535 72.576 L830.535 27.2059 L838.029 27.2059 L838.029 34.2544 Q840.379 30.1225 844.146 28.1376 Q847.914 26.1121 853.301 26.1121 Q854.071 26.1121 855.003 26.2337 Q855.934 26.3147 857.069 26.5172 L857.109 34.1734 Z" fill="#000000" fill-rule="evenodd" fill-opacity="1" /><path clip-path="url(#clip660)" d="M 0 0 M908.88 32.4315 Q902.884 32.4315 899.401 37.1306 Q895.917 41.7891 895.917 49.9314 Q895.917 58.0738 899.36 62.7728 Q902.844 67.4314 908.88 67.4314 Q914.834 67.4314 918.318 62.7323 Q921.802 58.0333 921.802 49.9314 Q921.802 41.8701 918.318 37.1711 Q914.834 32.4315 908.88 32.4315 M908.88 26.1121 Q918.602 26.1121 924.152 32.4315 Q929.701 38.7509 929.701 49.9314 Q929.701 61.0714 924.152 67.4314 Q918.602 73.7508 908.88 73.7508 Q899.117 73.7508 893.567 67.4314 Q888.058 61.0714 888.058 49.9314 Q888.058 38.7509 893.567 32.4315 Q899.117 26.1121 908.88 26.1121 Z" fill="#000000" fill-rule="evenodd" fill-opacity="1" /><path clip-path="url(#clip660)" d="M 0 0 M960.488 9.54393 L960.488 15.7418 L953.359 15.7418 Q949.348 15.7418 947.768 17.3622 Q946.229 18.9825 946.229 23.1955 L946.229 27.2059 L958.503 27.2059 L958.503 32.9987 L946.229 32.9987 L946.229 72.576 L938.735 72.576 L938.735 32.9987 L931.605 32.9987 L931.605 27.2059 L938.735 27.2059 L938.735 24.0462 Q938.735 16.471 942.259 13.0277 Q945.783 9.54393 953.44 9.54393 L960.488 9.54393 Z" fill="#000000" fill-rule="evenodd" fill-opacity="1" /><path clip-path="url(#clip660)" d="M 0 0 M1024.53 34.0924 L1024.53 9.54393 L1031.99 9.54393 L1031.99 72.576 L1024.53 72.576 L1024.53 65.7705 Q1022.18 69.8214 1018.58 71.8063 Q1015.01 73.7508 1009.99 73.7508 Q1001.77 73.7508 996.582 67.1883 Q991.437 60.6258 991.437 49.9314 Q991.437 39.2371 996.582 32.6746 Q1001.77 26.1121 1009.99 26.1121 Q1015.01 26.1121 1018.58 28.0971 Q1022.18 30.0415 1024.53 34.0924 M999.134 49.9314 Q999.134 58.1548 1002.5 62.8538 Q1005.9 67.5124 1011.81 67.5124 Q1017.73 67.5124 1021.13 62.8538 Q1024.53 58.1548 1024.53 49.9314 Q1024.53 41.7081 1021.13 37.0496 Q1017.73 32.3505 1011.81 32.3505 Q1005.9 32.3505 1002.5 37.0496 Q999.134 41.7081 999.134 49.9314 Z" fill="#000000" fill-rule="evenodd" fill-opacity="1" /><path clip-path="url(#clip660)" d="M 0 0 M1078.61 48.0275 L1078.61 51.6733 L1044.34 51.6733 Q1044.83 59.3701 1048.96 63.421 Q1053.13 67.4314 1060.55 67.4314 Q1064.84 67.4314 1068.85 66.3781 Q1072.9 65.3249 1076.87 63.2184 L1076.87 70.267 Q1072.86 71.9684 1068.65 72.8596 Q1064.43 73.7508 1060.1 73.7508 Q1049.24 73.7508 1042.88 67.4314 Q1036.56 61.1119 1036.56 50.3365 Q1036.56 39.1965 1042.56 32.6746 Q1048.6 26.1121 1058.8 26.1121 Q1067.96 26.1121 1073.27 32.0264 Q1078.61 37.9003 1078.61 48.0275 M1071.16 45.84 Q1071.08 39.7232 1067.72 36.0774 Q1064.39 32.4315 1058.88 32.4315 Q1052.65 32.4315 1048.88 35.9558 Q1045.15 39.4801 1044.58 45.8805 L1071.16 45.84 Z" fill="#000000" fill-rule="evenodd" fill-opacity="1" /><path clip-path="url(#clip660)" d="M 0 0 M1093.8 14.324 L1093.8 27.2059 L1109.16 27.2059 L1109.16 32.9987 L1093.8 32.9987 L1093.8 57.6282 Q1093.8 63.1779 1095.3 64.7578 Q1096.84 66.3376 1101.5 66.3376 L1109.16 66.3376 L1109.16 72.576 L1101.5 72.576 Q1092.87 72.576 1089.59 69.3758 Q1086.31 66.1351 1086.31 57.6282 L1086.31 32.9987 L1080.84 32.9987 L1080.84 27.2059 L1086.31 27.2059 L1086.31 14.324 L1093.8 14.324 Z" fill="#000000" fill-rule="evenodd" fill-opacity="1" /><path clip-path="url(#clip660)" d="M 0 0 M1155.78 48.0275 L1155.78 51.6733 L1121.51 51.6733 Q1122 59.3701 1126.13 63.421 Q1130.3 67.4314 1137.72 67.4314 Q1142.01 67.4314 1146.02 66.3781 Q1150.07 65.3249 1154.04 63.2184 L1154.04 70.267 Q1150.03 71.9684 1145.82 72.8596 Q1141.6 73.7508 1137.27 73.7508 Q1126.41 73.7508 1120.05 67.4314 Q1113.73 61.1119 1113.73 50.3365 Q1113.73 39.1965 1119.73 32.6746 Q1125.77 26.1121 1135.97 26.1121 Q1145.13 26.1121 1150.44 32.0264 Q1155.78 37.9003 1155.78 48.0275 M1148.33 45.84 Q1148.25 39.7232 1144.89 36.0774 Q1141.56 32.4315 1136.05 32.4315 Q1129.82 32.4315 1126.05 35.9558 Q1122.32 39.4801 1121.75 45.8805 L1148.33 45.84 Z" fill="#000000" fill-rule="evenodd" fill-opacity="1" /><path clip-path="url(#clip660)" d="M 0 0 M1196.25 28.9478 L1196.25 35.9153 Q1193.09 34.1734 1189.89 33.3227 Q1186.73 32.4315 1183.49 32.4315 Q1176.24 32.4315 1172.23 37.0496 Q1168.22 41.6271 1168.22 49.9314 Q1168.22 58.2358 1172.23 62.8538 Q1176.24 67.4314 1183.49 67.4314 Q1186.73 67.4314 1189.89 66.5807 Q1193.09 65.6895 1196.25 63.9476 L1196.25 70.8341 Q1193.13 72.2924 1189.77 73.0216 Q1186.45 73.7508 1182.68 73.7508 Q1172.43 73.7508 1166.4 67.3098 Q1160.36 60.8689 1160.36 49.9314 Q1160.36 38.832 1166.44 32.472 Q1172.55 26.1121 1183.17 26.1121 Q1186.61 26.1121 1189.89 26.8413 Q1193.17 27.5299 1196.25 28.9478 Z" fill="#000000" fill-rule="evenodd" fill-opacity="1" /><path clip-path="url(#clip660)" d="M 0 0 M1211.44 14.324 L1211.44 27.2059 L1226.79 27.2059 L1226.79 32.9987 L1211.44 32.9987 L1211.44 57.6282 Q1211.44 63.1779 1212.94 64.7578 Q1214.48 66.3376 1219.14 66.3376 L1226.79 66.3376 L1226.79 72.576 L1219.14 72.576 Q1210.51 72.576 1207.23 69.3758 Q1203.95 66.1351 1203.95 57.6282 L1203.95 32.9987 L1198.48 32.9987 L1198.48 27.2059 L1203.95 27.2059 L1203.95 14.324 L1211.44 14.324 Z" fill="#000000" fill-rule="evenodd" fill-opacity="1" /><path clip-path="url(#clip660)" d="M 0 0 M1273.42 48.0275 L1273.42 51.6733 L1239.15 51.6733 Q1239.64 59.3701 1243.77 63.421 Q1247.94 67.4314 1255.35 67.4314 Q1259.65 67.4314 1263.66 66.3781 Q1267.71 65.3249 1271.68 63.2184 L1271.68 70.267 Q1267.67 71.9684 1263.46 72.8596 Q1259.24 73.7508 1254.91 73.7508 Q1244.05 73.7508 1237.69 67.4314 Q1231.37 61.1119 1231.37 50.3365 Q1231.37 39.1965 1237.37 32.6746 Q1243.4 26.1121 1253.61 26.1121 Q1262.77 26.1121 1268.07 32.0264 Q1273.42 37.9003 1273.42 48.0275 M1265.97 45.84 Q1265.89 39.7232 1262.52 36.0774 Q1259.2 32.4315 1253.69 32.4315 Q1247.45 32.4315 1243.69 35.9558 Q1239.96 39.4801 1239.39 45.8805 L1265.97 45.84 Z" fill="#000000" fill-rule="evenodd" fill-opacity="1" /><path clip-path="url(#clip660)" d="M 0 0 M1311.09 34.0924 L1311.09 9.54393 L1318.55 9.54393 L1318.55 72.576 L1311.09 72.576 L1311.09 65.7705 Q1308.74 69.8214 1305.14 71.8063 Q1301.57 73.7508 1296.55 73.7508 Q1288.33 73.7508 1283.14 67.1883 Q1278 60.6258 1278 49.9314 Q1278 39.2371 1283.14 32.6746 Q1288.33 26.1121 1296.55 26.1121 Q1301.57 26.1121 1305.14 28.0971 Q1308.74 30.0415 1311.09 34.0924 M1285.69 49.9314 Q1285.69 58.1548 1289.06 62.8538 Q1292.46 67.5124 1298.37 67.5124 Q1304.29 67.5124 1307.69 62.8538 Q1311.09 58.1548 1311.09 49.9314 Q1311.09 41.7081 1307.69 37.0496 Q1304.29 32.3505 1298.37 32.3505 Q1292.46 32.3505 1289.06 37.0496 Q1285.69 41.7081 1285.69 49.9314 Z" fill="#000000" fill-rule="evenodd" fill-opacity="1" /><path clip-path="url(#clip660)" d="M 0 0 M1370.32 32.4315 Q1364.32 32.4315 1360.84 37.1306 Q1357.36 41.7891 1357.36 49.9314 Q1357.36 58.0738 1360.8 62.7728 Q1364.28 67.4314 1370.32 67.4314 Q1376.27 67.4314 1379.76 62.7323 Q1383.24 58.0333 1383.24 49.9314 Q1383.24 41.8701 1379.76 37.1711 Q1376.27 32.4315 1370.32 32.4315 M1370.32 26.1121 Q1380.04 26.1121 1385.59 32.4315 Q1391.14 38.7509 1391.14 49.9314 Q1391.14 61.0714 1385.59 67.4314 Q1380.04 73.7508 1370.32 73.7508 Q1360.56 73.7508 1355.01 67.4314 Q1349.5 61.0714 1349.5 49.9314 Q1349.5 38.7509 1355.01 32.4315 Q1360.56 26.1121 1370.32 26.1121 Z" fill="#000000" fill-rule="evenodd" fill-opacity="1" /><path clip-path="url(#clip660)" d="M 0 0 M1431.53 49.9314 Q1431.53 41.7081 1428.12 37.0496 Q1424.76 32.3505 1418.85 32.3505 Q1412.93 32.3505 1409.53 37.0496 Q1406.17 41.7081 1406.17 49.9314 Q1406.17 58.1548 1409.53 62.8538 Q1412.93 67.5124 1418.85 67.5124 Q1424.76 67.5124 1428.12 62.8538 Q1431.53 58.1548 1431.53 49.9314 M1406.17 34.0924 Q1408.52 30.0415 1412.08 28.0971 Q1415.69 26.1121 1420.67 26.1121 Q1428.93 26.1121 1434.08 32.6746 Q1439.26 39.2371 1439.26 49.9314 Q1439.26 60.6258 1434.08 67.1883 Q1428.93 73.7508 1420.67 73.7508 Q1415.69 73.7508 1412.08 71.8063 Q1408.52 69.8214 1406.17 65.7705 L1406.17 72.576 L1398.67 72.576 L1398.67 9.54393 L1406.17 9.54393 L1406.17 34.0924 Z" fill="#000000" fill-rule="evenodd" fill-opacity="1" /><path clip-path="url(#clip660)" d="M 0 0 M1447.08 27.2059 L1454.54 27.2059 L1454.54 73.3862 Q1454.54 82.0551 1451.21 85.944 Q1447.93 89.8329 1440.6 89.8329 L1437.77 89.8329 L1437.77 83.5134 L1439.75 83.5134 Q1444 83.5134 1445.54 81.5285 Q1447.08 79.5841 1447.08 73.3862 L1447.08 27.2059 M1447.08 9.54393 L1454.54 9.54393 L1454.54 18.9825 L1447.08 18.9825 L1447.08 9.54393 Z" fill="#000000" fill-rule="evenodd" fill-opacity="1" /><path clip-path="url(#clip660)" d="M 0 0 M1501.16 48.0275 L1501.16 51.6733 L1466.89 51.6733 Q1467.38 59.3701 1471.51 63.421 Q1475.68 67.4314 1483.1 67.4314 Q1487.39 67.4314 1491.4 66.3781 Q1495.45 65.3249 1499.42 63.2184 L1499.42 70.267 Q1495.41 71.9684 1491.2 72.8596 Q1486.98 73.7508 1482.65 73.7508 Q1471.79 73.7508 1465.43 67.4314 Q1459.11 61.1119 1459.11 50.3365 Q1459.11 39.1965 1465.11 32.6746 Q1471.15 26.1121 1481.35 26.1121 Q1490.51 26.1121 1495.82 32.0264 Q1501.16 37.9003 1501.16 48.0275 M1493.71 45.84 Q1493.63 39.7232 1490.27 36.0774 Q1486.94 32.4315 1481.43 32.4315 Q1475.2 32.4315 1471.43 35.9558 Q1467.7 39.4801 1467.13 45.8805 L1493.71 45.84 Z" fill="#000000" fill-rule="evenodd" fill-opacity="1" /><path clip-path="url(#clip660)" d="M 0 0 M1541.63 28.9478 L1541.63 35.9153 Q1538.47 34.1734 1535.27 33.3227 Q1532.11 32.4315 1528.87 32.4315 Q1521.62 32.4315 1517.61 37.0496 Q1513.6 41.6271 1513.6 49.9314 Q1513.6 58.2358 1517.61 62.8538 Q1521.62 67.4314 1528.87 67.4314 Q1532.11 67.4314 1535.27 66.5807 Q1538.47 65.6895 1541.63 63.9476 L1541.63 70.8341 Q1538.51 72.2924 1535.15 73.0216 Q1531.83 73.7508 1528.06 73.7508 Q1517.81 73.7508 1511.78 67.3098 Q1505.74 60.8689 1505.74 49.9314 Q1505.74 38.832 1511.82 32.472 Q1517.93 26.1121 1528.55 26.1121 Q1531.99 26.1121 1535.27 26.8413 Q1538.55 27.5299 1541.63 28.9478 Z" fill="#000000" fill-rule="evenodd" fill-opacity="1" /><path clip-path="url(#clip660)" d="M 0 0 M1556.82 14.324 L1556.82 27.2059 L1572.17 27.2059 L1572.17 32.9987 L1556.82 32.9987 L1556.82 57.6282 Q1556.82 63.1779 1558.32 64.7578 Q1559.86 66.3376 1564.52 66.3376 L1572.17 66.3376 L1572.17 72.576 L1564.52 72.576 Q1555.89 72.576 1552.61 69.3758 Q1549.33 66.1351 1549.33 57.6282 L1549.33 32.9987 L1543.86 32.9987 L1543.86 27.2059 L1549.33 27.2059 L1549.33 14.324 L1556.82 14.324 Z" fill="#000000" fill-rule="evenodd" fill-opacity="1" /><path clip-path="url(#clip660)" d="M 0 0 M1608.92 28.5427 L1608.92 35.5912 Q1605.76 33.9709 1602.35 33.1607 Q1598.95 32.3505 1595.31 32.3505 Q1589.76 32.3505 1586.96 34.0519 Q1584.21 35.7533 1584.21 39.156 Q1584.21 41.7486 1586.19 43.2475 Q1588.18 44.7058 1594.17 46.0426 L1596.72 46.6097 Q1604.66 48.3111 1607.98 51.4303 Q1611.35 54.509 1611.35 60.0587 Q1611.35 66.3781 1606.32 70.0644 Q1601.34 73.7508 1592.59 73.7508 Q1588.95 73.7508 1584.98 73.0216 Q1581.05 72.3329 1576.67 70.9151 L1576.67 63.2184 Q1580.8 65.3654 1584.81 66.4591 Q1588.82 67.5124 1592.75 67.5124 Q1598.02 67.5124 1600.86 65.73 Q1603.69 63.9071 1603.69 60.6258 Q1603.69 57.5877 1601.62 55.9673 Q1599.6 54.3469 1592.67 52.8481 L1590.08 52.2405 Q1583.15 50.7821 1580.07 47.7845 Q1577 44.7463 1577 39.4801 Q1577 33.0797 1581.53 29.5959 Q1586.07 26.1121 1594.41 26.1121 Q1598.55 26.1121 1602.19 26.7198 Q1605.84 27.3274 1608.92 28.5427 Z" fill="#000000" fill-rule="evenodd" fill-opacity="1" /><path clip-path="url(#clip660)" d="M 0 0 M1678.11 49.9314 Q1678.11 41.7081 1674.7 37.0496 Q1671.34 32.3505 1665.43 32.3505 Q1659.51 32.3505 1656.11 37.0496 Q1652.75 41.7081 1652.75 49.9314 Q1652.75 58.1548 1656.11 62.8538 Q1659.51 67.5124 1665.43 67.5124 Q1671.34 67.5124 1674.7 62.8538 Q1678.11 58.1548 1678.11 49.9314 M1652.75 34.0924 Q1655.1 30.0415 1658.66 28.0971 Q1662.27 26.1121 1667.25 26.1121 Q1675.51 26.1121 1680.66 32.6746 Q1685.84 39.2371 1685.84 49.9314 Q1685.84 60.6258 1680.66 67.1883 Q1675.51 73.7508 1667.25 73.7508 Q1662.27 73.7508 1658.66 71.8063 Q1655.1 69.8214 1652.75 65.7705 L1652.75 72.576 L1645.25 72.576 L1645.25 9.54393 L1652.75 9.54393 L1652.75 34.0924 Z" fill="#000000" fill-rule="evenodd" fill-opacity="1" /><path clip-path="url(#clip660)" d="M 0 0 M1712.54 76.7889 Q1709.38 84.8907 1706.38 87.3618 Q1703.38 89.8329 1698.36 89.8329 L1692.41 89.8329 L1692.41 83.5945 L1696.78 83.5945 Q1699.86 83.5945 1701.56 82.1361 Q1703.26 80.6778 1705.33 75.2496 L1706.66 71.8468 L1688.31 27.2059 L1696.21 27.2059 L1710.39 62.6918 L1724.57 27.2059 L1732.47 27.2059 L1712.54 76.7889 Z" fill="#000000" fill-rule="evenodd" fill-opacity="1" /><path clip-path="url(#clip660)" d="M 0 0 M1789.63 9.54393 L1789.63 15.7418 L1782.5 15.7418 Q1778.49 15.7418 1776.91 17.3622 Q1775.37 18.9825 1775.37 23.1955 L1775.37 27.2059 L1787.64 27.2059 L1787.64 32.9987 L1775.37 32.9987 L1775.37 72.576 L1767.87 72.576 L1767.87 32.9987 L1760.74 32.9987 L1760.74 27.2059 L1767.87 27.2059 L1767.87 24.0462 Q1767.87 16.471 1771.4 13.0277 Q1774.92 9.54393 1782.58 9.54393 L1789.63 9.54393 Z" fill="#000000" fill-rule="evenodd" fill-opacity="1" /><path clip-path="url(#clip660)" d="M 0 0 M1823.74 34.1734 Q1822.48 33.4443 1820.98 33.1202 Q1819.52 32.7556 1817.74 32.7556 Q1811.42 32.7556 1808.02 36.8875 Q1804.66 40.9789 1804.66 48.6757 L1804.66 72.576 L1797.16 72.576 L1797.16 27.2059 L1804.66 27.2059 L1804.66 34.2544 Q1807.01 30.1225 1810.77 28.1376 Q1814.54 26.1121 1819.93 26.1121 Q1820.7 26.1121 1821.63 26.2337 Q1822.56 26.3147 1823.7 26.5172 L1823.74 34.1734 Z" fill="#000000" fill-rule="evenodd" fill-opacity="1" /><path clip-path="url(#clip660)" d="M 0 0 M1852.17 49.7694 Q1843.14 49.7694 1839.66 51.8354 Q1836.17 53.9013 1836.17 58.8839 Q1836.17 62.8538 1838.76 65.2034 Q1841.4 67.5124 1845.89 67.5124 Q1852.09 67.5124 1855.82 63.1374 Q1859.59 58.7219 1859.59 51.4303 L1859.59 49.7694 L1852.17 49.7694 M1867.04 46.6907 L1867.04 72.576 L1859.59 72.576 L1859.59 65.6895 Q1857.03 69.8214 1853.23 71.8063 Q1849.42 73.7508 1843.91 73.7508 Q1836.94 73.7508 1832.81 69.8619 Q1828.72 65.9325 1828.72 59.3701 Q1828.72 51.7138 1833.82 47.825 Q1838.97 43.9361 1849.14 43.9361 L1859.59 43.9361 L1859.59 43.2069 Q1859.59 38.0623 1856.18 35.2672 Q1852.82 32.4315 1846.7 32.4315 Q1842.82 32.4315 1839.13 33.3632 Q1835.44 34.295 1832.04 36.1584 L1832.04 29.2718 Q1836.13 27.692 1839.98 26.9223 Q1843.83 26.1121 1847.47 26.1121 Q1857.32 26.1121 1862.18 31.2163 Q1867.04 36.3204 1867.04 46.6907 Z" fill="#000000" fill-rule="evenodd" fill-opacity="1" /><path clip-path="url(#clip660)" d="M 0 0 M1910.18 35.9153 Q1912.98 30.8922 1916.87 28.5022 Q1920.76 26.1121 1926.02 26.1121 Q1933.11 26.1121 1936.96 31.0947 Q1940.81 36.0368 1940.81 45.1919 L1940.81 72.576 L1933.31 72.576 L1933.31 45.4349 Q1933.31 38.913 1931 35.7533 Q1928.69 32.5936 1923.96 32.5936 Q1918.16 32.5936 1914.8 36.4419 Q1911.44 40.2903 1911.44 46.9338 L1911.44 72.576 L1903.94 72.576 L1903.94 45.4349 Q1903.94 38.8725 1901.63 35.7533 Q1899.33 32.5936 1894.51 32.5936 Q1888.79 32.5936 1885.43 36.4824 Q1882.07 40.3308 1882.07 46.9338 L1882.07 72.576 L1874.57 72.576 L1874.57 27.2059 L1882.07 27.2059 L1882.07 34.2544 Q1884.62 30.082 1888.19 28.0971 Q1891.75 26.1121 1896.65 26.1121 Q1901.59 26.1121 1905.04 28.6237 Q1908.52 31.1352 1910.18 35.9153 Z" fill="#000000" fill-rule="evenodd" fill-opacity="1" /><path clip-path="url(#clip660)" d="M 0 0 M1987.43 48.0275 L1987.43 51.6733 L1953.16 51.6733 Q1953.65 59.3701 1957.78 63.421 Q1961.95 67.4314 1969.37 67.4314 Q1973.66 67.4314 1977.67 66.3781 Q1981.72 65.3249 1985.69 63.2184 L1985.69 70.267 Q1981.68 71.9684 1977.47 72.8596 Q1973.25 73.7508 1968.92 73.7508 Q1958.06 73.7508 1951.7 67.4314 Q1945.38 61.1119 1945.38 50.3365 Q1945.38 39.1965 1951.38 32.6746 Q1957.42 26.1121 1967.62 26.1121 Q1976.78 26.1121 1982.09 32.0264 Q1987.43 37.9003 1987.43 48.0275 M1979.98 45.84 Q1979.9 39.7232 1976.54 36.0774 Q1973.21 32.4315 1967.71 32.4315 Q1961.47 32.4315 1957.7 35.9558 Q1953.97 39.4801 1953.41 45.8805 L1979.98 45.84 Z" fill="#000000" fill-rule="evenodd" fill-opacity="1" /><polyline clip-path="url(#clip662)" style="stroke:#009af9; stroke-width:4; stroke-opacity:1; fill:none" points="
  259.313,160.256 269.526,160.256 279.74,160.256 289.953,160.256 300.166,160.256 310.38,160.256 320.593,160.256 330.807,160.256 341.02,160.256 351.233,160.256 
  361.447,160.256 371.66,160.256 381.874,160.256 392.087,335.419 402.3,335.419 412.514,160.256 422.727,335.419 432.941,335.419 443.154,335.419 453.368,335.419 
  463.581,335.419 473.794,860.907 484.008,510.582 494.221,160.256 504.435,685.745 514.648,335.419 524.861,335.419 535.075,335.419 545.288,335.419 555.502,510.582 
  565.715,510.582 575.928,160.256 586.142,335.419 596.355,160.256 606.569,160.256 616.782,160.256 626.996,160.256 637.209,160.256 647.422,160.256 657.636,160.256 
  667.849,160.256 678.063,160.256 688.276,160.256 698.489,510.582 708.703,1036.07 718.916,1036.07 729.13,1036.07 739.343,1036.07 749.556,1386.4 759.77,1036.07 
  769.983,685.745 780.197,1036.07 790.41,1036.07 800.624,1211.23 810.837,1211.23 821.05,1211.23 831.264,1036.07 841.477,1036.07 851.691,860.907 861.904,860.907 
  872.117,510.582 882.331,510.582 892.544,685.745 902.758,510.582 912.971,860.907 923.185,860.907 933.398,860.907 943.611,860.907 953.825,860.907 964.038,510.582 
  974.252,510.582 984.465,860.907 994.678,335.419 1004.89,160.256 1015.11,510.582 1025.32,510.582 1035.53,160.256 1045.75,160.256 1055.96,160.256 1066.17,160.256 
  1076.39,160.256 1086.6,160.256 1096.81,160.256 1107.03,160.256 1117.24,160.256 1127.45,160.256 1137.67,160.256 1147.88,160.256 1158.09,510.582 1168.31,160.256 
  1178.52,510.582 1188.73,510.582 1198.95,510.582 1209.16,860.907 1219.37,860.907 1229.59,860.907 1239.8,860.907 1250.01,510.582 1260.23,510.582 1270.44,510.582 
  1280.65,510.582 1290.87,510.582 1301.08,160.256 1311.29,160.256 1321.51,160.256 1331.72,510.582 1341.93,160.256 1352.15,160.256 1362.36,335.419 1372.57,335.419 
  1382.79,335.419 1393,335.419 1403.21,335.419 1413.43,1386.4 1423.64,1036.07 1433.86,1036.07 1444.07,685.745 1454.28,685.745 1464.5,685.745 1474.71,860.907 
  1484.92,1036.07 1495.14,1036.07 1505.35,685.745 1515.56,685.745 1525.78,510.582 1535.99,160.256 1546.2,510.582 1556.42,510.582 1566.63,510.582 1576.84,510.582 
  1587.06,860.907 1597.27,860.907 1607.48,860.907 1617.7,510.582 1627.91,510.582 1638.12,510.582 1648.34,510.582 1658.55,160.256 1668.76,160.256 1678.98,160.256 
  1689.19,510.582 1699.4,510.582 1709.62,510.582 1719.83,510.582 1730.04,510.582 1740.26,510.582 1750.47,510.582 1760.68,510.582 1770.9,510.582 1781.11,510.582 
  1791.32,160.256 1801.54,510.582 1811.75,160.256 1821.96,160.256 1832.18,160.256 1842.39,160.256 1852.61,160.256 1862.82,160.256 1873.03,160.256 1883.25,160.256 
  1893.46,160.256 1903.67,160.256 1913.89,160.256 1924.1,160.256 1934.31,160.256 1944.53,160.256 1954.74,160.256 1964.95,160.256 1975.17,160.256 1985.38,160.256 
  1995.59,510.582 2005.81,510.582 2016.02,860.907 2026.23,860.907 2036.45,860.907 2046.66,860.907 2056.87,860.907 2067.09,860.907 2077.3,860.907 2087.51,510.582 
  2097.73,510.582 2107.94,160.256 2118.15,160.256 2128.37,160.256 2138.58,160.256 2148.79,160.256 2159.01,160.256 2169.22,160.256 2179.43,160.256 2189.65,160.256 
  2199.86,160.256 2210.07,160.256 2220.29,160.256 2230.5,160.256 2240.71,160.256 2250.93,160.256 2261.14,160.256 2271.36,160.256 2281.57,160.256 2291.78,160.256 
  
  "/>
</svg>
